<svg xmlns="http://www.w3.org/2000/svg" viewBox="0 0 1504 1504">
    <g>
        <g>
            <g>
                <g>
                    <ellipse cx="767.23" cy="761.87" fill="#fff" rx="613.53" ry="580.6"/>
                    <path fill="#262626" fill-rule="evenodd" d="M1504 752c0-207.66-84.17-395.67-220.25-531.75S959.67 0 752 0 356.33 84.17 220.25 220.25 0 544.33 0 752s84.17 395.67 220.25 531.75S544.33 1504 752 1504s395.67-84.17 531.75-220.25S1504 959.67 1504 752zM560.84 897.25V405.4l13.31-2.28 482-82.28.46-.09 19.12-3.84v21.61h-.06l-.67 631.11.15.88c.2 1.21.33 2.23.4 3.1 3 39.58-10.37 77.35-34.35 106.45a152 152 0 0 1-98.28 54.5c-2.23.28-4.61.51-7.16.7a138.8 138.8 0 0 1-98.44-30.41 137 137 0 0 1-49.6-90c-.27-2.16-.51-4.5-.7-7-3-39.51 10.35-77.3 34.36-106.42s58.69-49.61 98.28-54.5a143.63 143.63 0 0 1 36.18.07c4.3.55 8.55 1.3 12.72 2.24V542.8l-300.5 55.93-.15 205.58v218.19c2.77 39.23-10.53 76.63-34.31 105.51a152 152 0 0 1-98.25 54.53c-2.12.26-4.42.48-6.87.67a138.88 138.88 0 0 1-98.74-30.45 137.19 137.19 0 0 1-49.64-90.22c-.25-2-.46-4.29-.65-6.73-3.08-39.56 10.23-77.35 34.22-106.47A151.66 151.66 0 0 1 512 894.88a143.09 143.09 0 0 1 36.17.11q6.45.84 12.72 2.26z"/>
                </g>
            </g>
        </g>
    </g>
</svg>
