<svg xmlns="http://www.w3.org/2000/svg" enable-background="new 0 0 2875.7 2875.7" viewBox="0 0 2875.7 2875.7">
    <path fill="#70D7B7" d="M1437.8 0C643.8 0 0 643.8 0 1437.8s643.8 1437.8 1437.8 1437.8S2875.7 2232 2875.7 1437.8 2232 0 1437.8 0zm965.3 1704.6c-26 5-50.9 13.4-74.4 21.8-78.4 28-216.8 81.8-286.4 118.4-7.2 4-14.1 7.2-21.3 11.1 2.9-11.7 4.6-23.6 5.1-35.7.5-14.9-.6-29.8-3.2-44.5.2-1 .6-1.9 1.2-2.7 70.5-27.7 206.9-73 279.9-91.3 36.6-8.8 70.4-3.4 99.1 22.9zm-160.2-74.9c-53.4 16.2-154.9 37.5-204.4 56.9l-33.6 13.2c-3.1 1.2-6.1 2.6-9 4.3-11.5-18.6-25.8-35.3-42.3-49.7 46.3-16.9 146-35.3 191.2-46.9 36.4-9.3 69.8-3.6 98.1 22.2zm-478.8-529.6c-14.7-19.3-34.4-32.4-55.3-43.9-38-20.9-79.3-33.6-119.9-48.1-53.1-19-104.6-41.6-150.9-74.2-58.9-41.5-100.2-95-110.5-168-17.1-120.8 36.8-226.1 144.1-284.2 38.2-20.7 79.1-33.8 122.8-42.3V287.7h5.1c29 10.1 59.3 15 89 22.8 20.4 5.4 40.9 10 62.1 15.2V428c81.3 3.1 159.3 17.8 233.1 53.2-16 60-31.8 119.5-47.8 179.9-36.1-17.3-71.5-32.2-109-41.1-58.6-14-117.7-20.5-177.6-8.8-21.5 4.2-41.2 13-57.1 28.6-30.9 30.1-31.3 76.1-1 106.6 17.6 17.7 39.1 29.5 61.1 40.6 50.3 25.5 104.4 41.6 156.3 63 39.2 16.2 76.7 35.6 111 60.8 82.9 60.9 113.6 144.8 106.2 244.5-9.2 124.7-94.4 218.5-222.8 257.3-19.1 5.7-38.6 10.2-58.3 13.6V1591h-10.2c-20.7-8.8-43.1-10.2-64.7-15.2-27.2-6.2-54.6-11.4-83-17.2v-119c-95.4-6.3-186.7-25-272.1-68.9 16.1-62.7 31.9-124.4 47.8-186.9 52.7 28.2 106.7 48.8 164 59.8 57.8 11.2 115.8 16.7 173.9 1.2 16-4.1 31.2-11 44.8-20.5 41.4-29.3 49.7-83.7 18.9-124.2zM562.7 2305.8c-18.5 10.2-42.1 3.9-52.3-14.6l-220.2-392.9c-10.2-18.5-3.9-42.1 14.6-52.3l125.8-79.2 243.9 475.6-111.8 63.4zm1960.8-368.6l-668.6 285.1-25.1 9.2c-85.5 31.9-172.4 31.1-261.6 8.1l-658.3-124.8-152.1 86.2-247.2-482 59-37.2c-2.1 1.5-2.3 1.8.2.4L756 1564.6c25.9-13.7 44.2-21.8 44.2-21.8 88.7-25 257.4-82.2 524.5 44.1 25.4 12.1 69.6 25.2 97.6 29.8l428.6 67c54.4 1.4 100.1 51.2 97.3 110.3s-52.6 104.8-106.4 103.2l-489.9-21.6c-15.6-.5-28.6 11.7-29.1 27.3-.5 14.9 10.7 27.6 25.5 29l19 1.6s325.9 41.4 555.7 24.1c41.9-3.1 80.6-13.1 118.1-31.2 5.9-2.6 13.9-6.4 19.5-9.5 84.2-44 210.9-96 301.2-127.9 25.1-9.2 118.3-45.4 159.6-36.1 58 12.8 74.9 63.8 67.5 106.1-6.5 35.5-32.3 63.9-65.4 78.2z"/>
</svg>
