<svg xmlns="http://www.w3.org/2000/svg" viewBox="0 0 131.08 127.32">
    <g id="Layer_2" data-name="Layer 2">
        <g id="Layer_1-2" data-name="Layer 1">
            <g id="Layer_1-2-2" data-name="Layer 1-2">
                <path id="Layer_1-2-2-2" fill="#d57986" stroke="#d57986" stroke-miterlimit="10" stroke-width="4px" d="M122.77 58.45l1-5.13a3.71 3.71 0 0 0-2.93-4.32l-8.93-1.75a48.17 48.17 0 0 0-8.47-18.49l4.9-4a1 1 0 0 0 .16-1.4 55.59 55.59 0 0 0-87.82.35 1 1 0 0 0 .17 1.4l4.81 4.06a48.19 48.19 0 0 0-8.16 18.4l-3.3.64-3.89.79a3.72 3.72 0 0 0-2.95 4.35l1 5.12a8.8 8.8 0 0 0-6.2 10.13l4.18 21.45a8.71 8.71 0 0 0 8.49 7 6.63 6.63 0 0 0 1-.07l.92 4.74a4.43 4.43 0 0 0 4.32 3.56 3.93 3.93 0 0 0 .84-.09l2.75-.53 6.43-1.21v8.81a9.23 9.23 0 0 0 9.22 9.19h33.13v1.43a2.44 2.44 0 0 0 2.42 2.44h13.5a2.44 2.44 0 0 0 2.44-2.44v-5.1a2.44 2.44 0 0 0-2.44-2.44H75.87a2.45 2.45 0 0 0-2.43 2.44v1.67H40.29a7.24 7.24 0 0 1-7.22-7.22V103l.43-.08a6.74 6.74 0 0 0 5.33-7.9L30.36 51.5a6.41 6.41 0 0 0-7.44-5l-3.33.64a46.54 46.54 0 0 1 7.63-16.72l4.79 4a1 1 0 0 0 .65.24h.11a1 1 0 0 0 .69-.39 38.92 38.92 0 0 1 62-.53v.06a1 1 0 0 0 1.39.18l4.84-4a46.17 46.17 0 0 1 7.86 16.8l-1.55-.33a6.37 6.37 0 0 0-7.47 5L92.14 95a6.76 6.76 0 0 0 5.32 7.9l11.61 2.27a4.09 4.09 0 0 0 .85.09 4.38 4.38 0 0 0 4.31-3.56l.93-4.73a8.39 8.39 0 0 0 1 .06 8.65 8.65 0 0 0 8.48-7l1.07-5.47a1 1 0 1 0-2-.38l-1.08 5.44A6.65 6.65 0 0 1 115.5 95l6.77-34.58a6.81 6.81 0 0 1 4.56 7.77l-1.33 7.23a1 1 0 0 0 .79 1.17h.21a1 1 0 0 0 1-.81l1.42-7.27a8.78 8.78 0 0 0-6.15-10.06zm-47.33 59.33a.44.44 0 0 1 .43-.44h13.49a.43.43 0 0 1 .44.44v5.1a.44.44 0 0 1-.44.44H75.87a.44.44 0 0 1-.43-.44zM8.31 89.65L4.13 68.18a6.75 6.75 0 0 1 1-5.1 6.87 6.87 0 0 1 3.57-2.63l6.73 34.61a6.68 6.68 0 0 1-7.12-5.41zm15-41.2a4.78 4.78 0 0 1 .84-.08 4.31 4.31 0 0 1 4.25 3.51l8.47 43.57a4.73 4.73 0 0 1-3.17 5.38 2.81 2.81 0 0 1-1.55.43 3.1 3.1 0 0 1-.53.1 2.94 2.94 0 0 1-.84.12h-.06l-5.45 1-.39.08a2.79 2.79 0 0 1-1.44.37h-.31l-1.6.31a2.41 2.41 0 0 1-2.82-1.9L9.28 53a1.69 1.69 0 0 1 .22-1.28 1.71 1.71 0 0 1 1.1-.72l2.22-.47a3.07 3.07 0 0 1 1.42-.35h.15a2 2 0 0 1 .34-.06 3 3 0 0 1 .83-.14zM96.5 31.71a40.66 40.66 0 0 0-31.82-15.06 41.26 41.26 0 0 0-32.18 15.6l-9.66-8.15A53.61 53.61 0 0 1 45.11 7.68a2.86 2.86 0 0 1 1.81-.62 3 3 0 0 1 .94-.38 2.9 2.9 0 0 1 1.71-.52 53.7 53.7 0 0 1 32.06.57 2.46 2.46 0 0 1 .75.25l.12.07a2.84 2.84 0 0 1 1.44.45A2.67 2.67 0 0 1 85 8a53.45 53.45 0 0 1 21.23 15.71zM121.76 53l-9.47 48.4a2.4 2.4 0 0 1-2.82 1.89l-1.71-.33h-.24a3 3 0 0 1-1.18-.24h-.16a3 3 0 0 1-1.43-.36l-4.56-.86a3 3 0 0 1-.78-.1A3.06 3.06 0 0 1 98 101h-.2a4.73 4.73 0 0 1-3.8-5.52l8.5-43.57a4.42 4.42 0 0 1 2-2.77 4.27 4.27 0 0 1 3.26-.66l7.8 1.52a2.5 2.5 0 0 1 .77.2h.16a3.05 3.05 0 0 1 1.12.21l2.77.54a1.72 1.72 0 0 1 1.38 2z" data-name="Layer 1-2-2"/>
            </g>
        </g>
    </g>
</svg>
