<svg xmlns="http://www.w3.org/2000/svg" viewBox="0 0 75 75">
    <defs>
        <style>
            .cls-2{fill:#fff}
        </style>
    </defs>
    <g id="Layer_2">
        <g id="Layer_1-2">
            <circle cx="37.5" cy="37.5" r="37.5" fill="#262626"/>
            <path d="M45 20.28H28.88a9.09 9.09 0 0 0-9 9.15v15.7a9.09 9.09 0 0 0 9 9.15H45a9.08 9.08 0 0 0 9-9.15v-15.7a9.08 9.08 0 0 0-9-9.15zm5.87 24.62a6.29 6.29 0 0 1-6.2 6.34H29.16A6.29 6.29 0 0 1 23 44.9V29.66a6.29 6.29 0 0 1 6.2-6.34h15.47a6.29 6.29 0 0 1 6.2 6.34z" class="cls-2"/>
            <path d="M36.91 28.55a8.73 8.73 0 1 0 8.55 8.73 8.64 8.64 0 0 0-8.55-8.73zm0 14.37a5.64 5.64 0 1 1 5.52-5.64 5.58 5.58 0 0 1-5.52 5.64z" class="cls-2"/>
            <ellipse cx="45.92" cy="28.08" class="cls-2" rx="1.93" ry="1.97"/>
        </g>
    </g>
</svg>
