<svg xmlns="http://www.w3.org/2000/svg" viewBox="0 0 36.36 23.46">
    <defs>
        <style>
            .cls-1{fill:none;stroke:#d57986;stroke-linecap:round;stroke-linejoin:round;stroke-width:1.5px}
        </style>
    </defs>
    <g id="Layer_2" data-name="Layer 2">
        <g id="Layer_1-2" data-name="Layer 1">
            <path d="M12.76 11.5a13.37 13.37 0 0 0 4.49 10 1.39 1.39 0 0 0 1.85 0A13.39 13.39 0 0 0 18.18.75a13.37 13.37 0 0 0-5.42 10.75z" class="cls-1"/>
            <path d="M20.22 20.39a11.07 11.07 0 0011.12-11 12 12 0 00-.12-1.69 11.12 11.12 0 00-7.78 1.71M12.93 9.39a11.14 11.14 0 00-7.74-1.73 11.06 11.06 0 009.28 12.6 10.32 10.32 0 001.66.13" class="cls-1"/>
            <path d="M19.51 21.11a11.09 11.09 0 0015.23-3.75 11.83 11.83 0 00.87-1.79 11.36 11.36 0 00-5.12-2.18M16.84 21.11a11.08 11.08 0 01-15.22-3.75 11.83 11.83 0 01-.87-1.79 11.25 11.25 0 015.12-2.18" class="cls-1"/>
        </g>
    </g>
</svg>
