<svg xmlns="http://www.w3.org/2000/svg" id="Layer_1" x="0" y="0" enable-background="new 0 0 2904.8 2904.8" version="1.1" viewBox="0 0 2904.8 2904.8" xml:space="preserve">
    <style>
        .st0{fill:#70d7b7}
    </style>
    <g id="Layer_1-2">
        <path d="M1452.4 0C650.3 0 0 650.3 0 1452.4s650.3 1452.4 1452.4 1452.4 1452.4-650.3 1452.4-1452.4S2254.5 0 1452.4 0zm-364.1 2604.4c-301.7 0-546.2-244.6-546.2-546.2S786.7 1512 1088.3 1512s546.2 244.5 546.2 546.2-244.5 546.2-546.2 546.2zm414-1871.2v48.4c0 16.9.4 33.8-.3 50.7-1.3 32.8-19.4 48.8-54.1 48.6-32.6-.2-51.3-16.8-51.7-48.5-.7-63.8-.7-127.5 0-191.3.4-34.9 18.7-51.3 54-50.9 33.8.3 51.2 17 51.8 50.8.7 30.7.3 61.5.3 92.2zm-58.2 493.2c6.4 4.7 12.8 9.2 19.5 13.9 59.1-49.8 116.5-99.7 175.7-147.6 98.4-79.7 195.6-161.1 305.4-225.5 11-6.6 22.7-11.9 34.9-15.8 16.2-5.1 23.3 3.2 19.7 18.9-4.2 18.1-14 34-23.4 49.8-43 72.7-95.5 138.6-147.8 204.5-87.7 110.6-178.6 218.5-272.9 323.6-50.4 56-126 58.6-174.2 1.7-73.7-87-140.6-179-193.7-280.4-9.3-17.8-17.2-36.4-19.9-56.4-3.3-23.8 6.3-31.5 30.4-28.4 20.3 2.6 38.4 10.7 56.3 19.7 67.6 34.1 129.2 77.5 190 122zm561.5 116.4c31.5-.5 63-.1 94.5-.1h46.1c15.4 0 30.7-.3 46.1.1 35.9.8 52.8 17.3 53.2 51.9.4 36.1-16.2 53.8-53.2 54.1-62.2.6-124.5.5-186.7 0-33.1-.2-51.1-19.1-51.1-51.9.1-35.4 16.8-53.5 51.1-54.1zm-311.2 957.9v-237.6c342.3-77.3 606.1-386.6 606.1-755.5 0-426.9-347.4-774.1-774.3-774.1-369.7 0-679.9 257.1-756.4 606.7h167.3L650 1621l-279-480.8h161.8c80.2-473.5 494.9-839.8 993-839.8 555.4 0 1007.9 451.7 1007.9 1007.2 0 498.1-365.8 912.9-839.3 993.1z" class="st0"/>
        <path d="M1088.3 1616.6c-243.8 0-441.5 197.7-441.5 441.5s197.7 441.5 441.5 441.5 441.5-197.7 441.5-441.5-197.6-441.5-441.5-441.5zm42.9 687.1v81.7H1038v-76.3c-63.8-2.2-125.6-16.7-161.8-34.4l28.7-94c40 18.5 95.8 35.3 157.9 35.3 54 0 91.2-17.6 91.2-49.6-.1-30.1-30.5-49.3-100.9-69.5-101.6-28.9-171.1-69-171.1-147 0-70.5 59.3-125.7 160.8-142.7V1731h93.2v70.5c63.6 2.4 106.5 13.6 137.8 26.4l-27.7 90.8c-24.5-8.9-68.3-27.4-136.9-27.4-61.8 0-81.6 22.4-81.6 44.9 0 26.3 33.2 43.3 114 69 113 33.6 158.8 77.7 158.8 149.9 0 71.4-60 132.4-169.2 148.6z" class="st0"/>
    </g>
</svg>
