<svg xmlns="http://www.w3.org/2000/svg" viewBox="0 0 75 75">
    <g>
        <g>
            <circle cx="37.5" cy="37.5" r="37.5" fill="#262626"/>
            <path fill="#fff" d="M38.88 18.56c-10.73 0-16 7.45-16 13.65 0 3.77 1.35 7.11 4.5 8.36a.78.78 0 0 0 1.11-.57c.11-.38.36-1.35.47-1.75a1 1 0 0 0-.33-1.22 6.19 6.19 0 0 1-1.49-4.29c0-5.52 4.27-10.47 11.12-10.47 6.07 0 9.4 3.59 9.4 8.38 0 6.3-2.88 12-7.16 12a3.71 3.71 0 0 1-3.57-4.58c.69-2.77 2.3-5.76 2.3-7.76 0-1.79-1.11-2.88-3.35-2.88-2.78 0-4.26 2-4.26 5.26a9.19 9.19 0 0 0 .63 3.46s-2.69 10.1-2.91 11.91a44.58 44.58 0 0 0-.07 8.31.3.3 0 0 0 .54.12 23.25 23.25 0 0 0 4.08-7.15c.28-1 1.59-6 1.59-6A6.8 6.8 0 0 0 41 46.47c7.26 0 12.07-6.81 12.07-15.39 0-6.48-5.56-12.52-14.19-12.52z"/>
        </g>
    </g>
</svg>
