<svg xmlns="http://www.w3.org/2000/svg" enable-background="new 0 0 2960 2960" viewBox="0 0 2960 2960">
    <path fill="#70D7B7" d="M1480 0C662.6 0 0 662.6 0 1480c0 239.3 56.8 465.3 157.6 665.3C401.2 2628.6 901.9 2960 1480 2960c817.4 0 1480-662.6 1480-1480S2297.4 0 1480 0zm680.7 1467.4c127.4-13.5 219.5 98.3 193.9 219.4-15.9 74.9-33.9 145.7-91.6 200.1-60.5 57-146.2 59.4-206.5 2.1-78.6-74.7-103.3-171.2-95.4-275 6.4-85.6 94.9-161.3 199.6-146.6zM881.9 606.9c.6-24.8 1.8-50.3 12-72.9 15.6-34.8 49.8-48 85-50.7 45.5-3.4 90.5-8.9 135.1-18.9 90.6-20.1 177.3-54.7 256.7-102.6 35.4-21.4 72.4-46.3 113.8-44.4 37.6 1.7 70 25.3 101.6 45.7 102.5 65.7 219.6 104.9 341 114.2 48.1 3.6 105.9 7.8 128.8 50.4 9.1 17 10.3 37 10.9 56.2 5.7 190.1-32.1 382.1-115.8 552.8-54.3 110.9-127.9 211.2-217.4 296.3-10.3-12.9-21.7-25-33.8-36.2l-.1.1c-8.1-7.5-16.7-14.5-25.5-21.1 120-110.4 206.4-246.6 257.7-409.8 40.5-128.8 59.8-261.2 55.3-396.9-11.6-2.2-18.1-4.2-24.7-4.7-168-13.1-324.2-60.4-462.8-159-19.6-13.9-34.1-5.7-50.7 5.1-52.8 34.3-108.7 63.6-167 87.6-100.3 41.3-206.5 55.6-317.1 69.2-5.2 91-2.8 176 8.7 260.6 31.5 232.4 125.9 421.9 294.2 561.1-8.8 7.4-17.2 15.2-25.1 23.6 0 .1 0 .1-.1.2-10.8 11.2-20.6 23.3-29.5 36-68.7-57.8-129.6-124.5-178.2-199.9C925.2 1078.3 884.2 872 881.5 668.3c-.2-20.5-.1-40.9.4-61.4zm483.9 827.3c95.6-31.3 188.3-34.4 272.5 32.5 49.2 39 60.4 92.6 58.7 178.5-5.7 73.9-29.1 168.4-106.5 241.1-65.7 61.6-166 63.2-230.6 0-89.6-87.5-117.8-198.7-103.9-318.8 7.2-62.8 45.4-112.2 109.8-133.3zm-293.5-491.7c-15.5 0-27.7-3-33.2-20.7-30.7-98.7-28.1-205.4-33.2-310.9 160.9-14 320.4-69.6 463.6-153.6v485.2c-126.6 0-279.3-.1-397.2 0zm409 369.3V963.7h402c-65.2 170.8-125.4 279.8-251 385.7-46.6-24.5-98.4-37.4-151-37.6zM600 1592.5c15.6-81.2 82.7-116.1 159-124 117.3-12.2 201.8 26.8 227.9 131.9 3.7 14.9 3.8 30.7 5.4 43.8-6.6 87.2-25.3 167.3-84.8 232.2-64.4 70.2-158.7 73.8-224.5 5.6-78.2-81.1-103.6-181.9-83-289.5zm337.8 749.6c-9.4 1.6-17.5 4.3-25.6 4.3-148.5.2-297.1.8-445.6-.3-49.8-.4-82.8-37-87.8-96.2-2.9-33.7-2.5-68-.1-101.8 3.5-50.4 33.7-82.9 78.9-101.2 51-20.7 103.3-38.3 154.3-59.1 44.1-18 75.8-5.7 101.4 32.9 24 36.1 50.3 70.6 78.7 110.2 22.2-30.7 41.2-56.7 59.8-82.9 55.5-78.4 79.7-84.1 176.3-35-122.1 84.6-95.8 208.9-90.3 329.1zm999.2-149.8c-1.6 29.6 0 59.4-.4 89.2-1.1 81.9-38.4 120-119.5 120.5-104.8.6-209.6.2-314.3.2-121.8 0-243.5.3-365.3-.2-87-.4-123.8-37.6-124.3-124.2-.2-28.3 1.4-56.7-.3-84.9-3.9-62.7 28.4-103.1 81.7-126.1 60.9-26.3 123.5-49.2 186.4-70 53.7-17.8 70.3-9.9 103.6 36.7 28.6 40.1 57.4 80.2 90.4 126.1 31.3-44 58.6-81.8 85.3-119.9 31.3-44.7 62.9-59.2 112.3-42.5 62.9 21.2 125.1 44.9 186 71.4 52.3 22.7 81.7 63.4 78.4 123.7zm625.8 91.1c-7.9 37.3-35.9 62.2-76 62.5-151.3 1.1-302.7.5-454 .3-6.7 0-13.4-2.8-20.3-4.4 3.8-118.6 32.7-242.2-94.7-331.1 37.2-12.5 64.5-28.6 91.9-28.7 21.2-.1 47.8 15.1 62.7 31.8 30.8 34.4 55.3 74.4 86.3 117.4l74.8-105.8c30.4-42.9 57.1-53.8 105.3-37.2 53.4 18.4 106.4 38.3 158.2 60.6 50 21.6 77 61.3 74.9 117-1.4 39.4-1 79.5-9.1 117.6z"/>
</svg>
