<svg xmlns="http://www.w3.org/2000/svg" id="Capa_1" x="0" y="0" enable-background="new 0 0 612 612" version="1.1" viewBox="0 0 612 612" xml:space="preserve">
    <style>
        .st0{display:none}.st0,.st1{fill:#4e4e4e}
    </style>
    <path d="M510.8 85.9c-29.3-14.9-58.4-16.3-59.6-16.4h-47v-.4c0-26.8-12.8-48.1-35.9-59.9C352.1 1 336.4.1 334.7 0h-57.2c-1.7.1-17.5 1-33.6 9.2C220.7 21 208 42.3 208 69.1v.4h-47c-1.2.1-30.3 1.4-59.6 16.4-28.5 14.4-62.1 44.1-62.1 103.6 0 9.6 7.8 17.4 17.3 17.4h15.2L139 597.6c1.4 8.3 8.6 14.4 17.1 14.4H456c8.4 0 15.7-6.1 17.1-14.4l67.1-390.8h15.2c9.6 0 17.3-7.8 17.3-17.4 0-59.4-33.6-89.1-61.9-103.5zM75.4 172.1c4.2-24.5 17.8-42.9 40.7-54.8 21.3-11.1 43.3-12.9 45.9-13.1h288c2.6.2 24.1 1.9 45 12.6 23.4 11.9 37.3 30.5 41.6 55.3H75.4zm167.1-103c0-13.6 5.2-22.7 16.2-28.6 8.9-4.8 18.4-5.7 19.9-5.8h54.7c1.7.1 11.1 1.1 19.9 5.8 11.1 5.9 16.2 15 16.2 28.6v.4h-127c.1-.1.1-.2.1-.4zm198.8 508.2H170.7l-63.6-370.5h397.8l-63.6 370.5z" class="st0"/>
    <path d="M156.1 611c-8 0-14.8-5.7-16.1-13.6L72.7 205.8H56.6c-9 0-16.3-7.3-16.3-16.4 0-59 33.4-88.4 61.4-102.7 29.1-14.9 58-16.2 59.2-16.3h48v-1-.4c0-26.4 12.6-47.4 35.4-59 16-8.1 31.5-9 33.2-9.1h57.2c1.7.1 17.2.9 33.2 9.1 22.8 11.6 35.4 32.6 35.4 59v1.4h48c1.2 0 30 1.4 59.2 16.3 28 14.3 61.4 43.7 61.4 102.7 0 9-7.3 16.4-16.3 16.4h-16.1l-67.2 391.6c-1.4 7.9-8.1 13.6-16.1 13.6H156.1zm13.7-32.7h272.3L506 205.8H105.9l63.9 372.5zm-7.9-475.1c-2.5.2-24.9 2-46.3 13.2-23.1 12.1-36.9 30.8-41.2 55.5l-.2 1.2h463.6l-.2-1.2c-4.3-25.1-18.5-44-42.1-56-21.2-10.8-43-12.5-45.4-12.7H161.9zm116.6-69.5c-1.8.1-11.3 1.1-20.3 5.9-11.4 6.1-16.8 15.5-16.8 29.5v1.4h129.1l-.1-1.2v-.2c0-14-5.3-23.3-16.8-29.5-9-4.8-18.5-5.8-20.3-5.9h-54.8z" class="st1"/>
    <path d="M306 519.6c9.6 0 17.4-7.8 17.4-17.4V257.9c0-9.6-7.8-17.4-17.4-17.4-9.6 0-17.4 7.8-17.4 17.4v244.3c0 9.6 7.8 17.4 17.4 17.4z" class="st0"/>
    <path d="M306 518.6c-9 0-16.4-7.3-16.4-16.4V257.9c0-9 7.3-16.4 16.4-16.4s16.3 7.3 16.3 16.4v244.3c0 9-7.3 16.4-16.3 16.4z" class="st1"/>
    <path d="M203.8 503.8c.8 9 8.4 15.8 17.3 15.8.5 0 1 0 1.6-.1 9.5-.8 16.6-9.3 15.7-18.8l-21.7-244.3c-.8-9.5-9.3-16.6-18.8-15.7-9.5.8-16.6 9.3-15.7 18.8l21.6 244.3z" class="st0"/>
    <path d="M221 518.6c-8.5 0-15.5-6.4-16.3-14.9L183 259.4c-.8-9 5.9-16.9 14.8-17.7.5 0 1-.1 1.5-.1 8.5 0 15.5 6.4 16.2 14.9l21.7 244.3c.4 4.3-.9 8.6-3.7 11.9s-6.7 5.4-11.1 5.8c-.4 0-.9.1-1.4.1z" class="st1"/>
    <path d="M389.4 519.5c.5 0 1 .1 1.6.1 8.9 0 16.5-6.8 17.3-15.8L430 259.5c.8-9.5-6.2-18-15.7-18.8-9.5-.9-18 6.2-18.8 15.7l-21.7 244.3c-1 9.5 6.1 18 15.6 18.8z" class="st0"/>
    <path d="M391 518.6c-.5 0-1 0-1.5-.1-4.3-.4-8.3-2.4-11.1-5.8s-4.1-7.6-3.7-11.9l21.7-244.3c.7-8.4 7.9-14.9 16.3-14.9.5 0 1 0 1.5.1 9 .8 15.6 8.8 14.8 17.7l-21.7 244.3c-.8 8.5-7.8 14.9-16.3 14.9z" class="st1"/>
</svg>
