<svg xmlns="http://www.w3.org/2000/svg" viewBox="0 0 75 75">
    <defs>
        <style>
            .cls-2{fill:#fff}
        </style>
    </defs>
    <g id="Layer_2">
        <g id="Layer_1-2">
            <circle cx="37.5" cy="37.5" r="37.5" fill="#262626"/>
            <path d="M39.87 43.68a1.32 1.32 0 00-.93.45v6.27a1.33 1.33 0 00.93.46c.54 0 .81-.46.81-1.39v-4.39c0-.93-.27-1.4-.81-1.4zM46.69 43.68c-.62 0-.93.47-.93 1.42v1h1.86v-1c0-1-.31-1.42-.93-1.42z" class="cls-2"/>
            <path d="M50.57 36.62a4.4 4.4 0 00-3.09-1.3C43.17 35 36.71 35 36.71 35s-6.46 0-10.77.31a4.44 4.44 0 00-3.09 1.3 6.56 6.56 0 00-1.22 3 45.77 45.77 0 00-.31 5v2.32a45.53 45.53 0 00.31 4.95 6.62 6.62 0 001.22 3 5.19 5.19 0 003.39 1.3c2.47.24 10.48.31 10.48.31s6.46 0 10.77-.32a4.42 4.42 0 003.09-1.29 6.62 6.62 0 001.22-3 47 47 0 00.3-4.95V44.6a47.27 47.27 0 00-.3-5 6.56 6.56 0 00-1.22-3zM28.1 52.41H26V40.55h-2.2v-1.94h6.51v1.94H28.1zm7.36 0h-1.87v-1.13a3 3 0 01-2.13 1.27 1.16 1.16 0 01-1.21-.77 5.32 5.32 0 01-.16-1.53v-8.12H32v7.56a5 5 0 000 .73c.05.29.19.44.44.44s.76-.29 1.18-.88v-7.85h1.87zm7.09-3.09a8.37 8.37 0 01-.19 2.07 1.48 1.48 0 01-1.49 1.16 2.53 2.53 0 01-1.93-1.14v1h-1.87v-13.8h1.87v4.5A2.52 2.52 0 0140.87 42a1.48 1.48 0 011.49 1.16 8.14 8.14 0 01.19 2.07zm6.94-1.72h-3.73v1.83c0 1 .31 1.43 1 1.43a.8.8 0 00.83-.75 11.36 11.36 0 000-1.27h1.91v1.48a2.62 2.62 0 01-2.7 2.23 2.65 2.65 0 01-2.25-1.06 3.92 3.92 0 01-.6-2.41v-3.61a4 4 0 01.57-2.42 2.68 2.68 0 012.24-1 2.59 2.59 0 012.2 1 4 4 0 01.58 2.42zM31.78 34v-5.66L34.29 20h-2.11l-1.43 5.48L29.27 20h-2.21c.45 1.29.91 2.59 1.35 3.89a36.1 36.1 0 011.28 4.41V34zM36.69 34.13a2.56 2.56 0 002.19-1.07 4 4 0 00.59-2.44V27a4 4 0 00-.59-2.44 2.79 2.79 0 00-4.39 0A4 4 0 0033.9 27v3.64a4 4 0 00.59 2.44 2.57 2.57 0 002.2 1.07zm-.91-7.53c0-1 .3-1.44.91-1.44s.89.48.89 1.44V31c0 1-.29 1.45-.89 1.45s-.91-.48-.91-1.45zM46.34 34V23.59h-1.88v8c-.42.58-.82.88-1.19.88s-.41-.15-.45-.44a5.15 5.15 0 010-.74v-7.7h-1.9v8.22a5.1 5.1 0 00.17 1.55 1.16 1.16 0 001.21.77 3.06 3.06 0 002.16-1.28V34z" class="cls-2"/>
        </g>
    </g>
</svg>
