<svg xmlns="http://www.w3.org/2000/svg" viewBox="0 0 35.83 51.64"><defs><style>.cls-1{fill:none;stroke:#262626;stroke-linecap:round;stroke-linejoin:round;stroke-width:3px;}</style></defs><title>certificat black</title><g id="Layer_2" data-name="Layer 2"><g id="Layer_1-2" data-name="Layer 1"><g id="Layer_1-2-2" data-name="Layer 1-2"><circle class="cls-1" cx="17.9" cy="17.67" r="6.37"/><polyline class="cls-1" points="23.03 37.94 23.03 50.14 15.49 46.08 7.96 50.14 7.96 34.04"/><line class="cls-1" x1="28.23" y1="33.72" x2="28.23" y2="48.18"/><path class="cls-1" d="M15.62,32.93h0a3.24,3.24,0,0,1-4.58,0,3.28,3.28,0,0,1-.93-2h0A3.25,3.25,0,0,0,6.61,28h0A3.24,3.24,0,0,1,3.1,25.05a3.32,3.32,0,0,1,.57-2.14h0a3.24,3.24,0,0,0-.79-4.5h0a3.24,3.24,0,0,1,1-5.78h0a3.23,3.23,0,0,0,2.3-4l0,0h0a3.24,3.24,0,0,1,4.5-3.77h0A3.22,3.22,0,0,0,15,3.38l0,0h0a3.26,3.26,0,0,1,5.87,0h0a3.23,3.23,0,0,0,4.29,1.57h0a3.25,3.25,0,0,1,4.31,1.57,3.16,3.16,0,0,1,.19,2.2h0a3.24,3.24,0,0,0,2.25,4h0a3.25,3.25,0,0,1,2.27,4h0a3.21,3.21,0,0,1-1.27,1.79h0a3.25,3.25,0,0,0-.79,4.5h0a3.23,3.23,0,0,1-.87,4.49,3.29,3.29,0,0,1-2.12.53h0a3.26,3.26,0,0,0-3.5,2.94h0a3.24,3.24,0,0,1-3.52,2.93,3.28,3.28,0,0,1-2-.93h0A3.24,3.24,0,0,0,15.62,32.93Z"/></g></g></g></svg>