<svg xmlns="http://www.w3.org/2000/svg" viewBox="0 0 23.88 20.21"><defs><style>.cls-1{fill:#be0e76;stroke:#be0e76;stroke-miterlimit:10;stroke-width:0.25px;}</style></defs><title>heart profil profesionist</title><g id="Layer_2" data-name="Layer 2"><g id="Layer_1-2" data-name="Layer 1"><g id="Layer_1-2-2" data-name="Layer 1-2"><g id="Layer_1-2-2-2" data-name="Layer 1-2-2"><path class="cls-1" d="M11.91,20.09a1.27,1.27,0,0,1-.79-.28C9.59,18.59,4.42,14.36,2,11.38A7.33,7.33,0,0,1,.14,6a5.59,5.59,0,0,1,2-4.15A6.78,6.78,0,0,1,7.84.24a6,6,0,0,1,4.07,2.63A6,6,0,0,1,16,.24a6.78,6.78,0,0,1,5.74,1.6,5.52,5.52,0,0,1,2,4.13,7.31,7.31,0,0,1-1.92,5.45c-2.35,2.94-7.53,7.17-9.06,8.39A1.3,1.3,0,0,1,11.91,20.09ZM6.63,1.14A5.5,5.5,0,0,0,2.79,2.56,4.62,4.62,0,0,0,1.14,6a6.41,6.41,0,0,0,1.63,4.69c2.37,2.94,7.47,7.11,9,8.32a.26.26,0,0,0,.33,0c1.51-1.21,6.61-5.38,8.93-8.28A6.39,6.39,0,0,0,22.68,6a4.59,4.59,0,0,0-1.6-3.42h0a5.8,5.8,0,0,0-4.89-1.34,5,5,0,0,0-3.78,2.89.53.53,0,0,1-.91,0A5,5,0,0,0,7.67,1.22,7.17,7.17,0,0,0,6.63,1.14Z"/></g></g></g></g></svg>