<svg xmlns="http://www.w3.org/2000/svg" viewBox="0 0 1017 1016"><defs><style>.cls-1{fill:#cf0078;}.cls-2{fill:#fdfcfd;}</style></defs><title>appicon</title><g id="Layer_2" data-name="Layer 2"><g id="Layer_1-2" data-name="Layer 1"><path class="cls-1" d="M0,862V154c.61-2.83,1.41-5.64,1.81-8.51C11.36,77.54,62.75,20.81,129.31,5c8.48-2,17.12-3.35,25.69-5H861c5.82,1,11.65,2,17.47,3,64,11.09,119,63.14,133.55,126.45,1.87,8.15,3.33,16.39,5,24.59V862c-.61,2.84-1.4,5.65-1.81,8.51a169.67,169.67,0,0,1-128,140.58c-8.64,2.06-17.48,3.29-26.22,4.91H155a11.76,11.76,0,0,0-2.65-.92A169.76,169.76,0,0,1,4.88,886.14C3,878.17,1.61,870.05,0,862ZM408.45,581.26c.66,1.87,1,2.65,1.21,3.44,7.08,24,26.08,36.46,50.73,33.59,14.07-1.64,26-8,37-16.27,19.24-14.49,32.94-33.56,42.36-55.36,8-18.57,14.36-37.89,21.23-56.95,7.11-19.76,14.45-39.4,27-56.49,2.76-3.74,6.1-7,9.18-10.54l1.31.5C600.85,448,612,470,619.88,493.11a104.34,104.34,0,0,1,5.94,38.29c-.82,18.51-6.28,35.08-23.52,44.7-16.72,9.33-34.42,11.1-52.22,2.76-4.87-2.27-9.24-2.17-13,1.13a42.43,42.43,0,0,0-9.23,10.8c-3.53,6.36-2.44,9.11,3.47,13.53,18.57,13.9,40,20.6,62.64,22.45,50.61,4.14,91.27-15,122.52-54.67,1-1.23,1.95-2.46,3.17-4,8.26,20.08,22.28,34,41.57,42.39,24.78,10.82,50.32,11.32,75.6,2.7,49.2-16.79,72.16-56,85.69-102.79,1.15-4-1-6.6-5.07-7.79-11.2-3.28-20.42,1.15-24.34,12.14a147.2,147.2,0,0,1-23.41,42.7c-17.31,21.76-39.36,32.62-67.62,29.6-25.2-2.69-46.22-25.1-47.11-50.39-.12-3.3,1-4.35,4.12-4.58,7.47-.53,15-1,22.36-2.15,28.22-4.49,53.51-15,72.46-37.4,13.62-16.12,20-34.62,15.53-55.64-5.54-25.85-31.75-42.6-59.66-39.57-23.87,2.6-42.8,13.74-57.92,31.89-16.65,20-27.11,43.29-32.59,68.33-5.65,25.86-16.27,48.78-33,69a96,96,0,0,1-46.82,30.92,43.4,43.4,0,0,1-4.77.83c25.25-21.86,34.32-52.72,32.55-82-1-16.9-6.46-32.52-12.81-48-7.4-18-14.87-36-15-56,0-3.28-2.49-7.87-5.24-9.59C610.55,388,596,387,576.1,401.29c-2.16,1.55-4.2,3.28-6.2,5-17,15-27.33,34.29-34.75,55.2-6.83,19.26-12.66,38.88-19.13,58.27-5.89,17.67-13.63,34.36-26.92,47.89-5.89,6-12.26,11.26-20.56,13.65-12.73,3.67-21.43-1.52-21.69-14.59a89.13,89.13,0,0,1,3.8-27.49c11.47-37.33,23.78-74.41,35.61-111.63,2.36-7.42,4.19-15,5.84-22.65.9-4.11-1.26-6.87-5.59-7.12-5.47-.31-11-.2-16.44-.46-9.33-.45-15,4-18,12.63-1.81,5.2-4.18,10.21-6.35,15.41a5.07,5.07,0,0,1-.83-.61c-.48-.67-.95-1.36-1.41-2.05C432,405.29,415.56,397,395,397.15c-21.53.21-39.6,9.2-55.13,23.64C319.21,440,306.73,464,299.09,490.65c-5.6,19.58-11.94,38.79-23.22,56-10.35,15.78-23,29.25-41.07,35.85-39.72,14.47-76.35-5.15-81.25-45-.53-4.28.62-5.15,4.8-5.72,14-1.88,28.18-3.27,41.7-7,23.47-6.5,43.87-18.58,57.66-39.5,9.26-14.05,14.15-29.54,10.82-46.48-4.83-24.62-25-40.57-51.62-41.75-25.12-1.11-45.42,9.05-61.86,27.18-26.26,29-39.29,63.93-42.72,102.27-2.32,25.9,4.82,49.75,24,68.41,22.38,21.73,50.24,26.29,79.78,22.54,30.93-3.94,55.37-19.79,74.7-43.92,1.07-1.33,2.18-2.64,3.43-4.15,9.27,25.91,23.75,45.89,52.45,48.88S394.39,605.45,408.45,581.26Z"/><path class="cls-2" d="M408.45,581.26c-14.06,24.19-33.05,40-61.72,37s-43.18-23-52.45-48.88c-1.25,1.51-2.36,2.82-3.43,4.15-19.33,24.13-43.77,40-74.7,43.92-29.54,3.75-57.4-.81-79.78-22.54-19.22-18.66-26.36-42.51-24-68.41,3.43-38.34,16.46-73.31,42.72-102.27,16.44-18.13,36.74-28.29,61.86-27.18,26.62,1.18,46.79,17.13,51.62,41.75,3.33,16.94-1.56,32.43-10.82,46.48-13.79,20.92-34.19,33-57.66,39.5-13.52,3.75-27.73,5.14-41.7,7-4.18.57-5.33,1.44-4.8,5.72,4.9,39.85,41.53,59.47,81.25,45,18.12-6.6,30.72-20.07,41.07-35.85,11.28-17.19,17.62-36.4,23.22-56,7.64-26.69,20.12-50.7,40.73-69.86,15.53-14.44,33.6-23.43,55.13-23.64,20.61-.2,37.07,8.14,48.52,25.63.46.69.93,1.38,1.41,2.05a5.07,5.07,0,0,0,.83.61c2.17-5.2,4.54-10.21,6.35-15.41,3-8.65,8.68-13.08,18-12.63,5.47.26,11,.15,16.44.46,4.33.25,6.49,3,5.59,7.12-1.65,7.61-3.48,15.23-5.84,22.65-11.83,37.22-24.14,74.3-35.61,111.63a89.13,89.13,0,0,0-3.8,27.49c.26,13.07,9,18.26,21.69,14.59,8.3-2.39,14.67-7.66,20.56-13.65,13.29-13.53,21-30.22,26.92-47.89,6.47-19.39,12.3-39,19.13-58.27,7.42-20.91,17.78-40.2,34.75-55.2,2-1.76,4-3.49,6.2-5,19.88-14.26,34.45-13.31,58,1.44,2.75,1.72,5.21,6.31,5.24,9.59.15,20.06,7.62,38,15,56,6.35,15.44,11.78,31.06,12.81,48,1.77,29.3-7.3,60.16-32.55,82a43.4,43.4,0,0,0,4.77-.83,96,96,0,0,0,46.82-30.92c16.77-20.23,27.39-43.15,33-69,5.48-25,15.94-48.34,32.59-68.33,15.12-18.15,34-29.29,57.92-31.89,27.91-3,54.12,13.72,59.66,39.57,4.51,21-1.91,39.52-15.53,55.64C835,515,809.66,525.46,781.44,530c-7.38,1.17-14.89,1.62-22.36,2.15-3.15.23-4.24,1.28-4.12,4.58.89,25.29,21.91,47.7,47.11,50.39,28.26,3,50.31-7.84,67.62-29.6a147.2,147.2,0,0,0,23.41-42.7c3.92-11,13.14-15.42,24.34-12.14,4.07,1.19,6.22,3.83,5.07,7.79C909,557.2,886,596.42,836.82,613.21c-25.28,8.62-50.82,8.12-75.6-2.7-19.29-8.42-33.31-22.31-41.57-42.39-1.22,1.52-2.2,2.75-3.17,4-31.25,39.71-71.91,58.81-122.52,54.67-22.67-1.85-44.07-8.55-62.64-22.45-5.91-4.42-7-7.17-3.47-13.53a42.43,42.43,0,0,1,9.23-10.8c3.76-3.3,8.13-3.4,13-1.13,17.8,8.34,35.5,6.57,52.22-2.76,17.24-9.62,22.7-26.19,23.52-44.7a104.34,104.34,0,0,0-5.94-38.29c-7.85-23.08-19-45.1-21.35-69.93l-1.31-.5c-3.08,3.5-6.42,6.8-9.18,10.54-12.6,17.09-19.94,36.73-27,56.49-6.87,19.06-13.2,38.38-21.23,56.95-9.42,21.8-23.12,40.87-42.36,55.36-11,8.3-22.94,14.63-37,16.27-24.65,2.87-43.65-9.6-50.73-33.59C409.42,583.91,409.11,583.13,408.45,581.26Zm-77.59-48c.27,14.88,1.25,26.44,6.76,37.1,9.41,18.23,26.37,22.25,42.72,9.88a75.42,75.42,0,0,0,24.41-31.69c6.6-15.93,12.58-32.15,18.13-48.48,5-14.66,8.59-29.65,7.16-45.47-1.62-17.89-13.7-28.13-31.46-25.78-14,1.86-25.38,9-34.5,19.37C342,473.37,332.2,503.34,330.86,533.27Zm-177-19.52a16.94,16.94,0,0,0,2.32.36c25.28.2,59.09-14.95,68.85-51.9,2.2-8.35,3.14-16.67-.17-25-2.52-6.34-8-10-14.58-8.41-5.51,1.36-11.22,3.38-15.85,6.55-13.81,9.45-21.62,23.63-28.28,38.5A164.63,164.63,0,0,0,153.87,513.75Zm601.57-.17a20.6,20.6,0,0,0,3,.5c30.53-.4,61.23-20.41,68.59-54.21,1.51-7,2-13.78,0-20.69-2.31-8-8-11.77-16.21-10.28-12,2.18-20.64,9.6-27.84,18.91-11.69,15.11-19,32.34-23.95,50.65C757.74,503.39,756.68,508.39,755.44,513.58Z"/><path class="cls-1" d="M330.86,533.27c1.34-29.93,11.09-59.9,33.22-85.07,9.12-10.38,20.48-17.51,34.5-19.37,17.76-2.35,29.84,7.89,31.46,25.78,1.43,15.82-2.17,30.81-7.16,45.47-5.55,16.33-11.53,32.55-18.13,48.48a75.42,75.42,0,0,1-24.41,31.69C364,592.62,347,588.6,337.62,570.37,332.11,559.71,331.13,548.15,330.86,533.27Z"/><path class="cls-1" d="M153.87,513.75a164.63,164.63,0,0,1,12.29-39.87c6.66-14.87,14.47-29.05,28.28-38.5,4.63-3.17,10.34-5.19,15.85-6.55,6.56-1.62,12.06,2.07,14.58,8.41,3.31,8.3,2.37,16.62.17,25-9.76,37-43.57,52.1-68.85,51.9A16.94,16.94,0,0,1,153.87,513.75Z"/><path class="cls-1" d="M755.44,513.58c1.24-5.19,2.3-10.19,3.64-15.12,4.95-18.31,12.26-35.54,23.95-50.65,7.2-9.31,15.8-16.73,27.84-18.91,8.2-1.49,13.9,2.25,16.21,10.28,2,6.91,1.5,13.73,0,20.69-7.36,33.8-38.06,53.81-68.59,54.21A20.6,20.6,0,0,1,755.44,513.58Z"/></g></g></svg>