<svg xmlns="http://www.w3.org/2000/svg" viewBox="0 0 2875.7 2875.7"><defs><style>.cls-1{fill:#57a9de;}</style></defs><title>castiga mai multi bani</title><g id="Layer_2" data-name="Layer 2"><g id="Layer_1-2" data-name="Layer 1"><path class="cls-1" d="M1437.85,0C643.75,0,0,643.75,0,1437.85S643.75,2875.7,1437.85,2875.7,2875.7,2232,2875.7,1437.85,2232,0,1437.85,0Zm965.21,1704.62c-26,5-50.87,13.42-74.41,21.76-78.36,28-216.78,81.84-286.38,118.38-7.18,4-14.14,7.15-21.32,11.13a175.9,175.9,0,0,0,5.06-35.65,211.13,211.13,0,0,0-3.18-44.49,8.19,8.19,0,0,1,1.2-2.67c70.49-27.65,206.91-73,279.9-91.33C2340.57,1672.86,2374.39,1678.26,2403.06,1704.62Zm-160.12-74.9c-53.39,16.17-154.86,37.5-204.44,56.91l-33.57,13.23a56.42,56.42,0,0,0-9,4.32,217.18,217.18,0,0,0-42.26-49.67c46.28-16.91,146-35.29,191.22-46.91C2181.24,1598.2,2214.55,1603.89,2242.94,1629.72Zm-478.85-529.65c-14.69-19.31-34.37-32.44-55.31-43.94-38-20.87-79.31-33.56-119.88-48.1-53.1-19-104.55-41.58-150.93-74.24-58.87-41.45-100.19-95-110.53-168C1310.31,645,1364.2,539.73,1471.52,481.64c38.21-20.67,79.09-33.81,122.81-42.34V287.74h5.09c29,10.07,59.35,15.05,89,22.81,20.38,5.35,40.94,10.05,62.06,15.19V428c81.31,3.15,159.28,17.78,233.11,53.24-16,60-31.78,119.49-47.85,179.9-36.09-17.34-71.51-32.15-109-41.11-58.62-14-117.74-20.54-177.58-8.77-21.46,4.22-41.17,13-57.13,28.59C1561.17,670,1560.74,716,1591,746.46c17.58,17.66,39.09,29.51,61.06,40.64,50.3,25.48,104.38,41.6,156.31,63,39.23,16.18,76.68,35.59,111,60.81,82.94,60.92,113.59,144.75,106.24,244.49-9.18,124.72-94.45,218.5-222.85,257.3a490.53,490.53,0,0,1-58.31,13.58V1591h-10.18c-20.67-8.79-43.09-10.23-64.67-15.16-27.19-6.2-54.61-11.4-83-17.24v-119c-95.43-6.3-186.67-25-272.08-68.92,16.06-62.73,31.86-124.45,47.84-186.9,52.74,28.18,106.73,48.77,164,59.83,57.78,11.16,115.83,16.72,173.88,1.24a138.67,138.67,0,0,0,44.77-20.47C1786.57,1195,1794.92,1140.6,1764.09,1100.07ZM562.73,2305.84c-18.47,10.23-42.09,3.88-52.32-14.59L290.17,1898.39c-10.23-18.47-3.87-42.1,14.6-52.33l125.77-79.22,243.92,475.65Zm1960.82-368.66-668.62,285.13-25.08,9.2c-85.53,31.95-172.45,31.15-261.62,8.13L909.9,2114.86l-152.06,86.23-247.19-482,59-37.16c-2.12,1.52-2.33,1.85.22.44L756,1564.6c25.93-13.69,44.23-21.81,44.23-21.81,88.72-25,257.45-82.24,524.47,44.06,25.44,12.05,69.57,25.16,97.59,29.75l428.57,67c54.4,1.39,100.06,51.17,97.31,110.35s-52.55,104.85-106.43,103.18l-489.92-21.63a28.24,28.24,0,0,0-3.67,56.33l19,1.56s325.91,41.4,555.65,24.11c41.87-3.08,80.56-13.1,118.12-31.22,5.92-2.62,13.91-6.36,19.55-9.49,84.24-44,210.93-96,301.2-127.92,25.07-9.19,118.31-45.41,159.64-36.12,58,12.78,74.87,63.78,67.47,106.09C2582.39,1894.54,2556.55,1922.92,2523.55,1937.18Z"/></g></g></svg>