<svg xmlns="http://www.w3.org/2000/svg" viewBox="0 0 425.2 198.43">
    <path fill="#cf1779" d="M182.47 64.34c1.26-3 2.36-6 3.71-8.82a5.7 5.7 0 0 1 5.13-3.21c12.72-.5 12.1-.35 8.68 11.32-3.51 11.09-7.11 22.15-10.62 33.24-2 6.9-13.62 33-.1 33 7.53 0 15.11-9.1 19-16.87 7.65-16.08 9.17-33.8 19.23-48.82 4.63-6.88 14.29-16.49 23.8-14.25a34.32 34.32 0 0 1 9.69 4 5.72 5.72 0 0 1 2.91 5.1c-.11 13.33 8.48 24.42 10.82 37.24 2.79 14.2-1.2 30.83-13 40.15l.14.33a41.11 41.11 0 0 0 23.66-16.13c5.3-7.18 9.74-15.16 11.06-24 4.5-18 14.12-39 34.18-43.69 7.71-1.6 15.17-1 21.69 3.82 12.31 8.92 10.07 26.6.33 36.53-9.67 10.84-24.56 14.92-38.77 15.5-1.89.07-1.87.12-1.67 2a23.59 23.59 0 0 0 6.86 15c4.79 4.67 10.75 6.4 17.36 6.26 11-.23 18.84-5.77 25.06-14.12a62.7 62.7 0 0 0 8.84-16.92c1.48-4.23 4.9-5.18 8.11-4.92 3.92.32 4.77 1.63 3.65 5.32-5.58 19-18.39 37.89-39.12 42.37-17.89 4.5-38.69-2.08-45.64-20.09-12.08 17.69-33.65 27.77-55.24 24.49-9-1.32-18-4.32-25.06-10.18a3 3 0 0 1-.91-2.39 10.24 10.24 0 0 1 6.27-7.66 3.58 3.58 0 0 1 3.23.22 21.93 21.93 0 0 0 11.33 2.34c23.77-1.89 24.09-24.73 17.15-42.17-1.84-4.75-3.8-9.46-5.33-14.31a109.7 109.7 0 0 1-2.39-11.48c-9.16 7.87-14.78 25.68-18.45 37-5.45 17.29-15 36.28-32.86 43.75-12.67 4.86-25.45-.34-28.14-14.05a14.19 14.19 0 0 0-.93 1.24 30.37 30.37 0 0 1-9.5 10.59c-15.72 9.71-32.48 1-37.56-17-10.3 14.4-26.48 22.62-44.5 20.65-26.2-2.6-36.73-25.95-30.13-49.27 4.88-21 20.34-47.3 45.81-42.93a21.4 21.4 0 0 1 18 25.13c-3.84 21.1-27.35 30.69-47.09 31-1.09 0-1.42.36-1.29 1.51 1.11 13 10.93 22.25 24.33 21.65 18.87-.22 29.89-18 34.9-33.87 1.53-5 2.76-10.12 4.85-15 3.9-9 9.12-17.18 17.07-23.34 12.85-10.3 32.7-11.1 41.45 4.74zm-48.12 45.52c.07 6.44.71 11.58 3.52 16.21 1.92 3.16 4.55 5.45 8.51 5.77s7.12-1.37 10-3.83a38.15 38.15 0 0 0 9.47-13.23 160.78 160.78 0 0 0 8.77-25.15 34.41 34.41 0 0 0 1.23-14.44c-.57-3.64-2-6.86-5.49-8.63-4-2-8.19-1.57-12.23 0-5.87 2.35-10.16 6.58-13.62 11.64a60.29 60.29 0 0 0-10.16 31.66zM60 101.17a6.94 6.94 0 0 0 .87.1 31.93 31.93 0 0 0 17.45-5.37 28.48 28.48 0 0 0 12.21-19.05 13.77 13.77 0 0 0-.66-8 5.5 5.5 0 0 0-6-3.58 13.51 13.51 0 0 0-6.21 2.35 31.75 31.75 0 0 0-9.4 10.68A72.07 72.07 0 0 0 60.89 97c-.35 1.38-.59 2.75-.89 4.17zm283.28-27.29c-.2-1.27-.3-2.64-.64-4-.86-3.35-3.43-5.12-6.68-4.55a15.09 15.09 0 0 0-4 1.3c-4.22 2-7.18 5.46-9.71 9.25-5 7.4-7.71 15.67-9.61 24.26-.19.86 0 1.15 1 1.11A32.06 32.06 0 0 0 330 96.38c8.1-5.33 12.42-12.86 13.28-22.5z"/>
</svg>
