<svg xmlns="http://www.w3.org/2000/svg" viewBox="0 0 23.57 19.97"><defs><style>.cls-1{fill:#be0e76;}</style></defs><title>heart filled</title><g id="Layer_2" data-name="Layer 2"><g id="Layer_1-2" data-name="Layer 1"><g id="Layer_1-2-2" data-name="Layer 1-2"><path class="cls-1" d="M23.56,5.84a5.63,5.63,0,0,0-2-4.13A6.84,6.84,0,0,0,15.85.12a6,6,0,0,0-4.06,2.63A6,6,0,0,0,7.72.11,6.8,6.8,0,0,0,2,1.69,5.57,5.57,0,0,0,0,5.84a7.23,7.23,0,0,0,1.89,5.41c2.38,3,7.56,7.21,9.09,8.44a1.26,1.26,0,0,0,1.58,0c1.53-1.23,6.7-5.46,9-8.4A7.29,7.29,0,0,0,23.56,5.84Z"/></g></g></g></svg>