<svg xmlns="http://www.w3.org/2000/svg" viewBox="0 0 413.9 369.18"><defs><style>.cls-1{fill:#ef8299;opacity:0.6;}.cls-1,.cls-2{isolation:isolate;}.cls-2{fill:#f6ccc8;opacity:0.8;}.cls-3{fill:#fff2e3;}.cls-4{fill:#f2b1c3;}.cls-5{fill:#edd0b9;}.cls-6{fill:#fcdbcd;}.cls-7{fill:#ffe3ac;}.cls-8{fill:#d00078;}.cls-9{fill:#e4a7a0;}.cls-10{fill:#fabda5;}.cls-11{fill:#f4a31b;}.cls-12{fill:#d88c1d;}.cls-13{fill:#331a1e;}.cls-14{fill:#282828;}.cls-15{fill:#ef2691;}.cls-16{fill:#331d1f;}.cls-17{fill:#040504;}.cls-18{fill:#d38d8c;}</style></defs><title>homepage_3</title><g id="Layer_2" data-name="Layer 2"><g id="Layer_1-2" data-name="Layer 1"><g id="Layer_5" data-name="Layer 5"><path class="cls-1" d="M150.88,297.78l1.43.8A227.63,227.63,0,0,0,198.75,318c25.38,7.38,52.39,9.87,80.16,5.11,0,0,87.73-9.13,89.37-147.21.41-34.63-13.68-72.22-31.13-97.72-15.49-22.66-33.81-33-57.61-27-35.75,8.91-39.87,43-59.74,65.24C205.87,132,166,130.72,139,133.37c-69.39,6.79-97.39,71.21-50.73,117q3.3,3.24,6.74,6.44A293.72,293.72,0,0,0,150.88,297.78Z"/><path class="cls-2" d="M346.22,153.38c6,149-117.08,215.8-271.87,215.8-78.21,0-89.53-34.19-58-53.47,99.42-60.74,137.22-96,99.34-182C81.92,57,131.85,11.49,169.37,2.64,251-16.64,343,73.18,346.22,153.38Z"/><rect class="cls-3" x="157.47" y="235.87" width="83.72" height="79.76"/><rect class="cls-4" x="108.47" y="249.56" width="83.72" height="66.06"/><polygon class="cls-1" points="129.57 315.63 108.47 315.63 108.47 249.56 173.21 315.64 129.57 315.63"/><polygon class="cls-5" points="213.28 315.63 192.18 315.63 192.18 249.56 255.53 315.57 213.28 315.63"/><polygon class="cls-3" points="381.24 97.89 381.24 78.53 373 78.53 373 55.53 345.69 55.53 345.69 78.53 337.44 78.53 337.44 97.89 330.87 97.89 330.87 315.7 387.82 315.7 387.82 97.89 381.24 97.89"/><polygon class="cls-5" points="337.44 78.53 365.93 97.89 337.44 97.89 337.44 78.53"/><polygon class="cls-5" points="345.58 60.57 365.93 78.53 345.58 78.53 345.58 60.57"/><rect class="cls-6" x="356.57" y="36.67" width="3.98" height="18.86"/><polygon class="cls-4" points="344.8 249.56 344.8 315.58 413.9 315.63 413.9 275.12 413.9 249.56 344.8 249.56"/><polygon class="cls-3" points="232.09 174.91 286.11 174.91 286.11 315.7 232.41 315.7 232.09 174.91"/><polygon class="cls-4" points="240.99 179.87 261.19 179.75 261.19 315.64 241.11 315.64 240.99 179.87"/><polygon class="cls-3" points="286.11 174.91 286.11 315.64 370.03 315.64 370.03 279.17 286.11 174.91"/><polygon class="cls-1" points="296.82 315.64 286.11 315.64 286.11 174.91 296.82 188.22 296.82 315.64"/><polygon class="cls-5" points="261.19 179.75 261.19 315.64 286.11 315.64 286.11 221.46 261.19 179.75"/><rect class="cls-7" x="379.53" y="257.78" width="3.49" height="16.56"/><rect class="cls-7" x="386.12" y="257.78" width="3.49" height="16.56"/><rect class="cls-7" x="392.92" y="257.78" width="3.49" height="16.56"/><rect class="cls-7" x="399.38" y="257.78" width="3.49" height="16.56"/><rect class="cls-7" x="341.66" y="107.12" width="5.29" height="25.1"/><rect class="cls-7" x="351.65" y="107.12" width="5.29" height="25.1"/><rect class="cls-7" x="361.95" y="107.12" width="5.29" height="25.1"/><rect class="cls-7" x="371.74" y="107.12" width="5.29" height="25.1"/><polygon class="cls-1" points="354.41 249.56 410.77 315.7 382.36 315.63 370.03 315.63 370.03 279.17 346.22 249.56 354.41 249.56"/><polygon class="cls-3" points="50.14 215.82 108.33 215.82 108.33 315.61 50.17 315.61 50.14 215.82"/><polygon class="cls-4" points="65.75 253.58 80.34 253.53 80.34 315.61 65.84 315.61 65.75 253.58"/><polygon class="cls-5" points="80.34 253.53 80.34 315.61 108.33 315.61 108.33 280.75 80.34 253.53"/><rect class="cls-7" x="68.87" y="264.67" width="3.34" height="19.29"/><rect class="cls-7" x="73.88" y="264.67" width="3.34" height="19.29"/><rect class="cls-7" x="246.3" y="187.58" width="3.34" height="19.29"/><rect class="cls-7" x="251.31" y="187.58" width="3.34" height="19.29"/><polygon class="cls-5" points="330.87 222.17 354.41 249.56 346.22 249.56 330.87 230.49 330.87 222.17"/><path class="cls-8" d="M112.12,315.57H29.81c-2.58,0-4.68,1.75-4.68,3.91h0c0,2.16,2.09,3.91,4.68,3.91H145.53c2.12,0,3.85,1.44,3.85,3.22h0c0,1.78-1.72,3.22-3.85,3.22H116.18a2.51,2.51,0,0,0-2.7,2.26h0a2.43,2.43,0,0,0,2.48,2.26c4.54.13,173.46-.31,191.71-.36a2,2,0,0,0,1.88-2.07h0a2,2,0,0,0-1.89-2.09H249.07a2.7,2.7,0,0,1-2.91-2.43h0a2.7,2.7,0,0,1,2.91-2.43H369.63c3.1,0,5.61-2.1,5.61-4.7h0c0-2.59-2.51-4.7-5.61-4.7H30.22"/><path class="cls-9" d="M206.32,142.08,190.61,99.72c-1.55-4.44.2-9,3.93-10.27s8,1.36,9.55,5.8c0,0,13.1,41.27,13.32,42.58"/><path class="cls-9" d="M183.09,120.52l23.78,22.06c3.25,2.33,7.36,2.27,9.45-.12,2.26-2.6,1.28-6.94-2.16-9.57l-35.28-24.46"/><path class="cls-10" d="M178.5,103.85c-1.83-.45-2.42-.52-2.44-.86,0-.18-.34-1.49-.16-1.5l5.07.26a2.1,2.1,0,0,1,1.68,1s.5,1.54,1,3.7c.53,2.42.76,5.4,3.48,7.64l-3.79,6.59-3.09-2.88a13.28,13.28,0,0,1-5.48-2.51s-6.28-5-7.08-6a.87.87,0,0,1,.11-1.12l.38-.42c.32-.34.65-.3,1,0l.6.33-.64-.83a.93.93,0,0,1,.11-1.12l.77-.83a.93.93,0,0,1,1.22-.13l.53.31-.47-.72a.93.93,0,0,1,.11-1.12l.66-.71a1,1,0,0,1,1.27-.13l.46.32a5.54,5.54,0,0,1-.24-.66.71.71,0,0,1,.19-1l.82-.6a.88.88,0,0,1,1.29,0,47.86,47.86,0,0,0,3.73,3.82"/><path class="cls-8" d="M205.16,86.06l1.37-1.33c-1.73-3-7.49-5.64-11.08-5.16a9.69,9.69,0,0,0-5.6,3c-.07.08-13.63,18.8-13.63,18.8l1.95,2.06,12.65-18.1Z"/><path class="cls-10" d="M268.84,303.67l4.71-3.47a3.05,3.05,0,0,0,.65-4.27l-12.09-16.41a3.05,3.05,0,0,0-4.27-.65l-4.71,3.47a3.05,3.05,0,0,0-.65,4.27L264.57,303A3.05,3.05,0,0,0,268.84,303.67Z"/><path class="cls-11" d="M187.62,175l18.95,44.59,28.74,58.36,9.58,19.44a1.74,1.74,0,0,0,2.12.93l4.49-1.59,1.44-.51.68-.24a3.35,3.35,0,0,0,1.77-1.51l.16-.27,2.13-3.81a5.1,5.1,0,0,1,2.51-2.24l6.7-2.73a2.85,2.85,0,0,0,1.59-1.64l1.1-2.89c.2-.52,3.43-2.82,3.09-3.28L251.76,248.8c-11.9-20.35-21.25-29.6-27.62-60.82-4.29-21-7.09-25.55-9-31.23-2.79-8.18-7.65-12-12.11-16.89l-12-16.28-5,11.59,1.39,28.74Z"/><path class="cls-12" d="M187.62,175l18.95,44.59,28.74,58.36,9.58,19.44a1.74,1.74,0,0,0,2.12.93l4.49-1.59,1.44-.51a492.06,492.06,0,0,1-30.79-55.5c-7-15-13.7-41.62-1.11-66.23l-6.42-13.89c-2.47-9.43-4.06-12.44-11.62-20.68l-17.9,14.5Z"/><path class="cls-10" d="M146.87,310.62l5.57,1.34a3.07,3.07,0,0,0,3.69-2.26l4.7-19.55a3.07,3.07,0,0,0-2.26-3.69L153,285.12a3.07,3.07,0,0,0-3.69,2.26l-4.7,19.55A3.07,3.07,0,0,0,146.87,310.62Z"/><path class="cls-13" d="M281.38,302.69l-1.94-3.17a11.21,11.21,0,0,0-4.2-4l-1.21-.66-3.66,2.49a2.89,2.89,0,0,1-3.31,0L265.18,296l-5.45,1.07a1.52,1.52,0,0,0-1.19,1.3l-.38,2.72a4.33,4.33,0,0,1-1,2.2l-.9,1.08-6.23,1.86a8.73,8.73,0,0,0-6.18,8.48v.92h20.52Z"/><path class="cls-13" d="M143.24,299.17l-1.69,2a3.9,3.9,0,0,1-1.93,1.27l-13,3.88a8.59,8.59,0,0,0-6.09,8.36v.9H160V311.9a11.76,11.76,0,0,0-1.45-5.68l-.67-1.23h-4.29a3,3,0,0,1-2.73-1.89l-.89-2.16-5-2.18A1.37,1.37,0,0,0,143.24,299.17Z"/><path class="cls-11" d="M221.56,173.42C217.61,182,199,199.7,192.67,208.34c-3.32,4.53-9.74,9.56-12.06,23.69L170,293.71c-.16.87-.9,1.31-2,.9l-3.88-1.18c-1.25-.41-2.06,0-3.4.24l-4.56,1.13a3,3,0,0,1-2.35-.59l-7.69-6.06a4.41,4.41,0,0,0-2.78-.94l-2.57,0a.8.8,0,0,1-.8-1c2.46-8.81,20.67-74.19,20.67-74.19L184,161.49l2.3-5,1.5-3.23,8.83-19,16.82-2.57,3.23,10.66c.53,2.87,3.21,7.46,5,12.92.24.73.48,1.49.68,2.26C223.73,162.47,224.09,167.93,221.56,173.42Z"/><path class="cls-12" d="M222.62,158.37c-6,4.39-28.39,11.15-39.77,5.66l2.73-6.21L222,156.13C222.23,156.88,222.42,157.57,222.62,158.37Z"/><path class="cls-14" d="M177.71,110.82c.19.69.73,2.4,1.36,4.35h0c2.89,7.6,3.34,15.26,3.43,23.4a160.75,160.75,0,0,1-.83,18.89,1,1,0,0,0,.35,1c1.73,1.06,7.29,3.81,18.23,3.6,10.27-.2,23.63-4.23,23.88-6.86,0,0-6.85-20.93-7-28.36s-.56-11-.56-21.09c0-13.76-2.44-19.82-8.65-28.2a.78.78,0,0,0-.71-.31l-12.55,1.5a1.55,1.55,0,0,0-1.12.69L181.76,95.37C176.79,102,177.05,108.37,177.71,110.82Z"/><path d="M200.55,121.59a78.7,78.7,0,0,0,8.45,3.35,2,2,0,0,0,1.75-.44l9.59-6.76a.31.31,0,0,0,.12-.32L211.27,91c-.24-.91.23-1.29-.26-2l-1-1.44c-1.89-2.91-3-4.8-6.55-4.13A8.49,8.49,0,0,0,198,87a8.58,8.58,0,0,0-1.36,6l2.84,27.5C199.52,121,199.81,121.2,200.55,121.59Z"/><path class="cls-15" d="M212.24,88.32l1.46-1.4h18.75a6.92,6.92,0,0,1,7.23,7.26l.46,11.32a1.59,1.59,0,0,1-1.59,1.65l-24.17.43Z"/><path class="cls-8" d="M212.33,89.88H233a3.55,3.55,0,0,1,3.59,3.38l2.08,55a2.72,2.72,0,0,1-2.75,2.79H222.49a2.74,2.74,0,0,1-2.74-2.36Z"/><path class="cls-15" d="M238.57,145.47H223.48a3,3,0,0,1-3-3l-.86-17.57a3,3,0,0,1,3-3h15.13a3,3,0,0,1,3,3l.82,17.57A3,3,0,0,1,238.57,145.47Z"/><ellipse class="cls-16" cx="193.3" cy="49.93" rx="13.35" ry="13.57"/><polyline class="cls-13" points="199.57 47.02 199.57 73.18 180.04 73.18 179.98 49.12"/><path class="cls-10" d="M179.2,56.46l2.64-4.58a2.35,2.35,0,0,0,.34-1.6c-.75-6.45,1-6.91,2.82-10a.59.59,0,0,1,0-.13c2.79-4.55,7.88-6.73,13.56-6.73,8.71,0,15.68,6.32,15.68,15.19a16.12,16.12,0,0,1-7.74,13.82,1.32,1.32,0,0,0-.66,1.08L205.44,73a1.23,1.23,0,0,0,0,.27l.67,4.07a1.31,1.31,0,0,1-.61,1.34A12.9,12.9,0,0,1,200,80.3c-6.29.63-5.33-1.51-5.33-1.51h0L194.38,76s0-.07,0-.09l-.46-4.75A2.27,2.27,0,0,0,191,69.58s-7.09,2.79-8.38-1.2a3.38,3.38,0,0,1-.08-1.77c.14-1,.1-1.62-.46-2.12l-.11-.12,0,0a1.1,1.1,0,0,1-.26-.46,1,1,0,0,1-.09-.44.78.78,0,0,1,.23-.67h.55a.6.6,0,0,1-.18-.07.56.56,0,0,1-.2-.08.15.15,0,0,1-.11-.06c-.4-.21-.78-.54-.78-.87v-.42a.43.43,0,0,1,.12-.32l.19-.17.39-.9a6.67,6.67,0,0,0,0-1v-.27a.45.45,0,0,0-.27-.37l-1.94-.61A.78.78,0,0,1,179.2,56.46Z"/><path class="cls-13" d="M218.65,48c0-9.35-7.84-16-17.66-16-6.61,0-14.13,3.51-16.42,9,0,0,9.42,14.93,15.25,16.11l1.44-3.24a2.56,2.56,0,0,1,4.31-1,3.24,3.24,0,0,1,1,2.5,3.74,3.74,0,0,1-2.05,3.07h0s-5.75,3.13-2.8,7.88l4.45,6.8.05-2.75s-.25-5.45,3.4-7.71l.16-.09a6.68,6.68,0,0,1,.7-.39h0A16.75,16.75,0,0,0,218.65,48Z"/><path class="cls-13" d="M218.62,47V73.19H199.08s.4-9.95,2.85-12.45"/><path class="cls-17" d="M183.55,49.7l1.59-.08c.51,0,1.11-.06,1.54-.06a2.43,2.43,0,0,1,1.26.42,2.55,2.55,0,0,1,.52.47l.51.61a.27.27,0,0,0,.39,0,.28.28,0,0,0,.06-.36l-.42-.67a3.37,3.37,0,0,0-.57-.68,3.44,3.44,0,0,0-1.62-.8c-.63-.09-1.08-.11-1.63-.16l-1.58-.14a.72.72,0,1,0-.13,1.43Z"/><ellipse class="cls-17" cx="185.01" cy="51.92" rx="0.78" ry="1.22"/><path class="cls-17" d="M183.06,50.63c.42.1.84.18,1.27.25a5.39,5.39,0,0,1,1.22.25,4.42,4.42,0,0,1,1.11.55c.36.22.74.43,1.13.62a7,7,0,0,0-2.13-1.49,4.18,4.18,0,0,0-1.3-.19C183.92,50.6,183.49,50.61,183.06,50.63Z"/><path class="cls-18" d="M186.64,62.64s-2.71,2.31-4.76,1.69a1.1,1.1,0,0,1-.26-.46,1.23,1.23,0,0,1-.09-.44.78.78,0,0,1,.23-.67h.55a.6.6,0,0,1-.18-.07.56.56,0,0,1-.2-.08.15.15,0,0,1-.11-.06c-.4-.21-.78-.54-.78-.87v-.42a.43.43,0,0,1,.12-.32,3.54,3.54,0,0,1,1.45.64A8.17,8.17,0,0,0,186.64,62.64Z"/><path class="cls-14" d="M198.88,83.2,197.63,85s.05-.09.07-.14A9.46,9.46,0,0,1,198.88,83.2Z"/><path class="cls-10" d="M216.81,142.08,201.1,99.72c-1.55-4.44.2-9,3.93-10.27s8,1.36,9.55,5.8c0,0,13.1,41.27,13.32,42.58"/><path class="cls-10" d="M193.57,120.52l23.78,22.06c3.25,2.33,7.36,2.27,9.45-.12,2.26-2.6,1.28-6.94-2.16-9.57l-35.28-24.46"/><path class="cls-10" d="M189,103.85c-1.83-.45-2.42-.52-2.44-.86,0-.18-.34-1.49-.16-1.5l5.07.26a2.1,2.1,0,0,1,1.68,1s.5,1.54,1,3.7c.53,2.42.76,5.4,3.48,7.64l-3.79,6.59-3.09-2.88a13.28,13.28,0,0,1-5.48-2.51s-6.28-5-7.08-6a.87.87,0,0,1,.11-1.12l.38-.42c.32-.34.65-.3,1,0l.6.33-.64-.83a.93.93,0,0,1,.11-1.12l.77-.83a.93.93,0,0,1,1.22-.13l.53.31-.47-.72a.93.93,0,0,1,.11-1.12l.66-.71a1,1,0,0,1,1.27-.13l.46.32a5.54,5.54,0,0,1-.24-.66.71.71,0,0,1,.19-1l.82-.6a.88.88,0,0,1,1.29,0,47.86,47.86,0,0,0,3.73,3.82"/><path class="cls-8" d="M212.24,88.32l1.3-1.4c-1.89-2.91-7.79-5.22-11.35-4.54a9.72,9.72,0,0,0-5.43,3.26c-.06.08-10.13,15.66-10.13,15.66l1.93,2.09,9.33-15Z"/><path class="cls-14" d="M223.42,110.16S214.71,91,212.24,88.33v0A9.73,9.73,0,0,0,202.6,85c-2.28.43-7.21,3.87-5.74,9.49l3.89,19.84c.12.51.42.65,1.18.93,2.23.81,7.93,2,10.57,2.59a2.2,2.2,0,0,0,1.71-.51l9.11-6.85A.25.25,0,0,0,223.42,110.16Z"/></g></g></g></svg>