<svg xmlns="http://www.w3.org/2000/svg" viewBox="0 0 1920 603.72"><defs><style>.cls-1{fill:#fce1e2;}.cls-2{fill:#fcdbcd;}.cls-3{fill:#fff2e3;}.cls-4{fill:#e8d3c1;}.cls-5,.cls-9{fill:#f6ccc8;}.cls-6{fill:#e6bdba;}.cls-7{fill:#f2efe3;}.cls-8{fill:#ef8299;opacity:0.6;}.cls-10,.cls-11,.cls-21,.cls-8,.cls-9{isolation:isolate;}.cls-9{opacity:0.8;}.cls-10{fill:#fdf5ea;opacity:0.75;}.cls-11{fill:#f4f0ef;opacity:0.7;}.cls-12{fill:#f7ccc8;}.cls-13{fill:#e4a7a0;}.cls-14{fill:#040504;}.cls-15{fill:#331a1e;}.cls-16{fill:#d38d8c;}.cls-17{fill:#b0b0af;}.cls-18{fill:#0089b4;}.cls-19{fill:#006289;}.cls-20{fill:#d5cdbc;}.cls-21{fill:#8c8c8c;opacity:0.5;}.cls-22{fill:#de7a5c;}.cls-23{fill:#9c9b99;}.cls-24{fill:#f4a31b;}.cls-25{fill:#d88c1d;}.cls-26{fill:#282828;}.cls-27{fill:#331d1f;}.cls-28{fill:#bbe2ed;}</style></defs><title>v1homepage</title><g id="Layer_2" data-name="Layer 2"><g id="Layer_1-2" data-name="Layer 1"><rect class="cls-1" width="1920" height="600"/><polygon class="cls-2" points="933.92 167.95 933.92 133.41 919.21 133.41 919.21 92.38 870.48 92.38 870.48 133.41 855.77 133.41 855.77 167.95 844.04 167.95 844.04 520.38 945.65 520.38 945.65 167.95 933.92 167.95"/><rect class="cls-3" x="860.34" y="184.49" width="10.46" height="49.6"/><rect class="cls-3" x="880.08" y="184.49" width="10.46" height="49.6"/><rect class="cls-3" x="900.45" y="184.49" width="10.46" height="49.6"/><rect class="cls-3" x="919.78" y="184.49" width="10.46" height="49.6"/><polygon class="cls-4" points="855.77 133.41 906.59 167.95 855.77 167.95 855.77 133.41"/><polygon class="cls-4" points="870.29 101.37 906.59 133.41 870.29 133.41 870.29 101.37"/><rect class="cls-2" x="891.3" y="58.72" width="7.09" height="33.66"/><rect class="cls-5" x="588.13" y="153.3" width="68.76" height="369.01"/><polygon class="cls-2" points="626.83 153.3 626.83 522.31 656.43 522.31 672.41 522.31 722.7 522.31 722.7 153.3 626.83 153.3"/><rect class="cls-2" x="1029.73" y="225.22" width="126.51" height="297.09"/><rect class="cls-5" x="945.76" y="225.22" width="84.53" height="297.09"/><polygon class="cls-4" points="626.83 331.86 626.83 522.31 722.7 522.31 722.7 407.92 626.83 331.86"/><rect class="cls-3" x="640.63" y="171.56" width="10.22" height="118.18"/><rect class="cls-3" x="659.92" y="171.56" width="10.22" height="118.18"/><rect class="cls-3" x="679.81" y="171.56" width="10.22" height="118.18"/><rect class="cls-3" x="698.69" y="171.56" width="10.22" height="118.18"/><rect class="cls-5" x="722.7" y="331.86" width="184.9" height="190.45"/><polygon class="cls-6" points="797.03 522.31 722.7 522.65 722.7 331.86 797.03 378.95 797.03 522.31"/><polygon class="cls-6" points="1031.56 522.31 945.76 522.31 945.76 225.22 1030.3 275.83 1031.56 522.31"/><polygon class="cls-6" points="626.83 522.45 606.28 522.45 606.28 352.98 626.83 367.69 626.83 522.45"/><polygon class="cls-2" points="502.56 352.98 606.28 352.98 606.28 522.45 503.16 522.45 502.56 352.98"/><polygon class="cls-5" points="519.64 358.95 558.43 358.81 558.43 522.65 519.87 522.65 519.64 358.95"/><polygon class="cls-2" points="626.83 368.04 626.83 522.31 767.38 522.65 767.38 478.48 626.83 368.04"/><rect class="cls-3" x="526.26" y="368.14" width="10.22" height="59.06"/><rect class="cls-3" x="541.58" y="368.14" width="10.22" height="59.06"/><rect class="cls-3" x="859.87" y="368.14" width="10.22" height="59.06"/><rect class="cls-3" x="875.19" y="368.14" width="10.22" height="59.06"/><polygon class="cls-4" points="907.6 331.86 945.65 358.81 945.65 522.31 907.6 522.31 907.6 331.86"/><rect class="cls-3" x="859.87" y="448.18" width="10.22" height="59.06"/><rect class="cls-3" x="875.19" y="448.18" width="10.22" height="59.06"/><rect class="cls-3" x="1050.16" y="368.14" width="10.22" height="59.06"/><rect class="cls-3" x="1065.48" y="368.14" width="10.22" height="59.06"/><rect class="cls-3" x="1050.16" y="448.18" width="10.22" height="59.06"/><rect class="cls-3" x="1065.48" y="448.18" width="10.22" height="59.06"/><polygon class="cls-4" points="558.43 358.81 558.43 522.45 606.28 522.45 606.28 409.56 558.43 358.81"/><rect class="cls-7" x="1175.48" y="392.07" width="10.01" height="57.87"/><rect class="cls-7" x="1190.49" y="392.07" width="10.01" height="57.87"/><path class="cls-8" d="M548.71,469.69a30.39,30.39,0,0,0-29-39.71,30.39,30.39,0,0,0-59.54-9.29,30.39,30.39,0,0,0-38.91,30.5,55.23,55.23,0,0,0-9.66,31c0,33.66,31,60.95,69.26,60.95s69.26-27.29,69.26-60.95A53.13,53.13,0,0,0,548.71,469.69Z"/><path class="cls-8" d="M537.11,484.12a27.06,27.06,0,0,0-25.79-35.37,27.07,27.07,0,0,0-53-8.28,27.08,27.08,0,0,0-34.66,27.17,49.21,49.21,0,0,0-8.6,27.65c0,30,27.62,54.29,61.7,54.29s61.7-24.31,61.7-54.29A49.06,49.06,0,0,0,537.11,484.12Z"/><path class="cls-8" d="M830.46,499a19.9,19.9,0,0,0-23.55-21.94,19.9,19.9,0,0,0-39.44,1.43A19.91,19.91,0,0,0,746.24,503a36.19,36.19,0,0,0-2.35,21.16c4.18,21.65,27.51,35.34,52.11,30.59s41.15-26.15,37-47.8A35.08,35.08,0,0,0,830.46,499Z"/><path class="cls-8" d="M824.78,509.75a17.74,17.74,0,0,0-21-19.55,17.73,17.73,0,0,0-35.13,1.27,17.55,17.55,0,0,0-9.1,1.56,17.73,17.73,0,0,0-9.8,20.22,32.31,32.31,0,0,0-2.1,18.85c3.73,19.28,24.51,31.48,46.42,27.25s36.65-23.3,32.93-42.58A31.78,31.78,0,0,0,824.78,509.75Z"/><path class="cls-8" d="M1228.17,452.47a26,26,0,0,0-39.57-14.2,26,26,0,0,0-46.6,22,26,26,0,0,0-12.88,40.27,47.32,47.32,0,0,0,8.07,26.61c16.17,23.82,51.22,28.24,78.3,9.87s35.91-52.58,19.74-76.41A45.83,45.83,0,0,0,1228.17,452.47Z"/><path class="cls-8" d="M1226.89,468.26a23.15,23.15,0,0,0-35.24-12.65,23.16,23.16,0,0,0-41.52,19.62,23.16,23.16,0,0,0-11.47,35.88,42.12,42.12,0,0,0,7.19,23.7c14.4,21.22,45.63,25.16,69.75,8.79s32-46.84,17.59-68.06A41.75,41.75,0,0,0,1226.89,468.26Z"/><path class="cls-9" d="M1467.38,288.22c-3.52-6.08-7.16-12.45-10.46-19.41V153.2l-108.85-2.49q-10.56-4.83-21.51-8.65c-53.08-18.62-111.15-19.61-153.31-4.9-114,39.76-134.73-41.48-104.21-74.35C1122.12,5.65,1233.83,50,1355,35.16,1568.08,9.07,1664,143.44,1674,218.74,1690.47,342.16,1527.45,392,1467.38,288.22Z"/><path class="cls-10" d="M1496.05,398.63c71.79,24,76.93,127.84-7.68,164.88-54.18,23.72-165.73,38.46-333.25,15.06-87.47-12.22-161.46-36-361-32.82-103.46,1.64-176,29-288.15,41.4-84.61,9.39-82.14-44.56-49.76-64.62C479,508.44,557.26,467.62,740.68,497.1c164.66,26.47,293,18,350.51,4.29,63.24-15.14,164-50.89,244.48-88.4C1402.82,381.68,1456,385.26,1496.05,398.63Z"/><path class="cls-11" d="M1638.29,278.1c0,168.64-117.8,255-303.87,295.7-64.72,14.16-172.07,27.28-217.52,29.41-167.63,7.8-173.54-76-115.8-104.17,186.41-90.88,136.32-189.84,164-332.11C1183,74.5,1265.93,44,1334.47,52.59A161.31,161.31,0,0,1,1375.28,63a131,131,0,0,1,52.33,38.15A169.87,169.87,0,0,0,1441.12,116a134.08,134.08,0,0,0,38.79,26.63c24.81,11.13,49.25,11.95,70.63,14.66C1600.61,163.58,1638.29,213.31,1638.29,278.1Z"/><path class="cls-8" d="M1194.45,145.09a28.35,28.35,0,0,0-56.6.34,15.09,15.09,0,0,0,3.3,29.81h52.67a15.08,15.08,0,0,0,.63-30.15Z"/><path class="cls-8" d="M556,256.78a15.88,15.88,0,0,0-31.71.18,8.46,8.46,0,0,0,1.83,16.72h29.53a8.45,8.45,0,0,0,.35-16.9Z"/><circle class="cls-3" cx="767.38" cy="117.39" r="36.27"/><polyline class="cls-12" points="1348.38 156.27 1348.38 467.52 1347.44 467.34 1342.96 466.45 1342.96 156.27"/><circle class="cls-8" cx="1449.05" cy="312.95" r="4.94"/><circle class="cls-12" cx="1446.66" cy="309.95" r="4.94"/><path class="cls-12" d="M1325.87,468.15l10.37,1.64V154.28h140.3a2,2,0,0,0,2-2h0a2,2,0,0,0-2-2l-65.67-.24a2.47,2.47,0,0,1-2.46-2.41h0a2.47,2.47,0,0,1,2.49-2.54l33.29.17a1.89,1.89,0,0,0,1.9-1.9h0a1.89,1.89,0,0,0-1.89-1.88H1326.57Z"/><path class="cls-8" d="M1336.23,154.28V469.79l121.69,19.26V154.28Zm0,315.51v-1.3l6.75-1.61V156.28h5.4c33.95,15.53,79,45.95,101.29,102.7,2.13,5.44,6,11.55,8.25,16.31V451.82l-110,15.69,110-4.22V489Z"/><path class="cls-12" d="M1472.48,483.9a3.64,3.64,0,0,0-4.19,3.59h0a3.64,3.64,0,0,0,3.07,3.6l7.56,1.19c1.62,2,.14,3.86-1.5,3.6l-68.8-11a2.48,2.48,0,1,0-.8,4.89l37.15,6.13a2,2,0,0,1-.62,3.91l-118.48-18.65v-13l132,20.84V154.28h10.37V469.86a3.05,3.05,0,0,0,2.63,3l36.59,5.22a5.36,5.36,0,0,1,4.6,5.3h0a5.35,5.35,0,0,1-6.12,5.3Z"/><path class="cls-12" d="M1529.87,473.24l-39.15-5.7a5.46,5.46,0,0,1-4.67-5.54h0a5.47,5.47,0,0,1,6.25-5.27l39.15,5.7a5.46,5.46,0,0,1,4.67,5.54h0A5.46,5.46,0,0,1,1529.87,473.24Z"/><path class="cls-12" d="M1604.77,295l-39.54-1.25a5.47,5.47,0,0,1-5.27-5h0a5.46,5.46,0,0,1,5.61-5.94l39.54,1.25a5.47,5.47,0,0,1,5.27,5h0A5.44,5.44,0,0,1,1604.77,295Z"/><path class="cls-12" d="M1506.62,338.64l-44.3-3.09-.55-11,45.61,3.18a5.45,5.45,0,0,1,5.07,5.18h0A5.46,5.46,0,0,1,1506.62,338.64Z"/><path class="cls-12" d="M1520.71,349.76l-41.25-2.86a2.48,2.48,0,0,1-2.3-2.35h0a2.47,2.47,0,0,1,2.65-2.59l41.25,2.86a2.48,2.48,0,0,1,2.3,2.35h0A2.48,2.48,0,0,1,1520.71,349.76Z"/><path class="cls-12" d="M1544,235.7l-41.34-1a2.48,2.48,0,0,1-2.41-2.24h0a2.47,2.47,0,0,1,2.53-2.71l41.34,1a2.48,2.48,0,0,1,2.41,2.24h0A2.48,2.48,0,0,1,1544,235.7Z"/><path class="cls-13" d="M1400.86,226.59c-5,0-9.47,1.89-11.93,5.82a.48.48,0,0,0,0,.12,12.9,12.9,0,0,0-2.77,10,1.9,1.9,0,0,1-.3,1.39l-2.78,2.84a.7.7,0,0,0,.32,1.05l1.59.82a1.14,1.14,0,0,1,.5.45c.08.21.18.42-.13,1.63l-.06.26-.06.34c0,.5.32.65.93.72a7.88,7.88,0,0,0,1,0,7,7,0,0,0,2.56-.75l.07,0c.23-.12.42-.23.58-.33l.2-.15.14-.11h0a.25.25,0,0,1,.08-.05s0,0,0,0l0,.07a6.23,6.23,0,0,1-1.79,1.79,7.94,7.94,0,0,1-.78.46,9.43,9.43,0,0,1-2.18.83.59.59,0,0,0-.23.54.8.8,0,0,0,.28.63,1.14,1.14,0,0,1,.48,1.26,3.39,3.39,0,0,0-.16.83,2.06,2.06,0,0,0,2.41,2.05,3.6,3.6,0,0,0,.82-.13l4.3-1.68a2.24,2.24,0,0,1,2.82,1.41l.47,4.71s0,.05,0,.08l.23,2.38h0a4.91,4.91,0,0,0,4.91,4.82,2.11,2.11,0,0,0,.35,0,4.9,4.9,0,0,0,4.55-4.75h0v-2.29l0-11.57a13.89,13.89,0,0,0,7.36-12.27C1414.64,232.07,1408.51,226.59,1400.86,226.59Z"/><path class="cls-14" d="M1386.5,241.78a2.22,2.22,0,0,1,2.38,0c.36.22.66.49,1,.7a1.17,1.17,0,0,0,1.09.16,1.29,1.29,0,0,1-.59.19,1.26,1.26,0,0,1-.61-.16c-.38-.19-.67-.46-1-.64a2.15,2.15,0,0,0-1.07-.34A3.36,3.36,0,0,0,1386.5,241.78Z"/><ellipse class="cls-14" cx="1387.68" cy="242.53" rx="0.69" ry="1.05"/><path class="cls-14" d="M1386.44,240.18c.47-.2.84-.37,1.4-.58a1.55,1.55,0,0,1,.88,0l.7.2,2.81.8-2.89-.37-.72-.09a.91.91,0,0,0-.55.1l-1.17.79h0a.5.5,0,0,1-.68-.13.49.49,0,0,1,.13-.68Z"/><rect class="cls-13" x="1397.42" y="265.78" width="9.82" height="20.35"/><path class="cls-15" d="M1401.35,245.92l-1.56.74a1.52,1.52,0,0,0-.79,1.85l.91,2.81a14.06,14.06,0,0,1-.28-3.14,1.14,1.14,0,0,1,.64-.79,12.75,12.75,0,0,1,1.33-.61Z"/><path class="cls-15" d="M1418.55,238.69c0-8.28-7-14.16-15.89-14.16-5.75,0-10.91,2-13.73,6.27,0,0,7.43,14.93,12.68,16l2.13-4.71h.61a3.14,3.14,0,0,1,1.45,5.93h0s-5.17,2.77-2.52,7l4,6,0-2.43s-.23-4.82,3.06-6.83l.14-.08a5.37,5.37,0,0,1,.63-.34h0A14.73,14.73,0,0,0,1418.55,238.69Z"/><path class="cls-15" d="M1395.53,228.13a7.11,7.11,0,0,0-4.75-1.85c-4.31,0-7.8,4-7.8,8.89a9.87,9.87,0,0,0,1,4.27l.58-.1a11.89,11.89,0,0,1,0-4s.41,2.54.82,3.89a15.86,15.86,0,0,1,2-.16,5.64,5.64,0,0,1,0-3.13,30.39,30.39,0,0,0,1.27,3.16,15.29,15.29,0,0,1,5.41,1.27,9.77,9.77,0,0,1-1.47-5.18A9.42,9.42,0,0,1,1395.53,228.13Z"/><circle class="cls-15" cx="1420.88" cy="228.14" r="7.4"/><path class="cls-15" d="M1417.71,231.72s-2.3,2.93.84,6,2.27,6.34,0,8.89-1.65,7.19,2.92,8.42c3.37.91,4.08,3.27,3.51,6s.64,3.12,3.3,0,3-7.57,1.61-9.67,1.88-5.14,1.9-9.16c0-6.61-6.15-2.31-3.65-12.59.66-2.72-3.16-2.39-3.16-2.39Z"/><path class="cls-13" d="M1418.7,477c0,.54-.18.85-.55.94a1.83,1.83,0,0,1-.47.05,1.23,1.23,0,0,1-.93-.35.7.7,0,0,1-.51.46,2.33,2.33,0,0,1-.53.06,1.36,1.36,0,0,1-1.1-.46.67.67,0,0,1-.49.39,1.51,1.51,0,0,1-.42.05,1.71,1.71,0,0,1-1.28-.55,1,1,0,0,1-.83.53l-.29,0a1.45,1.45,0,0,1-1.22-.56,2.15,2.15,0,0,1-.14-.27,1.54,1.54,0,0,1-.92.8,5,5,0,0,1-.89.14h-.2a2.42,2.42,0,0,1-2.09-1,10.37,10.37,0,0,1-.67-1.64,7.6,7.6,0,0,0-.28-.75,4.53,4.53,0,0,1,.41-2.45l1-4.12c.06-.18,1.45-7.94,2.19-12l6.74.15.19,0a5,5,0,0,0,0,1.72l1,10a7.33,7.33,0,0,1,.08.8l.27,2.66,1.13,3.16Z"/><path class="cls-16" d="M1412,476.5a.15.15,0,0,1-.18.2h-1.29a.19.19,0,0,1-.2-.19v-.25c0-.23,0-.35.28-.35h1c.23,0,.21.06.29.25Z"/><path class="cls-16" d="M1414.1,476.51a.15.15,0,0,1-.17.2h-1.2a.18.18,0,0,1-.19-.19v-.25c0-.23,0-.35.26-.35h.93c.21,0,.19.06.27.25Z"/><path class="cls-16" d="M1416.22,476.5a.15.15,0,0,1-.17.2h-1.2a.18.18,0,0,1-.19-.19v-.25c0-.23,0-.35.26-.35h.93c.21,0,.19.06.27.25Z"/><path class="cls-16" d="M1418.11,476.5a.14.14,0,0,1-.15.18h-1.06a.17.17,0,0,1-.18-.17v-.22c0-.21,0-.31.23-.31h.82c.19,0,.17.05.24.22Z"/><path class="cls-16" d="M1406.36,475.23l.56,1.57a.27.27,0,0,0,.34.14,3.53,3.53,0,0,1,1.79-.13c.19,0,.36-.11.29-.27l-.64-1.53a.24.24,0,0,0-.21-.14,6.15,6.15,0,0,0-.9,0,8.68,8.68,0,0,0-1,.14C1406.4,475,1406.32,475.12,1406.36,475.23Z"/><path class="cls-13" d="M1396.55,467.28c-.1,2.22-1.07,2.88-2.4,3.33a6.48,6.48,0,0,1-3.33,0c-1.16-.27-2.09-1-3.72-1-2.71-.09-2.76.72-5.68,1.17-3.65.56-11.64-.09-11.64-.09a2,2,0,0,1-1.59-2.31c0-.2.26-.62.36-.62h.81a1.05,1.05,0,0,1,0-.43.77.77,0,0,1,.19-.37h.26a.37.37,0,0,1,0-.11.71.71,0,0,1,.19-.37h.58v-.2a.18.18,0,0,1,.18-.16l.32,0a1.45,1.45,0,0,1,.18-.37h.09l.78,0h.38a15.48,15.48,0,0,0,3.33-.4c6.51-.78,11.85-6.14,11.85-12.52,0-.11,0-.75,0-.88h7.12c-.18,7.52.61,10.17,1.18,12A8.27,8.27,0,0,1,1396.55,467.28Z"/><path class="cls-16" d="M1370.42,468.81l0-.74a.28.28,0,0,0-.28-.29l-1.6,0a.28.28,0,0,0-.29.28v.23a.79.79,0,0,0,.77.81l1.09,0A.3.3,0,0,0,1370.42,468.81Z"/><path class="cls-16" d="M1370.52,467.3v-.22a.1.1,0,0,0-.09-.1l-.88,0a.21.21,0,0,0-.21.2v.13a.38.38,0,0,0,.38.4h.37A.41.41,0,0,0,1370.52,467.3Z"/><path class="cls-16" d="M1371,467v-.39a.09.09,0,0,0-.08-.1l-.93,0a.2.2,0,0,0-.18.2V467Z"/><path class="cls-16" d="M1371.62,466.51l0-.28a.07.07,0,0,0-.08-.08l-.93,0a.18.18,0,0,0-.18.17v.2Z"/><path class="cls-16" d="M1372.08,466.15v-.25a.07.07,0,0,0-.07-.08l-.79,0a.16.16,0,0,0-.15.17v.16Z"/><path class="cls-13" d="M1412.42,462.19l-1.26,0a2.88,2.88,0,0,1-2.79-3l.29-9a2.88,2.88,0,0,1,3-2.79l1.26,0a2.88,2.88,0,0,1,2.79,3l-.29,9A2.88,2.88,0,0,1,1412.42,462.19Z"/><path class="cls-17" d="M1418.18,398.62a63.65,63.65,0,0,0,.13,11.13l.2,2.32a52.63,52.63,0,0,1-.14,12.48l-2.74,27.54h-7l-2.48-26.49a53.33,53.33,0,0,1-.62-12.42l.17-2.32a78.32,78.32,0,0,0-.69-12.32s-1.88-20.74-4-36.43c-2.46,10.24-4.34,22.68-5.47,28,0,0-.56,2.64-.76,3.62a1.71,1.71,0,0,1-.06.26h0c0,.07,0,.11,0,.11s0,.15-.05.21a.22.22,0,0,1,0,.08c-1.32,7.4,1.14,4.5,1.07,18.73l-.85,39h-7.12l-8.33-52.17a8.4,8.4,0,0,1-.13-1.81c.24-6.94,7.45-69.22,9.67-88.29.06-.44.11-.87.15-1.27.31-2.71.49-4.25.49-4.25s20.82-.81,20.82-.81a53.52,53.52,0,0,0,1,5.33,41.66,41.66,0,0,0,1.36,4.63c3.46,9.78,8.68,13,8.34,28C1420.46,367.43,1418.18,398.62,1418.18,398.62Z"/><path class="cls-13" d="M1365.28,247l-.3-7.48a.57.57,0,0,0-.39-.12c-.45,0-.78.58-.91,1.73-.06.49-.54,8.87-.54,8.87Z"/><path class="cls-13" d="M1367,247.53l-.21-9.41a.62.62,0,0,0-.39-.12c-.45,0-.78.59-.9,1.74,0,.49-.47,8.87-.47,8.87Z"/><path class="cls-13" d="M1368.87,248.26l-.34-8.07c-.09-.11-.27-.12-.39-.14-.45-.05-.8.56-1,1.7-.07.49-.43,8.74-.43,8.74Z"/><path class="cls-13" d="M1363.78,248.67l-.44-6.3a.5.5,0,0,0-.31-.1c-.36,0-.77.55-.88,1.47-.05.4-.16,5.12-.16,5.12l-.79,4.21Z"/><path class="cls-13" d="M1361.23,262.24l3-2.25a1.9,1.9,0,0,0,.65-1.47c-.07-1,.23-3.78.91-3.73,2.19.15,1.94-2.54,2.27-3.25.88-1.92,3.39-1.67,3.22-1.17a28.74,28.74,0,0,0-2.25,3.59c-.86,3.07-1.14,2.3-2.5,5.6a14.11,14.11,0,0,0-.53,3.62"/><path class="cls-13" d="M1366.05,262.86l-1.66-.26c1.24-2.36,3.18-6.55,3.24-6.67s1.23-7.66,1.23-7.66l-3.24-1.77-3.57,2.56-.94,3.63a20.36,20.36,0,0,0-.35,2.23,10.69,10.69,0,0,0,.14,3.29,16.53,16.53,0,0,1,.33,4h0l-3.51,34c-.41,3,1.32,5.63,3.83,5.84,2.31.2,4.46-1.76,4.93-4.5Z"/><path class="cls-18" d="M1354.05,303.92l3.33-21.5a.76.76,0,0,1,.76-.65h9.18a.78.78,0,0,1,.75.58l5.84,22.57-10.18,8.73-8.45-6.41A3.6,3.6,0,0,1,1354.05,303.92Z"/><path class="cls-18" d="M1399.76,292.19l-4.7-11.85a1.42,1.42,0,0,1,0-1.09l2-4.84a1.43,1.43,0,0,0-.53-1.76,59.83,59.83,0,0,0-6-3.59l-.3-.77c-.08-.18-.41-.07-.88.22a4.45,4.45,0,0,0-2.73-.51c-2.31.85-26.09,31.87-30.76,38a1.44,1.44,0,0,0,.17,1.93l6.53,6.09a1.44,1.44,0,0,0,2.1-.14l17-20.61a1.62,1.62,0,0,0,.34-.68c.75-4.08,7,7.25,8.49,10.09a1.38,1.38,0,0,0,1.16.76,2.87,2.87,0,0,0,2.19-1l5.18-6A4.18,4.18,0,0,0,1399.76,292.19Z"/><path class="cls-19" d="M1386.52,268l-13,34.57-8.83,11.22s22.45-21.31,22.59-21.57S1386.52,268,1386.52,268Z"/><path class="cls-20" d="M1398,269.2l0,0h0Z"/><path class="cls-20" d="M1397.77,268.46l.25.74A4.94,4.94,0,0,1,1397.77,268.46Z"/><path class="cls-18" d="M1387.67,308.81c-3.16-9.49-2.72-14.12-2.58-24.87a139,139,0,0,1,1.43-15.9l10.66-4.65s.43,4.3.59,5v0a4.09,4.09,0,0,0,.27.77.85.85,0,0,0,.1.19,1.36,1.36,0,0,0,.24.35.86.86,0,0,0,.13.14,1.21,1.21,0,0,0,.25.21,1.92,1.92,0,0,0,.45.24l1,14,0-.34,0-.25.06-.49.07-.6.57-4.92c0-.29.07-.58.1-.87l.11-1,.07-.61.07-.61.07-.57.4-3.45a5.86,5.86,0,0,0,1.35-.11c3-.68,4-2.48,4.06-4.7,0,0,0-2.74,0-2.77l14.21,5.51c0,1.15-6.47,40.17-6.47,40.17h-27.35Z"/><path class="cls-19" d="M1408.43,308.78s4.63-31.79,5.48-34.87,3.64-7,7.9-5.07l-6.81,40Z"/><path class="cls-13" d="M1436.8,359.68c0-.12,0-.24-.07-.36-.29-2.4-1.53-7.86-1.53-7.86l-1-39.22c-.23-3.27-2.68-5.7-5.4-5.36-2.5.31-4.35,2.88-4.24,5.9l5.24,36.34h0l.27,1.87h0c.46,3.44.17,4.91-.33,5.37a2.26,2.26,0,0,0-.74,1.63c0,.67,0,1.5,0,2a21,21,0,0,1-1.46,5.77c-.32.88-.57,1.48-.57,1.48h0a.41.41,0,0,0,.19.49c.5.31,1.72-.44,2.2-1.16h0l0-.06a8.25,8.25,0,0,0,.5-.93,18.16,18.16,0,0,0,.91-1.93c0,1.57-.26,3.89-.3,4.2l-.1,0-1.63,1.82s-1.68.12-1.88,1.13v.07c-.46.2-.94.75-.82,1.19l.13,0c-.07.07-.15.14-.21.21a1.35,1.35,0,0,0-.3,1.13.23.23,0,0,0,.3.11l1-.38.11-.05a1.78,1.78,0,0,0-.44.95.3.3,0,0,0,.43.27l7.33-3.89a.5.5,0,0,0,.16-.14C1435.46,369.23,1437,360.8,1436.8,359.68Z"/><path class="cls-13" d="M1430.8,362.46l-.13-.28C1430.73,362.19,1430.77,362.29,1430.8,362.46Z"/><path class="cls-18" d="M1436.28,345.52l-8.51.46a1.16,1.16,0,0,1-1.16-.78l-6.93-20.46a11.35,11.35,0,0,1-.5-2.13c-.81-6.25-4.82-37.46-4.82-42.43,0-2.45-.09-6,1.42-8.7a6.14,6.14,0,0,1,1.38-1.69,4.48,4.48,0,0,1,2.53-1.29,2.51,2.51,0,0,1,2.65.89l16.53,50.33a7.73,7.73,0,0,1,.36,3.09l-1.87,21.67A1.13,1.13,0,0,1,1436.28,345.52Z"/><path class="cls-21" d="M1401,362.22c-2.46,10.24-5.66,30-6.79,35.27,0,0,1.54-23.46,1.61-24.5,1.05-14.72,1.43-23-2-31.88l-2.42-5.3C1396.72,340.82,1399.58,347.85,1401,362.22Z"/><path class="cls-21" d="M1412.72,313.44h0l-23.8-3.62v-1.27h.15l22.28.26A41.58,41.58,0,0,0,1412.72,313.44Z"/><path class="cls-22" d="M1390.8,250.57a15.09,15.09,0,0,1-2.45,3.4,3.49,3.49,0,0,1-2.3.94.8.8,0,0,1-.28-.63.59.59,0,0,1,.23-.54,9.43,9.43,0,0,0,2.18-.83,7.94,7.94,0,0,0,.78-.46A7.17,7.17,0,0,0,1390.8,250.57Z"/><path class="cls-22" d="M1390.71,250.62h0l-.15.11-.2.15c-.16.1-.35.21-.58.33l-.07,0a7.06,7.06,0,0,1-2.57.75,7.88,7.88,0,0,1-1,0c-.6-.07-.93-.22-.93-.72l.07-.34a2.1,2.1,0,0,1,1.35.16A5.25,5.25,0,0,0,1390.71,250.62Z"/><path class="cls-17" d="M1315.56,360.78v2.61a3.93,3.93,0,0,0-4.13-3.69H1179.91a3.92,3.92,0,0,0-4.12,3.69v-2.61a4.33,4.33,0,0,1,1.59-3.31l1.31-1.1.79-.67.14-.12,1.15-1,1-.88a5.46,5.46,0,0,1,3.51-1.25H1306a5.46,5.46,0,0,1,3.51,1.25l1,.88,1.15,1,.14.12.79.67,1.31,1.1A4.34,4.34,0,0,1,1315.56,360.78Z"/><path class="cls-23" d="M1315.56,363.39v85.42c0,4.74-3.07,8.59-6.86,8.59H1182.64c-3.78,0-6.85-3.85-6.85-8.59V363.39c0-2.85,1.84-5.16,4.12-5.16h131.52C1313.71,358.23,1315.56,360.54,1315.56,363.39Z"/><polygon class="cls-23" points="1311.86 355.7 1179.37 355.7 1180.77 354.6 1310.57 354.6 1311.71 355.58 1311.86 355.7"/><polygon class="cls-23" points="1292.63 355.7 1250.54 285.1 1248.4 286.36 1289.99 355.7 1292.63 355.7"/><polygon class="cls-21" points="1315.56 370.41 1315.56 396.55 1175.79 425.64 1175.79 414.64 1315.56 370.41"/><polygon class="cls-21" points="1315.56 402.21 1315.56 416.96 1236.28 433.73 1236.28 427.5 1315.56 402.21"/><path class="cls-13" d="M1266.74,325.5,1228.38,321c-3,0-5.54,1.92-5.78,4.48h0c-.26,2.77,2.24,5.19,5.52,5.33l39.24-.16"/><path class="cls-13" d="M1224.79,329.76c2.19,1.7,5.55.81,7.4-2l21-31.39c2-3.08-9.37-5.07-11.34-2l-17.78,27.95c-1.62,2.6-1.32,5.82.7,7.39Z"/><path d="M1242.92,317.76c-1.6,0-5.86,0-8.4.05-.81,0-.8.11-1.28-.53l-6.08-8.35a.79.79,0,0,1,0-1.14L1243,287.87c.43-.66,5-2.89,7.7-1.43a7.09,7.09,0,0,1,3.43,4.33,7.19,7.19,0,0,1-.48,5.13l-9.51,21.24C1243.89,317.58,1243.62,317.77,1242.92,317.76Z"/><path class="cls-13" d="M1220.26,485.19l-1.07-.73a3.83,3.83,0,0,1-1-5.12l5.64-9.22a3.4,3.4,0,0,1,4.85-1.1l1.07.73a3.83,3.83,0,0,1,1,5.12l-5.64,9.22A3.4,3.4,0,0,1,1220.26,485.19Z"/><path class="cls-24" d="M1267,368.34l-8.14,40.07-14,53.13-4.68,17.7a1.52,1.52,0,0,1-1.65,1.14l-4.17-.52-1.32-.17-.63-.08a3.06,3.06,0,0,1-1.81-.93l-.18-.2-2.53-2.76a4.54,4.54,0,0,0-2.57-1.41l-6.26-1.07a2.51,2.51,0,0,1-1.67-1.07l-1.48-2.19a1.34,1.34,0,0,1-.11-1.33l12.72-27.36c6.51-18.86,11.88-29.73,12.67-44.06.27-4.85.36-9.71.35-14.17,0-11.28-.65-20.09-.65-20.09.4-8.21,1.49-12.72,6.48-20.83l7.36-15.52,11.12-.08-4.71,8.76,4.07,23.92Z"/><path class="cls-25" d="M1267,368.34l-8.14,40.07-14,53.13-4.68,17.7a1.52,1.52,0,0,1-1.65,1.14l-4.17-.52-1.32-.17a401.72,401.72,0,0,0,16.31-51.13c3.24-13.61.13-26.53-1.31-31.54-1.66-5.69-4.26-11.82-5.35-18.78,0-11.28-1.79-15.26-1.79-15.26.4-8.21,1.48-12.72,6.47-20.83l7.36-15.52,11.12-.08-1.39,5.65,1,18.75Z"/><path class="cls-13" d="M1257.29,493.74h-1.49a3.4,3.4,0,0,1-3.4-3.4V478.78a3.4,3.4,0,0,1,3.4-3.4h1.49a3.4,3.4,0,0,1,3.4,3.4v11.56A3.4,3.4,0,0,1,1257.29,493.74Z"/><path class="cls-15" d="M1228.49,485.15l8.39,2.5a6.71,6.71,0,0,1,4.76,6.54v.71h-15.81"/><path class="cls-15" d="M1225.83,494.9l-13.08-10,1.49-2.44a8.57,8.57,0,0,1,3.24-3.09l.93-.51,2.82,1.92a2.23,2.23,0,0,0,2.55,0l1.45-1,4.2.82a1.16,1.16,0,0,1,.91,1l.29,2.09a3.27,3.27,0,0,0,.76,1.69l1.22,1.46"/><path class="cls-15" d="M1263.81,485l1.32,1.59a3,3,0,0,0,1.51,1l10.16,3a6.71,6.71,0,0,1,4.76,6.54v.71h-30.82v-2.91a9.24,9.24,0,0,1,1.13-4.44l.53-1h3.36a2.32,2.32,0,0,0,2.13-1.48l.69-1.69,4-1.71A1.1,1.1,0,0,1,1263.81,485Z"/><path class="cls-24" d="M1273.89,410.82s-2.21,62.89-2.5,71.36a.71.71,0,0,1-.93.66l-2.15-.7a3.72,3.72,0,0,0-2.59.1l-8.09,3.35a2.49,2.49,0,0,1-2.13-.1l-3.53-2.21c-1.07-.58-1.64-1.16-2.8-1.12l-3.58,0c-1,.07-1.53-.51-1.42-1.33l9.31-59.77c1.83-13.17-2.21-19.33-3.8-24.24-3-9.35-12.73-27.37-13.34-36.06a21.69,21.69,0,0,1,.31-5.71c.08-.43.17-.85.27-1.25.21-.85.45-1.65.7-2.42,3-9.31,5.35-12.52,7.77-17.33l5.57-8.62,13.46,6.74,2.33,19.22.39,3.27.61,5Z"/><path class="cls-25" d="M1267.75,359.7a57.68,57.68,0,0,1-31.1-4.62c.08-.43.17-.85.27-1.25h0l30.21.87Z"/><polygon class="cls-23" points="1204.37 355.15 1246.27 285.1 1248.4 286.36 1207.01 355.15 1204.37 355.15"/><path class="cls-26" d="M1272.79,311.83c-.17.6-.65,2.11-1.2,3.82h0c-2.55,6.68-4.5,13.82-4.58,21-.1,9,1.66,14.53,2.29,16.21a.74.74,0,0,1-.31.9c-1.52.93-6.41,3.35-16,3.17-9-.17-18.21-3-18.42-5.35,0,0,7.25-19.25,6.16-25.65s-2.06-9.67-2.06-18.53c0-12.1,2.14-17.43,7.61-24.8a.68.68,0,0,1,.62-.27l11,1.32a1.4,1.4,0,0,1,1,.61l12.6,19.14A9.78,9.78,0,0,1,1272.79,311.83Z"/><path d="M1269.61,318s-4,8.89-4,10.66l-2.19-3a1.9,1.9,0,0,0-1.59-.57l-3.54.39a1.24,1.24,0,0,1-1.18-.58l-14.27-26.47,12.35-7.11,7,19.53c.36.38,4.31,2.54,4.19,3.05C1265.73,316.64,1268.92,321.28,1269.61,318Z"/><path d="M1267.9,316.82a2.87,2.87,0,0,1-1.87,1.37l-8,1.35a.81.81,0,0,1-1.06-.43l-13-19.59a7.65,7.65,0,0,1-.93-2.12h0a7.43,7.43,0,0,1,2.68-7.78,6.33,6.33,0,0,1,5.27-1.22c1.69.3,3.23,1.74,4.42,3.18l10.75,17.88C1266.47,309.81,1269,314.9,1267.9,316.82Z"/><path class="cls-13" d="M1289.5,289.82l0-1.51a6.13,6.13,0,0,0-1-4.15c-.77-1.38-1.83-2.9-2.68-4.18,0-2.13.11-6.17.1-6.56-.06-1.24-.93-1.39-1.32-1.34a.48.48,0,0,0-.35.15l-.38,4.83h0c0-1.21.06-7.14,0-7.64-.06-1.3-.82-1.88-1.25-1.82a.5.5,0,0,0-.36.16L1282,271c-.15-2-.31-3.87-.34-4.12-.22-1.24-.87-1.82-1.36-1.75a.69.69,0,0,0-.42.16l.13,2.39a1.31,1.31,0,0,0-1.32-.56l.88,9.67a4.15,4.15,0,0,0,.29,2.33l2.3,4.23c1.08,2.35,2.55,4.19,2.52,4.85-.08,1.75-3,19-5.24,29.89l-24.1-26.19c-2.82-2.88-7-3.28-9.4-.89s-2,6.67.83,9.56c0,0,30.18,28.91,31.11,29.57,3.55,3.2,7.69,2.51,8.55-4.26C1287.18,320,1289.5,289.82,1289.5,289.82Z"/><path class="cls-26" d="M1271.89,309a64.6,64.6,0,0,1-2.28,7.31,1.71,1.71,0,0,1-1.21.91l-9.49,2.7a.25.25,0,0,1-.27-.09l-14.43-19.21a7.71,7.71,0,0,1-1-2.06h0a7.44,7.44,0,0,1,2.22-7.93,7.1,7.1,0,0,1,5.27-1.67,7.2,7.2,0,0,1,4.62,2.28l16.45,16.45C1272.06,308.06,1272,308.35,1271.89,309Z"/><ellipse class="cls-27" cx="1259.08" cy="258.28" rx="11.74" ry="11.94"/><polyline class="cls-15" points="1253.56 255.71 1253.56 278.73 1270.73 278.73 1270.79 257.56"/><path class="cls-13" d="M1271.48,264l-2.33-4a2.09,2.09,0,0,1-.3-1.41c.66-5.67-.92-6.08-2.48-8.76a.48.48,0,0,0,0-.12c-2.46-4-6.93-5.92-11.93-5.92-7.66,0-13.79,5.56-13.79,13.37a14.17,14.17,0,0,0,6.81,12.15,1.19,1.19,0,0,1,.58.95l.33,8.35a1.93,1.93,0,0,1,0,.24l-.59,3.58a1.15,1.15,0,0,0,.54,1.18,11.37,11.37,0,0,0,4.88,1.39c5.54.56,4.69-1.33,4.69-1.33h0l.23-2.42s0-.06,0-.08l.4-4.17a2,2,0,0,1,2.58-1.43s6.23,2.46,7.38-1.06a3,3,0,0,0,.06-1.56c-.12-.85-.09-1.43.41-1.87l.1-.11,0,0a1.2,1.2,0,0,0,.22-.4.84.84,0,0,0,.08-.38.71.71,0,0,0-.2-.59h-.47l.15-.06a.51.51,0,0,0,.17-.07.16.16,0,0,0,.1-.05c.35-.19.68-.47.68-.77v-.37a.43.43,0,0,0-.1-.28l-.17-.15-.33-.79a4.83,4.83,0,0,1,0-.85v-.24a.37.37,0,0,1,.23-.32l1.71-.53A.69.69,0,0,0,1271.48,264Z"/><path class="cls-15" d="M1236.78,256.56c0-8.23,6.89-14.08,15.54-14.08,5.81,0,12.43,3.09,14.44,8,0,0-8.29,13.13-13.41,14.17l-1.26-2.85a2.26,2.26,0,0,0-3.79-.84,2.83,2.83,0,0,0-.85,2.2,3.31,3.31,0,0,0,1.8,2.7h0s5.06,2.75,2.46,6.93l-3.91,6,0-2.42s.21-4.79-3-6.78l-.14-.08c-.2-.12-.41-.24-.61-.34h0A14.68,14.68,0,0,1,1236.78,256.56Z"/><path class="cls-15" d="M1236.8,255.71v23H1254s-.35-8.76-2.51-11"/><path class="cls-14" d="M1267.65,258.07l-1.4-.07-1.35-.06a2,2,0,0,0-1.11.37,2.22,2.22,0,0,0-.46.41l-.45.53a.24.24,0,0,1-.34,0,.26.26,0,0,1,0-.32l.37-.59a3.19,3.19,0,0,1,.5-.6,2.88,2.88,0,0,1,1.43-.7c.55-.08,1-.09,1.44-.14l1.39-.13a.63.63,0,0,1,.11,1.25A.11.11,0,0,1,1267.65,258.07Z"/><ellipse class="cls-14" cx="1266.37" cy="260.03" rx="0.69" ry="1.07"/><path class="cls-14" d="M1268.09,258.89c-.37.09-.74.16-1.11.22a4.62,4.62,0,0,0-1.07.22,3.87,3.87,0,0,0-1,.48c-.32.2-.65.38-1,.55a6.18,6.18,0,0,1,1.87-1.31,4.09,4.09,0,0,1,1.14-.17A10.84,10.84,0,0,1,1268.09,258.89Z"/><path class="cls-28" d="M1270.55,262.4s-.69,2.56-8.38,3.83l-4.05.95,3,8.39,3.26,1.27c2.23.87,4.26.41,5.33-2.19l2.76-6.46c.54-1.17.58-1.83.08-2.64Z"/><polygon class="cls-28" points="1258.28 267.61 1253.34 264.59 1253.98 264.4 1258.52 267.09 1258.28 267.61"/></g></g></svg>