<?xml version="1.0" encoding="utf-8"?>
<!-- Generator: Adobe Illustrator 24.3.0, SVG Export Plug-In . SVG Version: 6.00 Build 0)  -->
<svg version="1.1" xmlns="http://www.w3.org/2000/svg" xmlns:xlink="http://www.w3.org/1999/xlink" x="0px" y="0px"
	 viewBox="0 0 1920 600" style="enable-background:new 0 0 1920 600;" xml:space="preserve">
<style type="text/css">
	.st0{fill:#FCE1E2;}
	.st1{fill:#FCDBCD;}
	.st2{fill:#FFF2E3;}
	.st3{fill:#E8D3C1;}
	.st4{fill:#F6CCC8;}
	.st5{fill:#F2EFE3;}
	.st6{fill:#E6BDBA;}
	.st7{opacity:0.6;fill:#EF8299;}
	.st8{opacity:0.8;fill:#F6CCC8;}
	.st9{opacity:0.75;fill:#FDF5EA;}
	.st10{opacity:0.7;fill:#F4F0EF;}
	.st11{fill:#F7CCC8;}
	.st12{fill:none;stroke:#EF8299;stroke-miterlimit:10;}
	.st13{opacity:0.6;fill:none;stroke:#EF8299;stroke-miterlimit:10;}
	.st14{fill:#E4A7A0;}
	.st15{fill:#040504;}
	.st16{fill:#331A1E;}
	.st17{fill:#D38D8C;}
	.st18{fill:#B0B0AF;}
	.st19{fill:#0089B4;}
	.st20{fill:#006289;}
	.st21{fill:#D5CDBC;}
	.st22{opacity:0.5;fill:#8C8C8C;}
	.st23{fill:#DE7A5C;}
	.st24{fill:#9C9B99;}
	.st25{fill:#F4A31B;}
	.st26{fill:#D88C1D;}
	.st27{fill:#282828;}
	.st28{fill:#331D1F;}
	.st29{fill:#BBE2ED;}
	.st30{display:none;}
	.st31{display:inline;fill:#05A357;}
	.st32{display:inline;fill:#156A41;}
	.st33{fill:#D00078;}
	.st34{fill:#FFD7D2;}
	.st35{fill:#F6926A;}
	.st36{fill:none;}
	.st37{fill:#FABDA5;}
	.st38{clip-path:url(#SVGID_2_);}
	.st39{fill:#F4F0EF;}
	.st40{fill:#156A41;}
	.st41{fill:#06C167;}
	.st42{fill:#E08B70;}
	.st43{opacity:0.8;fill:#FFD7D2;}
	.st44{opacity:0.9;}
	.st45{clip-path:url(#SVGID_4_);}
	.st46{clip-path:url(#SVGID_6_);}
	.st47{opacity:0.5;fill:#FFF2E3;}
	.st48{fill:#FFE3AC;}
	.st49{fill:#FFCF70;}
	.st50{fill:#F2B1C3;}
	.st51{fill:#EDD0B9;}
	.st52{fill:#EF2691;}
	.st53{fill:#3A3A3A;}
	.st54{fill:#515151;}
	.st55{fill:#636363;}
	.st56{fill:#F4E0C6;}
	.st57{fill:#F49878;}
	.st58{fill:#EA8E6E;}
	.st59{fill:#E08463;}
</style>
<g id="BG">
	<g>
		<rect x="0.2" class="st0" width="1920" height="600"/>
		<polygon class="st1" points="933.92,167.95 933.92,133.41 919.21,133.41 919.21,92.38 870.48,92.38 870.48,133.41 855.77,133.41 
			855.77,167.95 844.04,167.95 844.04,520.38 945.65,520.38 945.65,167.95 		"/>
		<g>
			<rect x="860.34" y="184.49" class="st2" width="10.46" height="49.6"/>
			<rect x="880.08" y="184.49" class="st2" width="10.46" height="49.6"/>
			<rect x="900.45" y="184.49" class="st2" width="10.46" height="49.6"/>
			<rect x="919.78" y="184.49" class="st2" width="10.46" height="49.6"/>
		</g>
		<polygon class="st3" points="855.77,133.41 906.59,167.95 855.77,167.95 		"/>
		<polygon class="st3" points="870.29,101.37 906.59,133.41 870.29,133.41 		"/>
		<rect x="891.3" y="58.72" class="st1" width="7.09" height="33.66"/>
		<rect x="588.13" y="153.3" class="st4" width="68.76" height="369.01"/>
		<polygon class="st1" points="626.83,153.3 626.83,522.31 656.43,522.31 672.41,522.31 722.7,522.31 722.7,153.3 		"/>
		<g>
			<rect x="1029.73" y="225.22" class="st1" width="126.51" height="297.09"/>
			<rect x="945.76" y="225.22" class="st4" width="84.53" height="297.09"/>
		</g>
		<polygon class="st3" points="626.83,331.86 626.83,522.31 722.7,522.31 722.7,407.92 		"/>
		<g>
			<rect x="640.63" y="171.56" class="st2" width="10.22" height="118.18"/>
			<rect x="659.92" y="171.56" class="st2" width="10.22" height="118.18"/>
			<rect x="679.81" y="171.56" class="st2" width="10.22" height="118.18"/>
			<rect x="698.69" y="171.56" class="st2" width="10.22" height="118.18"/>
		</g>
		<rect x="722.7" y="331.86" class="st4" width="184.9" height="190.45"/>
		<polygon class="st6" points="797.03,522.31 722.7,522.65 722.7,331.86 797.03,378.95 		"/>
		<polygon class="st6" points="1031.56,522.31 945.76,522.31 945.76,225.22 1030.3,275.83 		"/>
		<polygon class="st6" points="626.83,522.45 606.28,522.45 606.28,352.98 626.83,367.69 		"/>
		<polygon class="st1" points="502.56,352.98 606.28,352.98 606.28,522.45 503.16,522.45 		"/>
		<polygon class="st4" points="519.64,358.95 558.43,358.81 558.43,522.65 519.87,522.65 		"/>
		<polygon class="st1" points="626.83,368.04 626.83,522.31 767.38,522.65 767.38,478.48 		"/>
		<g>
			<rect x="526.26" y="368.14" class="st2" width="10.22" height="59.06"/>
			<rect x="541.58" y="368.14" class="st2" width="10.22" height="59.06"/>
		</g>
		<g>
			<rect x="859.87" y="368.14" class="st2" width="10.22" height="59.06"/>
			<rect x="875.19" y="368.14" class="st2" width="10.22" height="59.06"/>
		</g>
		<polygon class="st3" points="907.6,331.86 945.65,358.81 945.65,522.31 907.6,522.31 		"/>
		<g>
			<rect x="859.87" y="448.18" class="st2" width="10.22" height="59.06"/>
			<rect x="875.19" y="448.18" class="st2" width="10.22" height="59.06"/>
		</g>
		<g>
			<rect x="1050.16" y="368.14" class="st2" width="10.22" height="59.06"/>
			<rect x="1065.48" y="368.14" class="st2" width="10.22" height="59.06"/>
		</g>
		<g>
			<rect x="1050.16" y="448.18" class="st2" width="10.22" height="59.06"/>
			<rect x="1065.48" y="448.18" class="st2" width="10.22" height="59.06"/>
		</g>
		<polygon class="st3" points="558.43,358.81 558.43,522.45 606.28,522.45 606.28,409.56 		"/>
		<g>
			<rect x="1090.07" y="378.59" class="st5" width="10.01" height="57.87"/>
			<rect x="1105.08" y="378.59" class="st5" width="10.01" height="57.87"/>
		</g>
		<g>
			<path class="st7" d="M548.71,469.69c1.68-5.2,1.99-10.91,0.58-16.61c-3.42-13.86-15.86-23.13-29.53-23.1
				c0.06-2.64-0.21-5.33-0.88-8.02c-4.02-16.29-20.5-26.24-36.79-22.22c-10.88,2.69-18.92,10.92-21.87,20.95
				c-4.99-1.47-10.42-1.68-15.83-0.34c-14.31,3.53-23.72,16.66-23.08,30.84c-6.13,9.09-9.66,19.7-9.66,31.04
				c0,33.66,31.01,60.95,69.26,60.95s69.26-27.29,69.26-60.95C550.19,477.93,549.67,473.73,548.71,469.69z"/>
			<path class="st7" d="M537.11,484.12c1.5-4.63,1.77-9.72,0.52-14.79c-3.05-12.35-14.13-20.6-26.31-20.58
				c0.06-2.35-0.19-4.75-0.78-7.15c-3.58-14.52-18.26-23.38-32.77-19.79c-9.69,2.39-16.85,9.73-19.48,18.66
				c-4.44-1.31-9.28-1.49-14.1-0.3c-12.74,3.15-21.13,14.84-20.56,27.47c-5.46,8.1-8.6,17.55-8.6,27.65
				c0,29.99,27.62,54.29,61.7,54.29s61.7-24.31,61.7-54.29C538.42,491.45,537.96,487.72,537.11,484.12z"/>
		</g>
		<g>
			<path class="st7" d="M830.46,499.03c0.43-3.55-0.08-7.26-1.69-10.75c-3.92-8.49-13.07-12.9-21.86-11.19
				c-0.29-1.71-0.8-3.4-1.56-5.05c-4.61-9.98-16.44-14.33-26.42-9.71c-6.66,3.08-10.81,9.37-11.46,16.19
				c-3.39-0.32-6.91,0.22-10.22,1.75c-8.76,4.05-13.18,13.66-11.01,22.7c-2.81,6.61-3.76,13.87-2.35,21.16
				c4.18,21.65,27.51,35.34,52.11,30.59c24.6-4.75,41.15-26.15,36.96-47.8C832.43,504.14,831.58,501.51,830.46,499.03z"/>
			<path class="st7" d="M824.78,509.75c0.39-3.16-0.07-6.47-1.51-9.58c-3.5-7.56-11.65-11.49-19.47-9.97
				c-0.26-1.52-0.71-3.03-1.39-4.5c-4.11-8.89-14.65-12.76-23.53-8.65c-5.93,2.74-9.63,8.35-10.21,14.42
				c-3.02-0.29-6.15,0.19-9.1,1.56c-7.8,3.61-11.74,12.17-9.8,20.22c-2.5,5.89-3.35,12.35-2.1,18.85
				c3.73,19.28,24.51,31.48,46.42,27.25c21.91-4.23,36.65-23.3,32.93-42.58C826.54,514.31,825.78,511.96,824.78,509.75z"/>
		</g>
		<g>
			<path class="st7" d="M1142.76,438.99c-1.31-4.49-3.84-8.68-7.57-12.03c-9.08-8.17-22.33-8.75-32-2.17
				c-1.22-1.9-2.71-3.67-4.47-5.26c-10.68-9.6-27.11-8.73-36.71,1.95c-6.41,7.13-8.14,16.82-5.42,25.33
				c-4.23,1.36-8.18,3.82-11.36,7.36c-8.43,9.37-8.78,23.18-1.52,32.91c0.03,9.38,2.63,18.58,8.07,26.61
				c16.17,23.82,51.22,28.24,78.3,9.87c27.07-18.37,35.91-52.58,19.74-76.41C1147.76,444.11,1145.39,441.39,1142.76,438.99z"/>
			<path class="st7" d="M1141.48,454.78c-1.16-4-3.42-7.73-6.74-10.72c-8.09-7.28-19.9-7.79-28.5-1.93
				c-1.09-1.69-2.42-3.27-3.99-4.68c-9.51-8.55-24.15-7.77-32.7,1.74c-5.71,6.35-7.25,14.98-4.83,22.56
				c-3.77,1.21-7.28,3.4-10.12,6.56c-7.51,8.35-7.82,20.65-1.35,29.32c0.03,8.36,2.34,16.55,7.19,23.7
				c14.4,21.22,45.63,25.16,69.75,8.79c24.12-16.37,31.99-46.84,17.59-68.06C1145.93,459.34,1143.81,456.92,1141.48,454.78z"/>
		</g>
		<path class="st8" d="M1381.97,274.74c-3.52-6.08-7.16-12.45-10.46-19.41V139.72l-108.85-2.49c-7.04-3.22-14.22-6.11-21.51-8.65
			c-53.08-18.62-111.15-19.61-153.31-4.9C973.83,163.44,953.11,82.2,983.63,49.33c53.08-57.16,164.79-12.83,285.91-27.65
			c213.13-26.09,309.06,108.28,319.09,183.58C1605.06,328.68,1442.04,378.5,1381.97,274.74z"/>
		<path class="st9" d="M1410.64,385.15c71.79,23.99,76.93,127.84-7.68,164.88c-54.18,23.72-165.73,38.46-333.25,15.06
			c-87.47-12.22-161.46-35.98-361.01-32.82c-103.46,1.64-175.98,28.95-288.15,41.4c-84.61,9.39-82.14-44.56-49.76-64.62
			c22.76-14.09,101.06-54.91,284.48-25.43c164.66,26.47,293.01,18.05,350.51,4.29c63.24-15.14,164.05-50.89,244.48-88.4
			C1317.41,368.2,1370.63,371.78,1410.64,385.15z"/>
		<path class="st10" d="M1552.88,264.62c0,168.64-117.8,254.98-303.87,295.7c-64.72,14.16-172.07,27.28-217.52,29.41
			c-167.63,7.8-173.54-76.03-115.8-104.17c186.41-90.88,136.32-189.84,163.97-332.11c17.96-92.43,100.86-122.89,169.4-114.34
			c14.5,1.8,28.34,5.35,40.81,10.43c20.41,8.33,38.54,21.23,52.33,38.15c4.46,5.48,8.97,10.39,13.51,14.79
			c12.81,12.43,25.87,20.83,38.79,26.63c24.81,11.13,49.25,11.95,70.63,14.66C1515.2,150.1,1552.88,199.83,1552.88,264.62z"/>
		<path class="st7" d="M1109.04,131.61c-0.93-14.82-13.24-26.55-28.29-26.55c-15.17,0-27.56,11.91-28.31,26.89
			c-6.74,1.51-11.79,7.52-11.79,14.72c0,8.34,6.76,15.09,15.09,15.09h52.67c8.34,0,15.09-6.76,15.09-15.09
			C1123.51,138.55,1117.08,131.94,1109.04,131.61z"/>
		<path class="st7" d="M555.96,256.78c-0.52-8.31-7.41-14.89-15.85-14.89c-8.5,0-15.42,6.68-15.86,15.07
			c-3.79,0.84-6.63,4.21-6.63,8.26c0,4.67,3.79,8.46,8.46,8.46h29.53c4.67,0,8.46-3.79,8.46-8.46
			C564.08,260.67,560.47,256.96,555.96,256.78z"/>
		<circle class="st2" cx="767.38" cy="117.39" r="36.27"/>
		<polyline class="st11" points="1262.98,142.79 1262.98,454.04 1262.04,453.86 1257.56,452.97 1257.56,142.79 		"/>
		<circle class="st7" cx="1363.64" cy="299.47" r="4.94"/>
		<circle class="st11" cx="1361.25" cy="296.47" r="4.94"/>
		<path class="st11" d="M1240.46,454.67l10.37,1.64V140.8h140.3c1.09,0,1.98-0.89,1.98-1.98v0c0-1.09-0.88-1.97-1.97-1.98
			l-65.67-0.24c-1.34-0.01-2.43-1.08-2.46-2.41l0,0c-0.04-1.4,1.09-2.55,2.49-2.54l33.29,0.17c1.05,0.01,1.91-0.85,1.9-1.9l0,0
			c-0.01-1.04-0.85-1.88-1.89-1.88h-117.64L1240.46,454.67z"/>
		<path class="st7" d="M1250.82,140.8v315.51l121.69,19.26V140.8H1250.82z M1250.82,456.31v-1.3l6.75-1.61V142.8h5.4
			c33.95,15.53,79.05,45.95,101.29,102.7c2.13,5.44,6,11.55,8.25,16.31v176.53l-110.02,15.69l110.02-4.22v25.75L1250.82,456.31z"/>
		<path class="st11" d="M1387.07,470.42c-2.2-0.34-4.18,1.36-4.19,3.59l0,0c0,1.79,1.3,3.32,3.07,3.6l7.56,1.19
			c1.62,1.95,0.14,3.86-1.5,3.6l-68.8-11.03c-1.38-0.23-2.67,0.74-2.86,2.12c-0.17,1.33,0.74,2.55,2.06,2.77l37.15,6.13
			c1.08,0.17,1.81,1.19,1.64,2.26c-0.17,1.08-1.18,1.82-2.26,1.65l-118.48-18.65l0.01-12.99l132.05,20.84v-7.3v-17.55V140.8h10.37
			v315.58c0,1.53,1.12,2.82,2.63,3.03l36.59,5.22c2.64,0.38,4.6,2.64,4.6,5.3v0c0,3.26-2.89,5.77-6.12,5.3L1387.07,470.42z"/>
		<path class="st11" d="M1444.46,459.76l-39.15-5.7c-2.74-0.4-4.74-2.78-4.67-5.54l0,0c0.08-3.27,3.01-5.74,6.25-5.27l39.15,5.7
			c2.74,0.4,4.74,2.78,4.67,5.54l0,0C1450.62,457.77,1447.7,460.24,1444.46,459.76z"/>
		<path class="st11" d="M1519.36,281.54l-39.54-1.25c-2.76-0.09-5.03-2.23-5.27-4.98l0,0c-0.29-3.26,2.34-6.04,5.61-5.94l39.54,1.25
			c2.76,0.09,5.03,2.23,5.27,4.98v0C1525.27,278.87,1522.64,281.65,1519.36,281.54z"/>
		<path class="st11" d="M1421.21,325.16l-44.3-3.09l-0.55-10.99l45.61,3.18c2.76,0.19,4.94,2.41,5.08,5.18v0
			C1427.21,322.71,1424.48,325.38,1421.21,325.16z"/>
		<path class="st11" d="M1435.3,336.28l-41.25-2.86c-1.25-0.09-2.24-1.1-2.3-2.35l0,0c-0.07-1.48,1.16-2.7,2.65-2.59l41.25,2.86
			c1.25,0.09,2.24,1.1,2.3,2.35l0,0C1438.02,335.17,1436.78,336.39,1435.3,336.28z"/>
		<path class="st11" d="M1458.56,222.22l-41.34-0.99c-1.25-0.03-2.29-0.99-2.41-2.24l0,0c-0.14-1.48,1.04-2.75,2.53-2.71l41.34,0.99
			c1.25,0.03,2.29,0.99,2.41,2.24l0,0C1461.22,220.99,1460.04,222.26,1458.56,222.22z"/>
		<path class="st14" d="M1315.45,213.11c-5,0-9.47,1.89-11.93,5.82c0,0,0,0.05,0.02,0.12c-0.6,0.64-3.68,4.83-2.77,9.96
			c0.09,0.49-0.03,0.98-0.3,1.39l-2.77,2.84c-0.24,0.36-0.13,0.9,0.31,1.05l1.59,0.82c0.16,0.09,0.42,0.25,0.5,0.45
			c0.09,0.21,0.18,0.42-0.13,1.63l-0.05,0.26l-0.07,0.34c0,0.5,0.33,0.65,0.93,0.72c0.3,0.04,0.96,0.01,0.96,0.01
			c1.05-0.09,1.94-0.43,2.57-0.75c0.02-0.01,0.05-0.03,0.07-0.04c0.23-0.12,0.42-0.23,0.58-0.33l0.2-0.15
			c0.05-0.04,0.1-0.08,0.14-0.11c0.01-0.01,0.01,0,0.01,0c0.03-0.03,0.06-0.04,0.08-0.05c0,0.01-0.01,0.01-0.01,0.02
			c-0.01,0.02-0.02,0.04-0.04,0.07c-0.48,0.75-1.12,1.34-1.79,1.79c-0.26,0.17-0.52,0.33-0.78,0.46c-1.06,0.56-2,0.79-2.18,0.83
			c-0.14,0.11-0.24,0.26-0.23,0.54c0,0-0.03,0.37,0.28,0.63c0.15,0.1,0.27,0.22,0.34,0.34c0.23,0.32,0.2,0.67,0.14,0.92
			c-0.07,0.28-0.16,0.54-0.16,0.83c0,1.43,1.14,2.13,2.41,2.05c0.28-0.02,0.57-0.05,0.82-0.13l4.3-1.68
			c1.17-0.38,2.44,0.25,2.82,1.41l0.47,4.71c0,0.02,0.01,0.05,0.01,0.08l0.23,2.38h0.01c0.04,2.02,1.29,3.74,3.06,4.46
			c0.57,0.23,1.19,0.36,1.85,0.36c0.11,0,0.23,0,0.35-0.02c2.5-0.17,4.47-2.22,4.55-4.75h0.02v-2.29l0.02-11.57
			c4.38-2.33,7.36-6.96,7.36-12.27C1329.23,218.59,1323.1,213.11,1315.45,213.11z"/>
		<path class="st15" d="M1301.09,228.3c0.34-0.22,0.75-0.35,1.17-0.36c0.42-0.02,0.85,0.12,1.21,0.33c0.36,0.22,0.66,0.49,0.98,0.7
			c0.31,0.22,0.7,0.3,1.09,0.16c-0.17,0.1-0.37,0.18-0.59,0.19c-0.22,0.01-0.43-0.07-0.61-0.16c-0.38-0.19-0.67-0.46-1.01-0.64
			c-0.33-0.2-0.68-0.33-1.07-0.34C1301.88,228.15,1301.48,228.19,1301.09,228.3z"/>
		<ellipse class="st15" cx="1302.27" cy="229.05" rx="0.69" ry="1.05"/>
		<path class="st15" d="M1301.03,226.7c0.47-0.2,0.84-0.37,1.4-0.58c0.29-0.09,0.62-0.07,0.88,0.01l0.7,0.2l2.81,0.8l-2.89-0.37
			l-0.72-0.09c-0.21-0.03-0.39,0.02-0.55,0.1l-1.17,0.79l-0.01,0c-0.22,0.15-0.52,0.09-0.68-0.13s-0.09-0.52,0.13-0.68
			C1300.97,226.73,1301,226.71,1301.03,226.7z"/>
		<rect x="1312.01" y="252.3" class="st14" width="9.82" height="20.35"/>
		<g>
			<path class="st16" d="M1315.94,232.44l-1.56,0.74c-0.69,0.33-1.03,1.12-0.79,1.85l0.91,2.81c0,0-0.43-2.36-0.28-3.14
				c0.07-0.35,0.29-0.59,0.64-0.79c0.51-0.29,1.34-0.61,1.34-0.61L1315.94,232.44z"/>
			<path class="st16" d="M1333.14,225.21c0-8.28-7.05-14.16-15.89-14.16c-5.75,0-10.91,2.02-13.73,6.27c0,0,7.43,14.93,12.68,15.97
				l2.13-4.71c0,0,0.41,0,0.61,0c1.74,0,3.15,1.41,3.15,3.15c0,1.21-0.69,2.25-1.7,2.78l0,0.01c0,0-5.17,2.77-2.52,6.97l4,6.02
				l0.04-2.43c0,0-0.23-4.82,3.06-6.83c0.05-0.03,0.09-0.05,0.14-0.08c0.2-0.12,0.4-0.24,0.63-0.34l-0.01-0.01
				C1330.19,235.16,1333.14,230.51,1333.14,225.21z"/>
			<path class="st16" d="M1310.12,214.65c-1.31-1.17-2.97-1.85-4.75-1.85c-4.31,0-7.8,3.98-7.8,8.89c0,1.54,0.34,3,0.95,4.27
				c0.19-0.04,0.39-0.06,0.58-0.1c-0.15-1-0.34-2.58-0.04-4.03c0,0,0.4,2.54,0.81,3.89c0.64-0.09,1.3-0.15,1.97-0.16
				c-0.23-0.94-0.36-2.08,0-3.13c0,0,0.6,1.77,1.27,3.16c1.97,0.11,3.82,0.55,5.41,1.27c-0.92-1.47-1.47-3.26-1.47-5.18
				C1307.07,218.82,1308.27,216.27,1310.12,214.65z"/>
			<circle class="st16" cx="1335.47" cy="214.66" r="7.4"/>
			<path class="st16" d="M1332.3,218.24c0,0-2.3,2.93,0.84,5.96c3.13,3.03,2.27,6.34,0,8.89c-2.27,2.55-1.65,7.19,2.92,8.42
				c3.37,0.91,4.08,3.27,3.51,6.01c-0.57,2.74,0.64,3.12,3.3,0c2.66-3.12,3.02-7.57,1.61-9.67c-1.41-2.1,1.88-5.14,1.9-9.16
				c0.03-6.61-6.15-2.31-3.65-12.59c0.66-2.72-3.16-2.39-3.16-2.39L1332.3,218.24z"/>
		</g>
		<path class="st14" d="M1333.29,463.52c0,0.54-0.18,0.85-0.55,0.94c-0.15,0.04-0.31,0.05-0.47,0.05c-0.34,0-0.69-0.09-0.93-0.35
			c-0.09,0.25-0.27,0.4-0.51,0.46c-0.17,0.04-0.35,0.06-0.53,0.06c-0.41,0-0.83-0.12-1.1-0.46c-0.1,0.21-0.26,0.34-0.49,0.39
			c-0.14,0.04-0.28,0.05-0.42,0.05c-0.5,0-0.99-0.21-1.28-0.55c-0.16,0.3-0.46,0.51-0.83,0.53l-0.29,0.02
			c-0.55-0.01-0.98-0.21-1.22-0.56c-0.04-0.06-0.09-0.16-0.14-0.27c-0.16,0.37-0.56,0.7-0.92,0.8c-0.31,0.08-0.6,0.12-0.89,0.14
			v-0.01l-0.01,0.01c-0.06,0-0.12,0-0.18,0c-0.92,0-1.67-0.34-2.09-0.96c-0.17-0.25-0.43-0.96-0.67-1.64
			c-0.1-0.28-0.19-0.55-0.28-0.75c-0.23-0.59,0.16-1.79,0.41-2.45l1.05-4.12c0.05-0.18,1.45-7.94,2.19-12.02l6.74,0.15l0.19,0.03
			c-0.1,0.57-0.11,1.15-0.01,1.72l1,9.99c0.06,0.48,0.09,0.78,0.08,0.8l0.27,2.66l1.13,3.16L1333.29,463.52z"/>
		<g>
			<path class="st17" d="M1326.55,463.02c0.04,0.11-0.06,0.23-0.18,0.2l-1.29,0c-0.09,0.01-0.2-0.06-0.2-0.19l0-0.25
				c0-0.23,0.04-0.35,0.28-0.35l1,0.01c0.23,0,0.21,0.06,0.29,0.25L1326.55,463.02z"/>
			<path class="st17" d="M1328.69,463.03c0.04,0.11-0.06,0.23-0.17,0.2l-1.2,0c-0.08,0.01-0.19-0.06-0.19-0.19l0-0.25
				c0-0.23,0.04-0.35,0.26-0.35l0.93,0.01c0.21,0,0.19,0.06,0.27,0.25L1328.69,463.03z"/>
			<path class="st17" d="M1330.81,463.02c0.04,0.11-0.06,0.23-0.17,0.2l-1.2,0c-0.08,0.01-0.19-0.06-0.19-0.19l0-0.25
				c0-0.23,0.04-0.35,0.26-0.35l0.93,0.01c0.21,0,0.19,0.06,0.27,0.25L1330.81,463.02z"/>
			<path class="st17" d="M1332.7,463.02c0.03,0.1-0.05,0.2-0.15,0.18l-1.06,0c-0.07,0.01-0.17-0.05-0.17-0.17l0-0.22
				c0-0.21,0.04-0.31,0.23-0.31l0.82,0.01c0.19,0,0.17,0.05,0.24,0.22L1332.7,463.02z"/>
			<path class="st17" d="M1320.95,461.75c0.1,0.29,0.45,1.26,0.56,1.57c0.04,0.12,0.2,0.19,0.34,0.14c0.25-0.08,0.65-0.19,1.14-0.19
				c0.26,0,0.48,0.03,0.65,0.06c0.19,0.04,0.36-0.11,0.29-0.27l-0.64-1.53c-0.03-0.08-0.11-0.13-0.21-0.14
				c-0.21-0.02-0.58-0.05-0.9-0.03c-0.3,0.01-0.76,0.09-1.04,0.14C1320.99,461.52,1320.91,461.64,1320.95,461.75z"/>
		</g>
		<path class="st14" d="M1311.14,453.8c-0.1,2.22-1.07,2.88-2.4,3.33c-0.58,0.2-1.82,0.37-3.33,0.02c-1.16-0.27-2.09-0.96-3.72-1.01
			c-2.71-0.09-2.76,0.72-5.68,1.17c-3.65,0.56-11.64-0.09-11.64-0.09c-1.74-0.27-1.61-1.93-1.59-2.31c0.02-0.2,0.26-0.62,0.36-0.62
			c0,0,0.32,0.01,0.81,0.01c-0.04-0.15-0.03-0.33-0.01-0.43c0.04-0.22,0.19-0.37,0.19-0.37l0.11,0.01h0.15c0-0.04,0-0.08,0.01-0.11
			c0.04-0.23,0.19-0.37,0.19-0.37h0.08l0.5,0.01v-0.2c0.01-0.09,0.09-0.16,0.18-0.16l0.32,0.04c0.06-0.2,0.18-0.37,0.18-0.37h0.09
			l0.78,0.02c0.01,0,0.02,0,0.02,0.01h0.01c0.12,0,0.23,0.01,0.35,0.01c0.98,0,2.22-0.14,3.33-0.4c6.51-0.78,11.85-6.14,11.85-12.52
			c0-0.11,0.02-0.75,0.01-0.88h7.12c-0.18,7.52,0.61,10.17,1.18,12C1310.93,451.69,1311.2,452.48,1311.14,453.8z"/>
		<g>
			<path class="st17" d="M1285.01,455.33l0.02-0.74c0-0.16-0.12-0.29-0.28-0.29l-1.6-0.04c-0.16,0-0.29,0.12-0.29,0.28l-0.01,0.23
				c-0.01,0.44,0.33,0.8,0.77,0.81l1.09,0.03C1284.87,455.61,1285,455.49,1285.01,455.33z"/>
			<path class="st17" d="M1285.11,453.82l0.01-0.22c0-0.05-0.04-0.1-0.09-0.1l-0.88-0.02c-0.11,0-0.21,0.09-0.21,0.2l0,0.13
				c-0.01,0.22,0.17,0.4,0.38,0.4l0.37,0.01C1284.92,454.22,1285.11,454.04,1285.11,453.82z"/>
			<path class="st17" d="M1285.55,453.51l0.01-0.39c0-0.05-0.03-0.1-0.08-0.1l-0.93-0.02c-0.09,0-0.17,0.08-0.18,0.2l-0.01,0.28
				L1285.55,453.51z"/>
			<path class="st17" d="M1286.21,453.03l0.02-0.28c0-0.05-0.03-0.08-0.08-0.08l-0.93-0.02c-0.09,0-0.17,0.07-0.18,0.17l-0.01,0.2
				L1286.21,453.03z"/>
			<path class="st17" d="M1286.67,452.67l0.01-0.25c0-0.05-0.03-0.08-0.07-0.08l-0.79-0.02c-0.08,0-0.15,0.07-0.15,0.17l0,0.16
				L1286.67,452.67z"/>
		</g>
		<path class="st14" d="M1327.01,448.71l-1.26-0.04c-1.59-0.05-2.84-1.38-2.79-2.97l0.29-8.98c0.05-1.59,1.38-2.84,2.97-2.79
			l1.26,0.04c1.59,0.05,2.84,1.38,2.79,2.97l-0.29,8.98C1329.93,447.51,1328.6,448.76,1327.01,448.71z"/>
		<path class="st18" d="M1332.77,385.14c-0.33,3.49-0.19,7.65,0.13,11.13l0.2,2.32c0.41,4.48,0.44,8.01-0.14,12.48l-2.74,27.54
			h-7.03l-2.48-26.49c-0.65-4.46-0.94-7.94-0.62-12.42l0.17-2.32c0.25-3.49-0.29-8.83-0.69-12.32c0,0-1.88-20.74-4.01-36.43
			c-2.46,10.24-4.34,22.68-5.47,27.98c-0.01,0.01-0.56,2.64-0.76,3.62c-0.02,0.12-0.04,0.2-0.06,0.26c0,0.01,0,0.01,0,0.01
			c-0.01,0.07-0.02,0.11-0.02,0.11c-0.02,0.09-0.03,0.15-0.05,0.21c0,0.03,0,0.05-0.01,0.08c-1.32,7.4,1.14,4.5,1.07,18.73
			l-0.85,38.98h-7.12l-8.33-52.17c-0.11-0.59-0.15-1.2-0.13-1.81c0.24-6.94,7.45-69.22,9.67-88.29c0.06-0.44,0.11-0.87,0.15-1.27
			c0.31-2.71,0.49-4.25,0.49-4.25c0.02-0.12,20.82-0.81,20.82-0.81c0.26,1.96,0.59,3.73,0.97,5.33c0.4,1.71,0.86,3.24,1.36,4.63
			c3.46,9.78,8.68,13.04,8.34,27.96C1335.05,353.95,1332.77,385.14,1332.77,385.14z"/>
		<g>
			<path class="st14" d="M1279.87,233.49l-0.3-7.48c-0.09-0.1-0.28-0.12-0.39-0.12c-0.45-0.03-0.78,0.58-0.91,1.73
				c-0.06,0.49-0.54,8.87-0.54,8.87L1279.87,233.49z"/>
			<path class="st14" d="M1281.57,234.05l-0.21-9.41c-0.09-0.1-0.28-0.11-0.39-0.12c-0.45-0.03-0.78,0.59-0.9,1.74
				c-0.05,0.49-0.47,8.87-0.47,8.87L1281.57,234.05z"/>
			<path class="st14" d="M1283.46,234.78l-0.34-8.07c-0.09-0.11-0.27-0.12-0.39-0.14c-0.45-0.05-0.8,0.56-0.97,1.7
				c-0.07,0.49-0.43,8.74-0.43,8.74L1283.46,234.78z"/>
			<path class="st14" d="M1278.37,235.19l-0.44-6.3c-0.07-0.08-0.22-0.09-0.31-0.1c-0.36-0.03-0.77,0.55-0.88,1.47
				c-0.05,0.4-0.16,5.12-0.16,5.12l-0.79,4.21L1278.37,235.19z"/>
			<path class="st14" d="M1275.82,248.76l3.03-2.25c0.23-0.14,0.7-0.82,0.65-1.47c-0.07-1.02,0.23-3.78,0.91-3.73
				c2.19,0.15,1.94-2.54,2.27-3.25c0.88-1.92,3.39-1.67,3.22-1.17c-0.02,0.06-2.04,2.84-2.25,3.59c-0.86,3.07-1.14,2.3-2.5,5.6
				c-0.33,0.81-0.47,2.47-0.53,3.62"/>
			<path class="st14" d="M1280.64,249.38l-1.66-0.26c1.24-2.36,3.18-6.55,3.24-6.67c0.08-0.16,1.23-7.66,1.23-7.66l-3.24-1.77
				l-3.57,2.56l-0.94,3.63c0,0-0.2,0.85-0.35,2.23c-0.12,1.09-0.08,2.21,0.14,3.29c0.2,0.98,0.41,2.45,0.33,4.04c-0.15,2.77,0,0,0,0
				l-3.51,34c-0.41,2.98,1.32,5.63,3.83,5.84c2.31,0.2,4.46-1.76,4.93-4.5L1280.64,249.38z"/>
		</g>
		<path class="st19" d="M1268.64,290.44l3.33-21.5c0.06-0.38,0.38-0.65,0.76-0.65h9.18c0.35,0,0.66,0.24,0.75,0.58l5.84,22.57
			l-10.18,8.73l-8.45-6.41C1268.91,292.95,1268.44,291.69,1268.64,290.44z"/>
		<path class="st19" d="M1314.35,278.71l-4.7-11.85c-0.14-0.35-0.14-0.74,0.01-1.09l2.05-4.84c0.27-0.64,0.05-1.38-0.53-1.76
			c-1.65-1.1-3.97-2.58-6-3.59l-0.3-0.77c-0.08-0.18-0.41-0.07-0.88,0.22c-1.16-0.48-2.15-0.72-2.73-0.51
			c-2.31,0.85-26.09,31.87-30.76,37.97c-0.45,0.59-0.38,1.42,0.17,1.93l6.53,6.09c0.61,0.57,1.57,0.5,2.1-0.14l16.98-20.61
			c0.16-0.2,0.29-0.43,0.34-0.68c0.75-4.08,6.97,7.25,8.49,10.09c0.23,0.43,0.66,0.75,1.16,0.76c0.83,0.01,1.63-0.35,2.19-0.99
			l5.18-6.01C1314.64,281.76,1314.91,280.14,1314.35,278.71z"/>
		<path class="st20" d="M1301.11,254.56l-12.98,34.57l-8.83,11.22c0,0,22.45-21.31,22.59-21.57
			C1302.03,278.52,1301.11,254.56,1301.11,254.56z"/>
		<path class="st21" d="M1312.61,255.72c0,0.01,0.01,0.02,0.02,0.03l0,0L1312.61,255.72z"/>
		<path class="st21" d="M1312.36,254.98l0.25,0.74C1312.51,255.49,1312.43,255.25,1312.36,254.98z"/>
		<path class="st19" d="M1302.26,295.33c-3.16-9.49-2.72-14.12-2.58-24.87c0.09-7.08,1.43-15.9,1.43-15.9l10.66-4.65
			c0,0.02,0.43,4.3,0.59,5.02l0.01,0.05c0.07,0.28,0.16,0.54,0.27,0.77c0.03,0.07,0.06,0.14,0.1,0.19c0.06,0.13,0.14,0.24,0.24,0.35
			c0.04,0.05,0.08,0.1,0.13,0.14c0.08,0.09,0.16,0.15,0.25,0.21c0.13,0.1,0.28,0.17,0.45,0.24l1.04,14.01l0.04-0.34l0.03-0.25
			l0.06-0.49l0.07-0.6l0.57-4.92c0.03-0.29,0.07-0.58,0.1-0.87l0.11-0.96l0.07-0.61l0.07-0.61l0.07-0.57l0.4-3.45
			c0.48,0,0.93-0.01,1.35-0.11c3.04-0.68,3.99-2.48,4.06-4.7c0,0,0.02-2.74,0.02-2.77l14.21,5.51c0.03,1.15-6.47,40.17-6.47,40.17
			H1302.26z"/>
		<path class="st20" d="M1323.02,295.3c0,0,4.63-31.79,5.48-34.87c0.85-3.09,3.64-7,7.9-5.07l-6.81,39.98L1323.02,295.3z"/>
		<path class="st14" d="M1351.39,346.2c-0.02-0.12-0.05-0.24-0.07-0.36c-0.29-2.4-1.53-7.86-1.53-7.86l-0.97-39.22
			c-0.23-3.27-2.68-5.7-5.4-5.36c-2.5,0.31-4.35,2.88-4.24,5.9l5.24,36.34l0,0c0,0,0,0,0,0l0.27,1.87l0.02,0
			c0.46,3.44,0.17,4.91-0.33,5.37c-0.46,0.42-0.73,1.01-0.74,1.63c-0.01,0.67-0.02,1.5-0.01,1.97c0.04,1.41-0.85,4.09-1.46,5.77
			c-0.32,0.88-0.57,1.48-0.57,1.48c0,0,0,0,0,0v0c-0.06,0.19,0.01,0.39,0.19,0.49c0.5,0.31,1.72-0.44,2.2-1.16c0,0,0,0,0,0
			c0,0,0,0,0,0c0.01-0.02,0.02-0.04,0.04-0.06c0.15-0.23,0.32-0.55,0.5-0.93c0.33-0.59,0.63-1.25,0.91-1.93
			c-0.02,1.57-0.26,3.89-0.3,4.2l-0.1,0.03l-1.63,1.82c0,0-1.68,0.12-1.88,1.13l0,0.07c-0.46,0.2-0.94,0.75-0.82,1.19l0.13-0.02
			c-0.07,0.07-0.15,0.14-0.21,0.21c-0.27,0.31-0.37,0.72-0.3,1.13c0.05,0.11,0.19,0.16,0.3,0.11l0.99-0.38l0.11-0.05
			c-0.25,0.33-0.45,0.69-0.44,0.95c0,0.07,0.02,0.13,0.05,0.17c0.08,0.13,0.25,0.17,0.38,0.1l7.33-3.89
			c0.05-0.03,0.11-0.07,0.16-0.14C1350.05,355.75,1351.59,347.32,1351.39,346.2z"/>
		<path class="st14" d="M1345.39,348.98l-0.13-0.28C1345.32,348.71,1345.36,348.81,1345.39,348.98z"/>
		<path class="st19" d="M1350.87,332.04l-8.51,0.46c-0.52,0.03-0.99-0.29-1.16-0.78l-6.93-20.46c-0.24-0.7-0.4-1.41-0.5-2.13
			c-0.81-6.25-4.82-37.46-4.82-42.43c0-2.45-0.09-6.03,1.42-8.7c0.35-0.62,0.8-1.2,1.38-1.69c0.81-0.71,1.14-0.97,2.53-1.29
			c0.78-0.18,2.03-0.07,2.65,0.89l16.53,50.33c0.33,1,0.45,2.05,0.36,3.09l-1.87,21.67
			C1351.91,331.56,1351.45,332.01,1350.87,332.04z"/>
		<path class="st22" d="M1315.63,348.74c-2.46,10.24-5.66,29.96-6.79,35.27c-0.01,0.01,1.54-23.46,1.61-24.5
			c1.05-14.72,1.43-22.99-1.97-31.88l-2.42-5.3C1311.31,327.34,1314.17,334.37,1315.63,348.74z"/>
		<path class="st22" d="M1327.31,299.96L1327.31,299.96l-23.8-3.62v-1.27h0.15l22.28,0.26
			C1326.34,297.04,1326.81,298.57,1327.31,299.96z"/>
		<path class="st23" d="M1305.39,237.09c-0.38,0.56-1.01,2-2.45,3.4c-0.79,0.77-2.15,1.04-2.3,0.94c-0.31-0.26-0.28-0.63-0.28-0.63
			c-0.01-0.28,0.09-0.43,0.23-0.54c0.18-0.04,1.12-0.27,2.18-0.83c0.26-0.13,0.52-0.29,0.78-0.46
			C1304.22,238.52,1304.88,237.84,1305.39,237.09z"/>
		<path class="st23" d="M1305.3,237.14c0.01-0.01,0.01,0,0.01,0l-0.15,0.11l-0.2,0.15c-0.16,0.1-0.35,0.21-0.58,0.33
			c-0.02,0.01-0.05,0.03-0.07,0.04c-0.63,0.32-1.52,0.66-2.57,0.75c0,0-0.66,0.03-0.96-0.01c-0.6-0.07-0.93-0.22-0.93-0.72
			l0.07-0.34c0.34-0.05,0.69-0.12,1.35,0.16C1302.89,238.28,1304.74,237.41,1305.3,237.14z"/>
		<g>
			<g>
				<path class="st18" d="M1230.15,347.3v2.61c0-2.04-1.85-3.69-4.13-3.69H1094.5c-2.28,0-4.12,1.65-4.12,3.69v-2.61
					c0-1.25,0.57-2.45,1.59-3.31l1.31-1.1l0.79-0.67l0.14-0.12l1.15-0.98l1.04-0.88c0.95-0.8,2.2-1.25,3.51-1.25h120.7
					c1.31,0,2.56,0.45,3.51,1.25l1.04,0.88l1.15,0.98l0.14,0.12l0.79,0.67l1.31,1.1C1229.57,344.85,1230.15,346.05,1230.15,347.3z"
					/>
				<path class="st24" d="M1230.15,349.91v85.42c0,4.74-3.07,8.59-6.86,8.59h-126.06c-3.78,0-6.85-3.85-6.85-8.59v-85.42
					c0-2.85,1.84-5.16,4.12-5.16h131.52C1228.3,344.75,1230.15,347.06,1230.15,349.91z"/>
				<polygon class="st24" points="1226.45,342.22 1093.96,342.22 1095.36,341.12 1225.16,341.12 1226.31,342.1 				"/>
				<polygon class="st24" points="1207.23,342.22 1165.13,271.62 1163,272.88 1204.59,342.22 				"/>
				<polygon class="st22" points="1230.15,356.93 1230.15,383.07 1090.38,412.16 1090.38,401.16 				"/>
				<polygon class="st22" points="1230.15,388.73 1230.15,403.48 1150.87,420.25 1150.87,414.02 				"/>
			</g>
			<path class="st14" d="M1181.33,312.02l-38.36-4.49c-3.02-0.03-5.54,1.92-5.78,4.48l0,0c-0.26,2.77,2.24,5.19,5.52,5.33
				l39.24-0.16"/>
			<path class="st14" d="M1139.38,316.28c2.19,1.7,5.55,0.81,7.4-1.96l21.02-31.39c1.97-3.08-9.37-5.07-11.34-1.99l-17.78,27.95
				C1137.06,311.49,1137.36,314.71,1139.38,316.28L1139.38,316.28z"/>
			<path d="M1157.51,304.28c-1.6-0.03-5.86-0.03-8.4,0.05c-0.81,0.02-0.8,0.11-1.28-0.53l-6.08-8.35c-0.34-0.45-0.35-0.66-0.04-1.14
				l15.83-19.92c0.43-0.66,5.03-2.89,7.7-1.43c1.74,0.95,2.93,2.54,3.43,4.33c0.46,1.64,0.34,3.46-0.48,5.13l-9.51,21.24
				C1158.48,304.1,1158.21,304.29,1157.51,304.28z"/>
			<path class="st14" d="M1134.85,471.71l-1.07-0.73c-1.63-1.11-2.1-3.4-1.05-5.12l5.64-9.22c1.05-1.72,3.22-2.21,4.85-1.1
				l1.07,0.73c1.63,1.11,2.1,3.4,1.05,5.12l-5.64,9.22C1138.65,472.33,1136.48,472.82,1134.85,471.71z"/>
			<path class="st25" d="M1181.59,354.86l-8.14,40.07l-14.03,53.13l-4.68,17.7c-0.19,0.75-0.9,1.23-1.65,1.14l-4.16-0.52l-1.33-0.17
				l-0.63-0.08c-0.69-0.09-1.32-0.42-1.8-0.93l-0.18-0.2l-2.53-2.76c-0.69-0.75-1.59-1.24-2.57-1.41l-6.26-1.07
				c-0.68-0.11-1.28-0.5-1.67-1.07l-1.48-2.19c-0.27-0.39-0.31-0.89-0.11-1.33l12.72-27.36c6.51-18.86,11.88-29.73,12.67-44.06
				c0.27-4.85,0.36-9.71,0.35-14.17c-0.02-11.28-0.65-20.09-0.65-20.09c0.4-8.21,1.49-12.72,6.48-20.83l7.36-15.52l11.12-0.08
				l-4.71,8.76l4.07,23.92L1181.59,354.86z"/>
			<path class="st26" d="M1181.59,354.86l-8.14,40.07l-14.03,53.13l-4.68,17.7c-0.19,0.75-0.9,1.23-1.65,1.14l-4.16-0.52l-1.33-0.17
				c2.63-6.63,10.83-28.08,16.32-51.13c3.24-13.61,0.13-26.53-1.32-31.54c-1.65-5.69-4.26-11.82-5.35-18.78
				c-0.02-11.28-1.79-15.26-1.79-15.26c0.4-8.21,1.49-12.72,6.48-20.83l7.36-15.52l11.12-0.08l-1.39,5.65l0.97,18.75L1181.59,354.86
				z"/>
			<path class="st14" d="M1171.88,480.26h-1.49c-1.88,0-3.4-1.52-3.4-3.4V465.3c0-1.88,1.52-3.4,3.4-3.4h1.49
				c1.88,0,3.4,1.52,3.4,3.4v11.56C1175.28,478.74,1173.76,480.26,1171.88,480.26z"/>
			<g>
				<path class="st16" d="M1143.08,471.67l8.39,2.5c2.81,0.79,4.76,3.47,4.76,6.54v0.71h-15.81"/>
				<path class="st16" d="M1140.42,481.42l-13.08-9.96l1.49-2.44c0.8-1.31,1.92-2.38,3.24-3.09l0.93-0.51l2.82,1.92
					c0.78,0.53,1.78,0.52,2.55-0.02l1.45-1.02l4.2,0.82c0.48,0.09,0.84,0.5,0.91,1l0.29,2.09c0.09,0.63,0.35,1.22,0.76,1.69
					l1.22,1.46"/>
				<path class="st16" d="M1178.4,471.49l1.32,1.59c0.4,0.48,0.92,0.83,1.51,0.99l10.16,3.03c2.81,0.79,4.76,3.47,4.76,6.54v0.71
					h-30.82v-2.91c0-1.56,0.39-3.09,1.13-4.44l0.53-0.96h3.36c0.93,0,1.76-0.58,2.13-1.48l0.69-1.69l3.95-1.71
					C1177.56,470.97,1178.08,471.1,1178.4,471.49z"/>
			</g>
			<path class="st25" d="M1188.48,397.34c0,0-2.21,62.89-2.5,71.36c-0.02,0.49-0.48,0.8-0.93,0.66l-2.15-0.7
				c-0.85-0.28-1.77-0.24-2.59,0.1l-8.09,3.35c-0.69,0.29-1.47,0.25-2.13-0.1l-3.53-2.21c-1.07-0.58-1.64-1.16-2.8-1.12l-3.58,0.03
				c-1.02,0.07-1.53-0.51-1.42-1.33l9.31-59.77c1.83-13.17-2.21-19.33-3.8-24.24c-3.03-9.35-12.73-27.37-13.34-36.06
				c-0.16-2.23,0-4.08,0.31-5.71c0.08-0.43,0.17-0.85,0.27-1.25c0.21-0.85,0.45-1.65,0.7-2.42c3.01-9.31,5.35-12.52,7.77-17.33
				l5.57-8.62l13.46,6.74l2.33,19.22l0.39,3.27l0.61,5.01L1188.48,397.34z"/>
			<path class="st26" d="M1182.34,346.22c-17.72,2.28-31.1-4.62-31.1-4.62c0.08-0.43,0.17-0.85,0.27-1.25l0.01-0.01l30.21,0.87
				L1182.34,346.22z"/>
			<polygon class="st24" points="1118.96,341.67 1160.86,271.62 1163,272.88 1121.6,341.67 			"/>
			<path class="st27" d="M1187.38,298.35c-0.17,0.6-0.65,2.11-1.2,3.82h-0.01c-2.55,6.68-4.5,13.82-4.58,20.98
				c-0.1,8.99,1.66,14.53,2.29,16.21c0.13,0.34,0,0.71-0.31,0.9c-1.52,0.93-6.41,3.35-16.04,3.17c-9.03-0.17-18.21-3.04-18.42-5.35
				c0,0,7.25-19.25,6.16-25.65s-2.06-9.67-2.06-18.53c0-12.1,2.14-17.43,7.61-24.8c0.14-0.19,0.38-0.3,0.62-0.27l11.03,1.32
				c0.4,0.05,0.76,0.27,0.99,0.61l12.6,19.14C1188.22,292.73,1187.96,296.2,1187.38,298.35z"/>
			<path d="M1184.2,304.51c0,0-4.01,8.89-4.05,10.66l-2.19-3.02c-0.42-0.43-1-0.64-1.59-0.57l-3.54,0.39
				c-0.48,0.05-0.93-0.18-1.18-0.58l-14.27-26.47l12.35-7.11l7.04,19.53c0.36,0.38,4.31,2.54,4.19,3.05
				C1180.32,303.16,1183.51,307.8,1184.2,304.51z"/>
			<path d="M1182.49,303.34c-0.41,0.7-1.08,1.2-1.87,1.37l-8.02,1.35c-0.55,0.12-0.74,0.04-1.06-0.43l-12.99-19.59
				c-0.43-0.67-0.73-1.39-0.93-2.12l-0.01-0.01c-0.73-2.83,0.25-5.95,2.69-7.78c1.59-1.2,3.24-1.58,5.27-1.22
				c1.68,0.3,3.23,1.74,4.41,3.18l10.75,17.88C1181.06,296.33,1183.61,301.42,1182.49,303.34z"/>
			<path class="st14" d="M1204.09,276.34l-0.03-1.51c0.11-1.71-0.08-2.53-1-4.15c-0.77-1.38-1.83-2.9-2.68-4.18
				c0.04-2.13,0.11-6.17,0.1-6.56c-0.05-1.24-0.92-1.39-1.31-1.34c-0.1,0.01-0.26,0.03-0.35,0.15l-0.38,4.83l-0.02-0.01
				c0.01-1.21,0.05-7.14,0.03-7.64c-0.07-1.3-0.83-1.88-1.25-1.82c-0.11,0.01-0.28,0.04-0.37,0.16l-0.22,3.29
				c-0.15-1.99-0.3-3.87-0.34-4.12c-0.22-1.24-0.87-1.82-1.36-1.75c-0.12,0.02-0.32,0.04-0.42,0.16l0.13,2.39
				c-0.59-0.76-1.31-0.56-1.31-0.56l0.88,9.67c-0.01,1.42-0.08,1.49,0.28,2.33l2.3,4.23c1.08,2.35,2.55,4.19,2.52,4.85
				c-0.08,1.75-2.99,19.02-5.24,29.89l-24.1-26.19c-2.82-2.88-7.03-3.28-9.4-0.89c-2.37,2.39-1.99,6.67,0.83,9.56
				c0,0,30.19,28.91,31.11,29.57c3.55,3.2,7.7,2.51,8.55-4.26C1201.77,306.48,1204.09,276.34,1204.09,276.34z"/>
			<path class="st27" d="M1186.48,295.55c-0.4,1.98-1.51,5.16-2.28,7.31c-0.18,0.49-0.71,0.77-1.21,0.91l-9.49,2.7
				c-0.1,0.03-0.21-0.01-0.27-0.09l-14.43-19.21c-0.46-0.64-0.81-1.34-1.05-2.06l-0.01-0.01c-0.9-2.78-0.1-5.95,2.22-7.93
				c1.51-1.29,3.42-1.84,5.27-1.67c1.69,0.16,3.36,0.91,4.62,2.28l16.46,16.45C1186.65,294.58,1186.62,294.87,1186.48,295.55z"/>
			<ellipse class="st28" cx="1173.67" cy="244.8" rx="11.74" ry="11.94"/>
			<polyline class="st16" points="1168.15,242.23 1168.15,265.25 1185.33,265.25 1185.38,244.08 			"/>
			<path class="st14" d="M1186.07,250.53l-2.33-4.03c-0.27-0.41-0.36-0.91-0.3-1.41c0.66-5.67-0.92-6.08-2.48-8.76
				c0.02-0.07,0.02-0.12,0.02-0.12c-2.46-4-6.93-5.92-11.93-5.92c-7.66,0-13.79,5.56-13.79,13.37c0,5.16,2.74,9.7,6.81,12.15
				c0.34,0.21,0.56,0.56,0.58,0.95l0.33,8.35c0,0.08,0,0.16-0.01,0.24l-0.59,3.58c-0.08,0.47,0.13,0.93,0.54,1.18
				c0.75,0.47,2.23,1.12,4.88,1.39c5.54,0.56,4.69-1.33,4.69-1.33l0,0l0.23-2.42c0-0.03,0.01-0.06,0.01-0.08l0.4-4.17
				c0.18-1.02,1.41-1.82,2.58-1.43c0,0,6.24,2.46,7.38-1.06c0.2-0.62,0.15-1.05,0.07-1.56c-0.12-0.85-0.09-1.43,0.41-1.87l0.1-0.11
				c0.01-0.01,0.03-0.03,0.04-0.04c0.1-0.11,0.19-0.26,0.23-0.4c0.05-0.12,0.08-0.25,0.08-0.38c0.01-0.25-0.05-0.46-0.2-0.59
				c0,0-0.27,0-0.48,0c0.05-0.01,0.1-0.03,0.15-0.06c0.06-0.01,0.12-0.04,0.17-0.07c0.03,0,0.07-0.02,0.1-0.05
				c0.35-0.19,0.69-0.47,0.69-0.77v-0.37c-0.01-0.15-0.05-0.22-0.11-0.28c-0.04-0.04-0.1-0.09-0.16-0.15l-0.34-0.79
				c-0.04-0.48-0.01-0.67-0.01-0.85v-0.24c0-0.13,0.09-0.24,0.24-0.32l1.71-0.53C1186.2,251.45,1186.31,250.91,1186.07,250.53z"/>
			<path class="st16" d="M1151.37,243.08c0-8.23,6.89-14.08,15.54-14.08c5.81,0,12.43,3.09,14.44,7.95c0,0-8.29,13.13-13.41,14.17
				l-1.26-2.85c-0.7-1.76-2.64-2-3.79-0.84c-0.46,0.46-0.91,1.2-0.85,2.2c0.07,1.2,0.82,2.18,1.8,2.7l0,0.01
				c0,0,5.06,2.75,2.46,6.93l-3.91,5.98l-0.04-2.42c0,0,0.22-4.79-2.99-6.78c-0.05-0.03-0.09-0.05-0.14-0.08
				c-0.2-0.12-0.4-0.24-0.61-0.34l0.01-0.01C1154.25,252.97,1151.37,248.35,1151.37,243.08z"/>
			<path class="st16" d="M1151.39,242.23v23.02h17.18c0,0-0.35-8.76-2.51-10.95"/>
			<path class="st15" d="M1182.24,244.59l-1.4-0.07c-0.45-0.02-0.98-0.05-1.35-0.06c-0.39,0.01-0.78,0.14-1.11,0.37
				c-0.17,0.11-0.32,0.25-0.46,0.41l-0.45,0.53c-0.09,0.1-0.24,0.12-0.34,0.03c-0.09-0.08-0.11-0.21-0.05-0.32l0.37-0.59
				c0.14-0.22,0.31-0.42,0.5-0.6c0.39-0.36,0.89-0.6,1.43-0.7c0.55-0.08,0.95-0.09,1.44-0.14l1.39-0.13
				c0.35-0.03,0.65,0.22,0.68,0.57s-0.22,0.65-0.57,0.68C1182.3,244.59,1182.27,244.59,1182.24,244.59z"/>
			<ellipse class="st15" cx="1180.96" cy="246.55" rx="0.69" ry="1.07"/>
			<path class="st15" d="M1182.68,245.41c-0.37,0.09-0.74,0.16-1.11,0.22c-0.38,0.05-0.73,0.09-1.07,0.22
				c-0.35,0.1-0.66,0.28-0.98,0.48c-0.32,0.2-0.65,0.38-0.99,0.55c0.57-0.5,1.12-1.03,1.87-1.31c0.37-0.12,0.77-0.16,1.14-0.17
				C1181.92,245.38,1182.3,245.39,1182.68,245.41z"/>
			<path class="st29" d="M1185.14,248.92c0,0-0.69,2.56-8.38,3.83l-4.05,0.95l3,8.39l3.26,1.27c2.23,0.87,4.26,0.41,5.33-2.19
				l2.76-6.46c0.54-1.17,0.58-1.83,0.08-2.64L1185.14,248.92z"/>
			<polygon class="st29" points="1172.87,254.13 1167.93,251.11 1168.58,250.92 1173.11,253.61 			"/>
		</g>
	</g>
</g>
<g id="Layer_4">
</g>
<g id="Layer_3">
</g>
<g id="Layer_5">
</g>
<g id="Layer_6">
</g>
<g id="Layer_7">
</g>
<g id="Layer_8">
</g>
</svg>
