<svg xmlns="http://www.w3.org/2000/svg" xmlns:xlink="http://www.w3.org/1999/xlink" viewBox="0 0 436.38 368.01"><defs><style>.cls-1{fill:none;}.cls-2{fill:#ef8299;opacity:0.6;}.cls-17,.cls-2,.cls-21,.cls-3{isolation:isolate;}.cls-3{fill:#f6ccc8;}.cls-17,.cls-3{opacity:0.8;}.cls-4{fill:#d00078;}.cls-21,.cls-5{fill:#fff2e3;}.cls-17,.cls-6{fill:#ffd7d2;}.cls-7{fill:#f6926a;}.cls-8{fill:#f4a31b;}.cls-9{fill:#fabda5;}.cls-10{clip-path:url(#clip-path);}.cls-11{fill:#fce1e2;}.cls-12{fill:#f4f0ef;}.cls-13{fill:#156a41;}.cls-14{fill:#06c167;}.cls-15{fill:#331a1e;}.cls-16{fill:#e08b70;}.cls-18{opacity:0.9;}.cls-19{clip-path:url(#clip-path-2);}.cls-20{clip-path:url(#clip-path-3);}.cls-21{opacity:0.5;}</style><clipPath id="clip-path"><path class="cls-1" d="M240.85,259.67H170.34a3.82,3.82,0,0,1-3.82-3.82V196.56a3.82,3.82,0,0,1,3.82-3.82h70.51a3.82,3.82,0,0,1,3.82,3.82v59.29A3.83,3.83,0,0,1,240.85,259.67Z"/></clipPath><clipPath id="clip-path-2"><path class="cls-1" d="M240.36,176.19H168.91a3.37,3.37,0,0,1-3.37-3.37V113.36a3.37,3.37,0,0,1,3.37-3.37h71.45a3.37,3.37,0,0,1,3.37,3.37v59.46A3.37,3.37,0,0,1,240.36,176.19Z"/></clipPath><clipPath id="clip-path-3"><path class="cls-1" d="M243.66,145.16V164a34.46,34.46,0,0,1-18.8,6H165.52V141.34h59.34L237.93,140l.62,0h0A5.21,5.21,0,0,1,243.66,145.16Z"/></clipPath></defs><title>homepage_1</title><g id="Layer_2" data-name="Layer 2"><g id="Layer_1-2" data-name="Layer 1"><g id="Layer_4" data-name="Layer 4"><path class="cls-2" d="M358.92,144.14c-.12.53-.24,1.07-.37,1.6a228.33,228.33,0,0,1-16.81,47.47C330.15,217,313.83,238.63,291.64,256c0,0-100.46,76.72-178-25.62-19.77-26.1-41.44-57.79-48.59-87.86-6.37-26.7-.62-52.34,18.15-68.13,13-10.9,27.5-14.09,43.36-15.18,6.24-.43,12.69-.53,19.32-.64H146c13-.22,26.73-.51,41-3.45,18.5-3.8,38-12,58.13-30.28C296.88-22,363.4.58,366,65.94c.12,3.08.21,6.19.24,9.32A293.79,293.79,0,0,1,358.92,144.14Z"/><path class="cls-3" d="M419.81,294.52c-15,17-52.1,37.47-100.84,52.45a481,481,0,0,1-69,15.69c-42.77,6.49-89.58,7.74-136,0C52,352.28,0,314.08,0,254.16c0-46.22,30.37-85.64,73.18-101.28,2-.72,4-1.4,6-2a120,120,0,0,1,30.29-5.09c1.5-.05,3-.09,4.52-.09,27.14,0,46.77,4.29,62.46,10.81,2,.83,3.95,1.69,5.82,2.6l.06,0c2.17,1,4.26,2.11,6.3,3.22,14.4,7.91,25.56,17.55,37.53,26.46,12.75,9.5,26.43,18.15,45.91,23,17.75,4.39,40.32,5.58,71.41,1.32,9.51-1.29,19.81-3.11,31-5.49C423.26,197.21,458.68,250.33,419.81,294.52Z"/><path class="cls-4" d="M257.18,84H155.31A11.93,11.93,0,0,0,144,92a11.29,11.29,0,0,0-.63,3.74V302.85a11.83,11.83,0,0,0,12,11.69H257.18a12.1,12.1,0,0,0,7.45-2.54,11.54,11.54,0,0,0,4.52-9.15V95.71A11.82,11.82,0,0,0,257.18,84Zm4.45,209.37a5.74,5.74,0,0,1-5.74,5.74h-99.6a5.74,5.74,0,0,1-5.74-5.74V99.63a5.74,5.74,0,0,1,5.74-5.74h99.6a5.74,5.74,0,0,1,5.74,5.74Z"/><path class="cls-5" d="M191.19,90.27h31.24a1.08,1.08,0,0,0,1.08-1.08h0a1.08,1.08,0,0,0-1.08-1.08H191.19a1.08,1.08,0,0,0-1.08,1.08h0A1.1,1.1,0,0,0,191.19,90.27Z"/><path class="cls-5" d="M156.14,298.87h99.6a5.74,5.74,0,0,0,5.74-5.74V99.36a5.74,5.74,0,0,0-5.74-5.74h-99.6a5.74,5.74,0,0,0-5.74,5.74V293.13A5.74,5.74,0,0,0,156.14,298.87Z"/><path class="cls-2" d="M167.4,245l-.87,1.59v-2.29Z"/><path class="cls-6" d="M244.66,196.57v56h-58.6a35.65,35.65,0,0,1-19.53-8.28V196.57a3.81,3.81,0,0,1,3.81-3.82h70.51A3.81,3.81,0,0,1,244.66,196.57Z"/><path class="cls-7" d="M319,347a481,481,0,0,1-69,15.69l-2.37-16.38a16,16,0,0,0-6.37-10.62l-28.67-21.13H252a12.06,12.06,0,0,0,10.58-5.76c1.16-2.13,2.25-5.92-1.61-14.39-1.91-4.19-5-6.64-9.09-22.34-3.72-14.21-.08-24.09,2.72-29.07a11.34,11.34,0,0,0,1-8.88l-4.06-13.45a8.55,8.55,0,0,0-3.65-4.76c-4.22-2.67-12.49-8.66-18-17.52a25.56,25.56,0,0,1-3.72-9.55c-.65-4.21.24-7.54,1.52-9.51,1-1.57,3.05-2.05,4.21-1.24l30.76,21.68a21.69,21.69,0,0,1,6,6.47l3.38,5.56,16.43,27a24.18,24.18,0,0,1,3,7.59l10.61,50.81Z"/><path class="cls-7" d="M143.34,175s-10.55,1.16-14,1.81-13.52,2.39-13.07,10.87c.44,8.27,13.52,8.8,13.52,8.8h13.52Z"/><path class="cls-7" d="M143.38,197.83a25.05,25.05,0,0,0-18.84,15,18.11,18.11,0,0,0-1.37,6.08l-.11,2a7,7,0,0,0,3.26,6.33l25,15.78s8.85-8.07-1.56-20.32-6.39-7.58-6.39-7.58V197.83Z"/><path class="cls-7" d="M148,245.84a22.87,22.87,0,0,0-16.86,14.07,16.35,16.35,0,0,0-1.11,5.58l-.06,1.79a6.4,6.4,0,0,0,3.12,5.7l24.29,10.14s8.07-6.82-2.1-16.41a46.31,46.31,0,0,0-9-6.7Z"/><path class="cls-7" d="M145.8,224.1a25.4,25.4,0,0,0-19.1,15.18,18.16,18.16,0,0,0-1.39,6.16l-.11,2a7.13,7.13,0,0,0,3.31,6.42l34,13.73s8.9-6.34-1.64-18.76-15-12.39-15-12.39V224.1Z"/><path class="cls-6" d="M243.67,113.36V164a34.46,34.46,0,0,1-18.8,6H165.53V113.36a3.36,3.36,0,0,1,3.36-3.37H240.3A3.37,3.37,0,0,1,243.67,113.36Z"/><path class="cls-8" d="M255.15,129.82a27.23,27.23,0,0,1-9.1,20.35,28.33,28.33,0,0,1-2.87,2.24,27.32,27.32,0,1,1-15.36-49.92,27.5,27.5,0,0,1,7.59,1.06c.71.21,1.41.44,2.1.7A27.35,27.35,0,0,1,255.15,129.82Z"/><path class="cls-8" d="M210.6,213.5a27.23,27.23,0,0,1-9.1,20.35,24.85,24.85,0,0,1-2.87,2.24,27.31,27.31,0,0,1-35.69-40.83,26.82,26.82,0,0,1,5.42-4.66,27.35,27.35,0,0,1,22.5-3.36c.71.21,1.41.44,2.1.7A27.34,27.34,0,0,1,210.6,213.5Z"/><path class="cls-1" d="M240.3,176.19H168.89a3.37,3.37,0,0,1-3.37-3.37V113.36a3.37,3.37,0,0,1,3.37-3.37H240.3a3.37,3.37,0,0,1,3.37,3.37v59.46A3.37,3.37,0,0,1,240.3,176.19Z"/><path class="cls-9" d="M192.29,217.07l4.61,5.52c0,.13-.13.26-.21.34-.3.31-.91.09-1.7-.63-.18-.17-1.88-1.92-3.38-3.46l3.17,3.95c0,.13-.13.26-.2.34-.31.31-.92.09-1.71-.62-.13-.12-1.05-1-2.11-2.11l1.1,1.45a.5.5,0,0,1-.17.27c-.25.26-.89.12-1.53-.45-.27-.25-3.21-3.45-3.21-3.45l-1.32-1L184,216.12a18.11,18.11,0,0,1-1.6-1.31,9.67,9.67,0,0,1-1.9-2.37,13.84,13.84,0,0,0-2.2-3l-15.37-14.17a26.82,26.82,0,0,1,5.42-4.66l13,15.29a11.53,11.53,0,0,0,2.38,2c3,1.42,2.76.27,5.24,1.85a50,50,0,0,0,4.94,1.49c.43.23-1.08,2-2.88,1.23a10.4,10.4,0,0,0-1.38-.35l2.57,2.13,4.65,5.81a.57.57,0,0,1-.2.34c-.29.32-.91.13-1.72-.56C194.82,219.68,193.57,218.39,192.29,217.07Z"/><g class="cls-10"><path class="cls-11" d="M247.72,224.57v28H186.06a35.65,35.65,0,0,1-19.53-8.28V228.26c0-2.84,2.36-3.1,5.31-3.15l72.82-.52Z"/><polygon class="cls-6" points="216.01 228.55 202.85 252.59 201.71 252.59 215.13 228.07 216.01 228.55"/><polygon class="cls-6" points="222.18 228.69 209.1 252.59 207.96 252.59 221.31 228.21 222.18 228.69"/><polygon class="cls-6" points="203.37 228.67 190.27 252.59 189.14 252.59 202.5 228.18 203.37 228.67"/><polygon class="cls-6" points="209.44 228.67 196.34 252.59 195.2 252.59 208.56 228.18 209.44 228.67"/><polygon class="cls-6" points="228.02 229.8 215.54 252.59 214.4 252.59 227.14 229.32 228.02 229.8"/><path class="cls-6" d="M186.27,225.24l-12.91,23.6c-.3-.15-.6-.31-.89-.48l12.92-23.6Z"/><path class="cls-6" d="M192.34,225.24l-14.07,25.7c-.32-.1-.64-.22-1-.34l14.14-25.84Z"/><polyline class="cls-6" points="166.48 235.6 172.42 224.76 173.3 225.24 166.54 237.58"/><path class="cls-6" d="M179.36,225.24l-11.15,20.38-.81-.61,11.09-20.25Z"/><path class="cls-6" d="M197.94,226.37,183.75,252.3c-.35-.05-.7-.11-1-.19l14.35-26.22Z"/><polygon class="cls-6" points="234.39 229.87 221.96 252.59 220.81 252.59 233.52 229.39 234.39 229.87"/><polygon class="cls-6" points="241.04 230.39 228.89 252.59 227.76 252.59 240.17 229.91 241.04 230.39"/><polygon class="cls-6" points="247.65 231.01 235.83 252.59 234.7 252.59 246.77 230.53 247.65 231.01"/><path class="cls-2" d="M222,252.59h-35.9c-.78-.07-1.55-.16-2.31-.29-.35-.05-.7-.11-1-.19a30.12,30.12,0,0,1-4.44-1.17c-.32-.1-.64-.22-1-.34a33.72,33.72,0,0,1-4-1.76c-.3-.15-.6-.31-.89-.48a36.91,36.91,0,0,1-4.26-2.74l-.81-.61-.87,1.59v9.26a3.8,3.8,0,0,0,3.81,3.81h70.51a3.8,3.8,0,0,0,3.81-3.81v-3.27Z"/><polygon class="cls-6" points="254.28 232.13 243.08 252.59 241.94 252.59 253.41 231.65 254.28 232.13"/><path class="cls-9" d="M178.3,209.43l-.06-.06.06.06Z"/><path class="cls-9" d="M177.68,208.8Z"/><path class="cls-9" d="M177.8,208.92l.25.25C178,209.1,177.89,209,177.8,208.92Z"/><path class="cls-9" d="M178.05,209.18l.16.16Z"/><path class="cls-9" d="M219.53,226.47a3.76,3.76,0,0,0-3.39-2.33h0l-1.82-.17h-.06l-3.58-.35a1.7,1.7,0,0,1-1.06-2.14l.93-2.91.06-.16a2.19,2.19,0,0,0,.1-.63,2,2,0,0,0-2-2,1.83,1.83,0,0,0-.64.13,1.07,1.07,0,0,1-1-.15,2,2,0,0,1-.37-.34l-.08-.07,0,0a.75.75,0,0,0-.3-.17.73.73,0,0,0-.29-.07.56.56,0,0,0-.44.15v.37s-.39-.81-.7-.84h-.28a.37.37,0,0,0-.21.08l-.11.13-.2.2,0,0-.08,0a2,2,0,0,1-.41,0h-.17a.24.24,0,0,1-.14-.05.43.43,0,0,1-.12-.14l-.62-1.21a.52.52,0,0,0-.62-.31.37.37,0,0,0-.18.08l-2.25,1.75a1.45,1.45,0,0,1-1.05.22,8.77,8.77,0,0,0-3.68.16,10.08,10.08,0,0,0-3.89,1.94h-.09c-3,1.86-4.42,5.26-4.42,9.06,0,5.82,4.16,10.49,10,10.49,4,0,7.67-3.6,9.43-6.92-.06.14-.25,15.45,5.63,4.44,1.64-3.08,3.09-3.13,3.09-3.13h1.69v0a3.72,3.72,0,0,0,3.62-3.46,2.35,2.35,0,0,0,0-.27A3.45,3.45,0,0,0,219.53,226.47Z"/><path class="cls-12" d="M210.71,217.76a2.24,2.24,0,0,1-.1.63l-.06.16a8.15,8.15,0,0,1-3.19,4c-5,2.79-9.34,1.09-12.2-1a7.6,7.6,0,0,1-2.85-5.27c1.09-.28,3.83-1.26,6.1-.7a1.36,1.36,0,0,0,1.05-.22l2.25-1.75a.48.48,0,0,1,.18-.08,2.32,2.32,0,0,0,.19,1.72.76.76,0,0,0,1.16-.07.24.24,0,0,0,.14.05h.17a2,2,0,0,0,.41,0l.08,0a3,3,0,0,0,1.22,2.46,5,5,0,0,0,1.84-1.89,1.07,1.07,0,0,0,1,.15,1.78,1.78,0,0,1,.64-.13A2,2,0,0,1,210.71,217.76Z"/><ellipse class="cls-13" cx="197.2" cy="216.81" rx="2.19" ry="1.76"/><ellipse class="cls-14" cx="197.27" cy="216.54" rx="2.19" ry="1.76"/><path class="cls-15" d="M194,238c-6.14-.63-9.61-5.94-9.86-10.82a9.7,9.7,0,0,1,4.7-9.27s11.15,5.55,11.92,9.46l-3.52,1.59v.46a2.35,2.35,0,0,0,4.43,1.08h0l4.09,1.19S201.65,238.73,194,238Z"/><path class="cls-15" d="M188.32,223.14a6.3,6.3,0,0,1-1.06-3.55c0-3.22,2.27-5.82,5.07-5.82a4.54,4.54,0,0,1,2.44.71c0,.14,0,.29-.06.43a5,5,0,0,0-2.3,0,18.46,18.46,0,0,1,2.22.6q-.07.72-.09,1.47a2.48,2.48,0,0,0-1.78,0,16.6,16.6,0,0,1,1.8,1,14,14,0,0,0,.73,4,4.63,4.63,0,0,0-2.95-1.09A4.91,4.91,0,0,0,188.32,223.14Z"/><circle class="cls-15" cx="185.42" cy="232.58" r="5.14"/><circle class="cls-4" cx="205.53" cy="234.59" r="6.01"/><circle class="cls-11" cx="205.92" cy="234.99" r="5.61"/><path class="cls-9" d="M216.14,224.14c3.28.11,5.52-1,11.75-3.63,3.68-1.55,11.1-.69,11.1-.69v18.67l-21.72-5.9S212.86,224,216.14,224.14Z"/><path class="cls-4" d="M250.49,220.15v23.39l-23-.87s-4-14.64.49-23a1.1,1.1,0,0,1,1.15-.57l4.34.21,1.1.06Z"/><path class="cls-5" d="M233.74,242.34l-1,.23c-.15-.61-3.45-14.77.7-23.26l1.1.06C230.27,227.48,233.7,242.19,233.74,242.34Z"/><path class="cls-9" d="M250.49,240.41l-31.42-10.48c-3.51-.78-6.84,1-7.44,3.9s1.75,5.95,5.26,6.73c0,0,32.59,8.43,33.6,8.48"/><path class="cls-9" d="M196.71,232.09c-.32-.33-4.23-4-4.23-4L190,225.26c.55,0,1.64,0,1.64,0,2-.06,2.41-1.69,2.26-1.94a10.87,10.87,0,0,0-2.64-.11,11.57,11.57,0,0,1-3.84-.55c-1.7-.6-1.94-1-5.78-1.07-3.3-.05-27.23-1.19-27.23-1.19a4.26,4.26,0,0,0-3.87,4.16,4,4,0,0,0,4.3,4l25.69-2.23a2.1,2.1,0,0,1,1.76.69l3.29,4.23,5.55,3.86a.38.38,0,0,0,.26-.12.83.83,0,0,0,.17-1.06l1.94,1.56c.13,0,.24-.13.32-.21a1.15,1.15,0,0,0-.14-1.64l2.09,1.75c.13,0,.26-.13.34-.21.31-.31.59-1-.17-1.82l-.34-.33,1,.93c.13,0,.24-.13.32-.21C197.21,233.51,197.46,232.85,196.71,232.09Z"/><polygon class="cls-16" points="225.86 232.28 219.61 230.12 225.87 231.2 225.86 232.28"/><path class="cls-16" d="M195.43,233l.62-.67s.8.6.87.86a.85.85,0,0,1-.34.85Z"/><path class="cls-16" d="M192.1,223.22v1a3.8,3.8,0,0,0,1.36,0,1,1,0,0,0,.35-.94Z"/><path class="cls-16" d="M194.54,234.42l.57-.71s.88.58.95.84a.85.85,0,0,1-.34.85Z"/><path class="cls-16" d="M192.26,234.53l.57-.71s.89.55,1,.81a.85.85,0,0,1-.34.85Z"/><path class="cls-16" d="M189.89,234.3l.5-.7s.88.46,1,.7a.82.82,0,0,1-.26.82Z"/></g><path class="cls-17" d="M231.91,178.07c-.23-.16-1,.18-1.71.86a7.65,7.65,0,0,0-2.25,6.64c.53,2.08,5.49,5.58,7.8,7.18a3.4,3.4,0,0,0,4.52-.6l4.4-5.16Z"/><path class="cls-17" d="M156.27,282.67c.26.11.74-.37,1.31-1.19a7.62,7.62,0,0,0,.87-7c-.94-1.93-6.5-4.2-9.08-5.31a3.41,3.41,0,0,0-4.31,1.49l-1.6,4.39a2.15,2.15,0,0,0,1.18,2.71Z"/><path class="cls-17" d="M161.41,267.15c.26.11.74-.37,1.31-1.19a7.62,7.62,0,0,0,.87-6.95c-.94-1.93-6.5-4-9.08-5.15a3.41,3.41,0,0,0-4.31,1.49l-1.6,4.39a2.15,2.15,0,0,0,1.18,2.71Z"/><path class="cls-17" d="M149.9,241.93c.24.15.79-.25,1.47-1a7.63,7.63,0,0,0,1.94-6.73c-.63-2-5.79-5-8.17-6.49a3.4,3.4,0,0,0-4.49.81l-2.26,4.09a2.15,2.15,0,0,0,.75,2.86Z"/><path class="cls-4" d="M234.47,269.85H177.7a3.61,3.61,0,0,0-3.61,3.61v11.42a3.61,3.61,0,0,0,3.61,3.61h56.77a3.61,3.61,0,0,0,3.61-3.61V273.46A3.61,3.61,0,0,0,234.47,269.85Z"/><g class="cls-18"><path class="cls-12" d="M189.21,275a9.32,9.32,0,0,1,1.78-.15,3,3,0,0,1,2.08.58,1.79,1.79,0,0,1,.56,1.36,1.88,1.88,0,0,1-1.35,1.83v0a1.78,1.78,0,0,1,1.05,1.45,11.17,11.17,0,0,0,.55,2h-1a8.83,8.83,0,0,1-.48-1.71c-.21-1-.6-1.36-1.44-1.4h-.87v3.11h-.93V275Zm.93,3.27h1c1,0,1.62-.54,1.62-1.36s-.67-1.33-1.65-1.34a3.42,3.42,0,0,0-.92.09Z"/><path class="cls-12" d="M195.48,279.66a1.65,1.65,0,0,0,1.77,1.79,3.38,3.38,0,0,0,1.43-.27l.16.67a4.13,4.13,0,0,1-1.71.32,2.39,2.39,0,0,1-2.53-2.6,2.5,2.5,0,0,1,2.42-2.78,2.19,2.19,0,0,1,2.13,2.43,3.94,3.94,0,0,1,0,.44Zm2.74-.67a1.33,1.33,0,0,0-1.3-1.52,1.56,1.56,0,0,0-1.44,1.52Z"/><path class="cls-12" d="M199.7,281.52l2.33-3c.22-.28.44-.52.67-.8v0h-2.79v-.76h3.93v.59l-2.3,3c-.21.29-.43.54-.66.81v0h3v.75h-4.19v-.54Z"/><path class="cls-12" d="M205.29,279.66a1.65,1.65,0,0,0,1.77,1.79,3.38,3.38,0,0,0,1.43-.27l.16.67a4.13,4.13,0,0,1-1.71.32,2.39,2.39,0,0,1-2.53-2.6,2.5,2.5,0,0,1,2.42-2.78,2.19,2.19,0,0,1,2.13,2.43,3.94,3.94,0,0,1,0,.44ZM208,279a1.33,1.33,0,0,0-1.3-1.52A1.56,1.56,0,0,0,205.3,279Z"/><path class="cls-12" d="M210.11,278.52c0-.61,0-1.13,0-1.61h.82l0,1h0a1.55,1.55,0,0,1,1.43-1.13,1.12,1.12,0,0,1,.27,0v.88a1.51,1.51,0,0,0-.32,0,1.32,1.32,0,0,0-1.26,1.2,2.87,2.87,0,0,0,0,.44v2.75h-.93v-3.54Z"/><path class="cls-12" d="M214.22,276.91l1,2.9c.17.47.31.89.42,1.32h0c.12-.43.27-.85.44-1.32l1-2.9h1l-2,5.16h-.89l-2-5.16Z"/><path class="cls-12" d="M221.79,282.07l-.07-.65h0a1.94,1.94,0,0,1-1.58.77,1.48,1.48,0,0,1-1.58-1.48c0-1.25,1.11-1.93,3.1-1.92v-.11a1.06,1.06,0,0,0-1.17-1.19,2.59,2.59,0,0,0-1.34.38l-.21-.62a3.17,3.17,0,0,1,1.69-.46c1.58,0,2,1.08,2,2.11v1.93a7.83,7.83,0,0,0,.08,1.24Zm-.14-2.63c-1,0-2.18.16-2.18,1.16a.82.82,0,0,0,.88.89,1.3,1.3,0,0,0,1.25-.86,1,1,0,0,0,.05-.3Z"/></g><g class="cls-19"><path class="cls-2" d="M243.67,164v9.51a3.37,3.37,0,0,1-3.37,3.37H168.89a3.36,3.36,0,0,1-3.36-3.37V170h59.34A34.46,34.46,0,0,0,243.67,164Z"/><path class="cls-11" d="M243.66,145.16V164a34.46,34.46,0,0,1-18.8,6H165.52V141.34h59.34L237.93,140l.62,0h0A5.21,5.21,0,0,1,243.66,145.16Z"/><g class="cls-20"><rect class="cls-6" x="199.16" y="142.31" width="1" height="30.37" transform="translate(-51.1 115.22) rotate(-28.7)"/><rect class="cls-6" x="192.99" y="142.44" width="1" height="30.37" transform="translate(-51.92 112.27) rotate(-28.7)"/><rect class="cls-6" x="211.8" y="142.43" width="1" height="30.37" transform="translate(-49.61 121.3) rotate(-28.7)"/><rect class="cls-6" x="205.73" y="142.42" width="1" height="30.37" transform="translate(-50.35 118.39) rotate(-28.7)"/><rect class="cls-6" x="187.15" y="143.56" width="1" height="30.37" transform="translate(-53.18 109.61) rotate(-28.7)"/><rect class="cls-6" x="229.65" y="138.8" width="1" height="33.48" transform="translate(-46.42 129.62) rotate(-28.7)"/><rect class="cls-6" x="223.87" y="138.73" width="1" height="34.68" transform="translate(-47.38 126.91) rotate(-28.7)"/><rect class="cls-6" x="242.37" y="138.59" width="1" height="30.37" transform="translate(-44.01 135.51) rotate(-28.7)"/><rect class="cls-6" x="235.8" y="139" width="1" height="30.37" transform="translate(-45.01 132.41) rotate(-28.7)"/><rect class="cls-6" x="217.95" y="139.95" width="1" height="33.39" transform="translate(-48.38 124.14) rotate(-28.7)"/><rect class="cls-6" x="180.78" y="143.62" width="1" height="30.37" transform="translate(-53.99 106.56) rotate(-28.7)"/><rect class="cls-6" x="174.12" y="144.14" width="1" height="30.37" transform="translate(-55.06 103.42) rotate(-28.7)"/><rect class="cls-6" x="167.52" y="144.76" width="1" height="30.37" transform="translate(-56.17 100.33) rotate(-28.7)"/><rect class="cls-6" x="160.89" y="145.89" width="1" height="30.37" transform="translate(-57.52 97.28) rotate(-28.7)"/></g><path class="cls-9" d="M206.6,149.49a1.81,1.81,0,0,1,2-2.56l.66-3.21-4.35-.18-5.11,4.66Z"/><path class="cls-9" d="M214.27,136.57a26.4,26.4,0,0,1-10.41-.11c-4.93-1.21-9.65-3-16.1-3s-17.8,1.4-17.8,1.4V155h18.29l16.81-8.94,3.14.66,1.88-2.41.68.2Z"/><path class="cls-16" d="M206.68,147.65s-1-5.37,5.92-8.48l-4,7.75A2.2,2.2,0,0,0,206.68,147.65Z"/><polygon class="cls-16" points="198.41 145.9 184.85 149.35 184.54 151.52 198.41 145.9"/><path class="cls-9" d="M233.39,144.62a11.71,11.71,0,0,1-1.84,4.36s0,0,0,0c-.79,1.12-3.63,2.29-5.68,3h-.29c-2,.06-4.11.1-6.21.1-1.69,0-3.42,0-5.15,0a9,9,0,0,1-4.71-1.6,2.38,2.38,0,0,1-1-2.23,15.75,15.75,0,0,1,2.11-7.4,46.18,46.18,0,0,1,4.89-5.41,3.1,3.1,0,0,1,2.07-2.9,2.58,2.58,0,0,1,2.73,1,9.35,9.35,0,0,1,6.07-.4C231.83,134.35,234.56,139.22,233.39,144.62Z"/><path class="cls-15" d="M225.36,139.16a6.18,6.18,0,0,1-7.22-1.64,3.35,3.35,0,0,0,2-4.23,11.72,11.72,0,0,1,6.56-1.18c7.14,1,10.38,6.52,8.74,12.8-.42,1.62-2,4.74-4.16,5.75"/><path class="cls-16" d="M219.35,152.11c3.21-4.12-.12-11.28-.12-11.28l3.62,1.65,2.71,9.53C223.53,152.07,221.45,152.11,219.35,152.11Z"/><path class="cls-15" d="M231.24,150.66c-.52,3.21-3.93,5.31-7.59,4.71a7.43,7.43,0,0,1-2.9-1.11c.05-.16.08-.33.13-.49a8.54,8.54,0,0,0,2.85.47s-1.74-.57-2.72-1c.09-.42.16-.84.22-1.25a2,2,0,0,0,.05-.24c1.6.45,3.28.41,4-.08a5.55,5.55,0,0,1-3.82-.87,12.06,12.06,0,0,0,0-2.4c0-.56-.05-1.1-.1-1.61h0a13.1,13.1,0,0,0-2.1-5.94,5,5,0,0,0,4.24-.46,14.74,14.74,0,0,0,2.46-2l4.27,8.2.15-.12A6.73,6.73,0,0,1,231.24,150.66Z"/><path class="cls-4" d="M163.26,164.17l21.58-.32s8.46-22,1.83-30.45a1.94,1.94,0,0,0-1.7-.57l-21.71.45Z"/><path class="cls-5" d="M180.08,154.93l1,.23c.15-.61,3.45-14.77-.7-23.26l-1.1.06C183.55,140.07,180.12,154.78,180.08,154.93Z"/><path class="cls-9" d="M206.14,152.67a6.46,6.46,0,0,1-1.19,1.7l0,0-.43.4a7.25,7.25,0,0,1-3.21,1.53L173,162.6,162.37,158c.87-.55,35.63-11.91,35.63-11.91,3.35-1.4,7.07-.29,8.29,2.48A4.85,4.85,0,0,1,206.14,152.67Z"/><ellipse class="cls-15" cx="235.29" cy="138.37" rx="4.88" ry="4.86"/><path class="cls-9" d="M160.6,97c2-.8,2.74-2.52,3.44-.48l8.35,25.21a2.08,2.08,0,0,0,.52.85l8.15,7.8,4.76,1.88c.07.12,0,.4,0,.51-.12.43-.91.91-2.23.56-.08,0-.34-.11-.69-.25l.38.37,2.59,1.06a.62.62,0,0,1-.06.4c-.17.41-1,.86-2.59.38-1.8-.54-2.11-1.11-3.36-2.16l1,1.32,1.76,1.18a.57.57,0,0,1-.16.37c-.26.36-1.07.56-2.51-.22a4.69,4.69,0,0,1-1.2-.87l-3.2-3.48a3.1,3.1,0,0,0-1.94-.84h0c.2.51.39,1,.39,1,.53,2.48-.72,2.81-1,2.82s-1.75-3.8-2.43-4.92c-1.06-1.74-1.44-1.83-1.66-4a6.42,6.42,0,0,0-.51-1.92l-10-21.86A3.87,3.87,0,0,1,160.6,97Z"/><path class="cls-9" d="M163.43,136v5.06l5.85-.56a2.35,2.35,0,0,1,1.78.84l2.64,3.38A6,6,0,0,0,175,146l4.66,3.23a.37.37,0,0,0,.25-.12.8.8,0,0,0,.17-1l1.9,1.52c.12,0,.24-.13.31-.2a1.11,1.11,0,0,0-.14-1.59l2,1.71a.52.52,0,0,0,.33-.2c.3-.3.55-.9-.19-1.71,0,0-.33-.37-.52-.56l1.2,1.08c.12,0,.24-.13.31-.2a1.6,1.6,0,0,0-.26-2c-.31-.32-4-3.75-4-3.75l-2.53-2.52c.54,0,1.6,0,1.6,0,2.23,0,2.45-1.81,2.2-1.94a16.06,16.06,0,0,0-2.57-.05,11.11,11.11,0,0,1-3.75-.54c-1.66-.58-2-.91-5.8-1C169.38,136.11,166.91,136,163.43,136Z"/><path class="cls-9" d="M213.44,159.06c.42-.33,1.28-1,1.28-1,1.73-1.41.81-2.94.53-2.88a16.51,16.51,0,0,0-2.05,1.54c-1.16.88-2.43,1.1-3.34,1.94"/><path class="cls-9" d="M160.18,159.66c.76-1.48,3.2-2.27,5-2,3.19.41,39.24,3.88,40.83,3.87l4.21-3.08A32.85,32.85,0,0,1,216.4,157l7.54.55a.91.91,0,0,1,.12.31.86.86,0,0,1-.81.84l-1.9.15h3.78a.39.39,0,0,1,.16.29c.05.41-.18,1-1.36,1.14-.22,0-1.84,0-3.38.09l3.21.06c.11.07.1.35.11.44,0,.35-.44.95-1.63,1-.46,0-5.63.06-5.63.06l3.06.24a.41.41,0,0,1,.13.29c0,.33-.11,1-1.24,1.08-.33,0-3.4.25-5.41.21a2.11,2.11,0,0,0-.92.25c-1.08.49-1.62.68-2.72,1.23a6.57,6.57,0,0,1-3.71.8H164.73C160.19,166,158.91,162.14,160.18,159.66Z"/><path class="cls-16" d="M183.9,147.09l.58-.63s.75.56.82.81a.82.82,0,0,1-.32.8Z"/><path class="cls-16" d="M180.64,137.62v.95a3.79,3.79,0,0,0,1.28,0,.87.87,0,0,0,.33-.88Z"/><path class="cls-16" d="M184.27,131.61l-.32.9a3.79,3.79,0,0,0,1.22.39.85.85,0,0,0,.6-.72Z"/><path class="cls-16" d="M184.29,133.83l-.35.89a3.64,3.64,0,0,0,1.21.42.87.87,0,0,0,.62-.71Z"/><path class="cls-16" d="M181.29,134.68l-.5.75s.76.64,1,.64a.83.83,0,0,0,.72-.53Z"/><path class="cls-16" d="M172,132.64l1-.45s.55.9.51,1.19a1.17,1.17,0,0,1-.81.76Z"/><path class="cls-16" d="M183.09,148.56l.54-.66s.83.54.89.79a.82.82,0,0,1-.32.8Z"/><path class="cls-16" d="M222.61,157.43l-.07.72a2.81,2.81,0,0,0,1,0,.66.66,0,0,0,.28-.67Z"/><path class="cls-16" d="M223.8,158.82l0,.72s.82.11,1,0a.69.69,0,0,0,.24-.69Z"/><path class="cls-16" d="M222.41,160.39v.71a2.7,2.7,0,0,0,1,0,.68.68,0,0,0,.23-.67Z"/><path class="cls-16" d="M218.51,162.08l0,.66a2.65,2.65,0,0,0,.92,0,.62.62,0,0,0,.25-.61Z"/><path class="cls-16" d="M180.84,148.66l.54-.66s.84.52.91.76a.81.81,0,0,1-.32.8Z"/><path class="cls-16" d="M178.56,148.44l.47-.66s.83.43.9.66a.75.75,0,0,1-.25.77Z"/></g><path class="cls-21" d="M197.47,215.71a.64.64,0,0,1,.38-.59S197.84,215.61,197.47,215.71Z"/><path class="cls-21" d="M196.57,217.84a.64.64,0,0,1,.38-.59S196.94,217.74,196.57,217.84Z"/><path class="cls-21" d="M197.81,217.26a.65.65,0,0,1,.62.32S197.94,217.61,197.81,217.26Z"/><path class="cls-21" d="M196,215.49a.65.65,0,0,1,.62.32S196.08,215.85,196,215.49Z"/><path class="cls-21" d="M198.22,216.45a.64.64,0,0,1,.68-.16A.6.6,0,0,1,198.22,216.45Z"/><path class="cls-21" d="M195.5,216.63a.66.66,0,0,1,.7,0S195.77,216.9,195.5,216.63Z"/></g></g></g></svg>