<svg xmlns="http://www.w3.org/2000/svg" viewBox="0 0 429.8 366.69"><defs><style>.cls-1{fill:#f6ccc8;}.cls-1,.cls-9{opacity:0.8;}.cls-1,.cls-2,.cls-9{isolation:isolate;}.cls-2{fill:#ef8299;opacity:0.6;}.cls-3{fill:#fff2e3;}.cls-4{fill:#fce1e2;}.cls-5{fill:#d00078;}.cls-6{fill:#ffe3ac;}.cls-7{fill:#ffcf70;}.cls-8{fill:#f6926a;}.cls-9{fill:#ffd7d2;}</style></defs><title>homepage_2</title><g id="Layer_2" data-name="Layer 2"><g id="Layer_1-2" data-name="Layer 1"><g id="Layer_3" data-name="Layer 3"><path class="cls-1" d="M429.79,227.38c.34,40.83-16.79,87.36-54.62,115.1q-2.87,2.1-5.89,4a121.94,121.94,0,0,1-10.85,6.23A124.22,124.22,0,0,1,346.78,358a131.32,131.32,0,0,1-15.95,5A129.53,129.53,0,0,1,312,366c-1,.09-2,.17-3,.24-3.65.25-7.4.39-11.23.4q-8.59,0-17.81-.75c-3.43-.28-6.94-.64-10.5-1.08A273.56,273.56,0,0,1,239,359.15C147.54,337,50.4,390.55,10.82,352.77-10.51,332.41-5,266,70.08,282.18c28.75,6.19,52.42,10.17,77.54-.95a131.45,131.45,0,0,0,32.46-20.76,168.47,168.47,0,0,0,13-12.5q5.56-6,10.62-12.39h0A256.28,256.28,0,0,0,220,212.37c3.81-6.05,7.37-12.18,10.73-18.27q3-5.41,5.8-10.78l1.37-2.63c.58-1.11,1.17-2.21,1.76-3.28,1.05-1.88,2.14-3.69,3.27-5.45h0a97,97,0,0,1,7.39-10.16c1.11-1.35,2.26-2.66,3.43-3.92l.2-.2c.38-.42.78-.84,1.18-1.24A86.08,86.08,0,0,1,262,150a.75.75,0,0,1,.14-.12q3-2.52,6.18-4.71C329.73,102.54,429.15,150.92,429.79,227.38Z"/><path class="cls-2" d="M75.27,272.83c48.74,47.08,121.65,44.09,202.35-9.63,34.91-23.24,56.24-44.68,63.47-65,21.56-60.53-6.77-97.14-46.6-95.57-102.14,4-63.32-53.15-126.14-91.73C127.53-14.14,82.13,5.27,72.44,55.33,65.59,90.71,89,118.21,74.1,158c-4.94,13.2-12.42,24.86-17.38,34.83C42.25,221.88,58.83,257,75.27,272.83Z"/><path class="cls-3" d="M351.86,94.05V310.49a2.1,2.1,0,0,1-2.05,2.13H110.44a2.1,2.1,0,0,1-2-2.13V94.05a2.1,2.1,0,0,1,2-2.14H349.81A2.1,2.1,0,0,1,351.86,94.05Z"/><path class="cls-4" d="M218.5,119.86A55.06,55.06,0,1,1,116,91.91h94.89A54.74,54.74,0,0,1,218.5,119.86Z"/><path class="cls-5" d="M349.81,112.3H109.42a2.06,2.06,0,0,1-2.06-2.06V87a2.06,2.06,0,0,1,2.06-2.06H349.81A2.06,2.06,0,0,1,351.87,87v23.24A2.07,2.07,0,0,1,349.81,112.3Z"/><path class="cls-6" d="M241.86,170.31H217.09a1.72,1.72,0,0,1-1.72-1.72v-19a1.72,1.72,0,0,1,1.72-1.72h24.77a1.72,1.72,0,0,1,1.72,1.72v19A1.72,1.72,0,0,1,241.86,170.31Z"/><path class="cls-7" d="M274.68,170.31H249.91a1.72,1.72,0,0,1-1.72-1.72v-19a1.72,1.72,0,0,1,1.72-1.72h24.77a1.72,1.72,0,0,1,1.72,1.72v19A1.71,1.71,0,0,1,274.68,170.31Z"/><path class="cls-6" d="M307.41,170.31H282.64a1.72,1.72,0,0,1-1.72-1.72v-19a1.72,1.72,0,0,1,1.72-1.72h24.77a1.72,1.72,0,0,1,1.72,1.72v19A1.72,1.72,0,0,1,307.41,170.31Z"/><path class="cls-7" d="M340.24,170.31H315.47a1.72,1.72,0,0,1-1.72-1.72v-19a1.72,1.72,0,0,1,1.72-1.72h24.77a1.72,1.72,0,0,1,1.72,1.72v19A1.72,1.72,0,0,1,340.24,170.31Z"/><path class="cls-6" d="M241.86,203.61H217.09a1.72,1.72,0,0,1-1.72-1.72v-19a1.72,1.72,0,0,1,1.72-1.72h24.77a1.72,1.72,0,0,1,1.72,1.72v19A1.72,1.72,0,0,1,241.86,203.61Z"/><path class="cls-7" d="M274.68,203.61H249.91a1.72,1.72,0,0,1-1.72-1.72v-19a1.72,1.72,0,0,1,1.72-1.72h24.77a1.72,1.72,0,0,1,1.72,1.72v19A1.71,1.71,0,0,1,274.68,203.61Z"/><path class="cls-6" d="M307.41,203.61H282.64a1.72,1.72,0,0,1-1.72-1.72v-19a1.72,1.72,0,0,1,1.72-1.72h24.77a1.72,1.72,0,0,1,1.72,1.72v19A1.72,1.72,0,0,1,307.41,203.61Z"/><path class="cls-7" d="M340.24,203.61H315.47a1.72,1.72,0,0,1-1.72-1.72v-19a1.72,1.72,0,0,1,1.72-1.72h24.77a1.72,1.72,0,0,1,1.72,1.72v19A1.72,1.72,0,0,1,340.24,203.61Z"/><path class="cls-7" d="M143.51,203.61H118.74a1.72,1.72,0,0,1-1.72-1.72v-19a1.72,1.72,0,0,1,1.72-1.72h24.77a1.72,1.72,0,0,1,1.72,1.72v19A1.72,1.72,0,0,1,143.51,203.61Z"/><path class="cls-6" d="M176.23,203.61H151.46a1.72,1.72,0,0,1-1.72-1.72v-19a1.72,1.72,0,0,1,1.72-1.72h24.77a1.72,1.72,0,0,1,1.72,1.72v19A1.71,1.71,0,0,1,176.23,203.61Z"/><path class="cls-7" d="M209.06,203.61H184.29a1.72,1.72,0,0,1-1.72-1.72v-19a1.72,1.72,0,0,1,1.72-1.72h24.77a1.72,1.72,0,0,1,1.72,1.72v19A1.72,1.72,0,0,1,209.06,203.61Z"/><path class="cls-6" d="M241.86,235.27H217.09a1.72,1.72,0,0,1-1.72-1.72v-19a1.72,1.72,0,0,1,1.72-1.72h24.77a1.72,1.72,0,0,1,1.72,1.72v19A1.73,1.73,0,0,1,241.86,235.27Z"/><path class="cls-7" d="M274.68,235.27H249.91a1.72,1.72,0,0,1-1.72-1.72v-19a1.72,1.72,0,0,1,1.72-1.72h24.77a1.72,1.72,0,0,1,1.72,1.72v19A1.71,1.71,0,0,1,274.68,235.27Z"/><path class="cls-6" d="M307.41,235.27H282.64a1.72,1.72,0,0,1-1.72-1.72v-19a1.72,1.72,0,0,1,1.72-1.72h24.77a1.72,1.72,0,0,1,1.72,1.72v19A1.73,1.73,0,0,1,307.41,235.27Z"/><path class="cls-7" d="M340.24,235.27H315.47a1.72,1.72,0,0,1-1.72-1.72v-19a1.72,1.72,0,0,1,1.72-1.72h24.77a1.72,1.72,0,0,1,1.72,1.72v19A1.73,1.73,0,0,1,340.24,235.27Z"/><path class="cls-7" d="M143.51,235.27H118.74a1.72,1.72,0,0,1-1.72-1.72v-19a1.72,1.72,0,0,1,1.72-1.72h24.77a1.72,1.72,0,0,1,1.72,1.72v19A1.73,1.73,0,0,1,143.51,235.27Z"/><path class="cls-6" d="M176.23,235.27H151.46a1.72,1.72,0,0,1-1.72-1.72v-19a1.72,1.72,0,0,1,1.72-1.72h24.77a1.72,1.72,0,0,1,1.72,1.72v19A1.71,1.71,0,0,1,176.23,235.27Z"/><path class="cls-7" d="M209.06,235.27H184.29a1.72,1.72,0,0,1-1.72-1.72v-19a1.72,1.72,0,0,1,1.72-1.72h24.77a1.72,1.72,0,0,1,1.72,1.72v19A1.73,1.73,0,0,1,209.06,235.27Z"/><path class="cls-6" d="M241.86,267.56H217.09a1.72,1.72,0,0,1-1.72-1.72v-19a1.72,1.72,0,0,1,1.72-1.72h24.77a1.72,1.72,0,0,1,1.72,1.72v19A1.72,1.72,0,0,1,241.86,267.56Z"/><path class="cls-7" d="M274.68,267.56H249.91a1.72,1.72,0,0,1-1.72-1.72v-19a1.72,1.72,0,0,1,1.72-1.72h24.77a1.72,1.72,0,0,1,1.72,1.72v19A1.71,1.71,0,0,1,274.68,267.56Z"/><path class="cls-6" d="M307.41,267.56H282.64a1.72,1.72,0,0,1-1.72-1.72v-19a1.72,1.72,0,0,1,1.72-1.72h24.77a1.72,1.72,0,0,1,1.72,1.72v19A1.72,1.72,0,0,1,307.41,267.56Z"/><path class="cls-7" d="M340.24,267.56H315.47a1.72,1.72,0,0,1-1.72-1.72v-19a1.72,1.72,0,0,1,1.72-1.72h24.77a1.72,1.72,0,0,1,1.72,1.72v19A1.72,1.72,0,0,1,340.24,267.56Z"/><path class="cls-7" d="M143.51,267.56H118.74a1.72,1.72,0,0,1-1.72-1.72v-19a1.72,1.72,0,0,1,1.72-1.72h24.77a1.72,1.72,0,0,1,1.72,1.72v19A1.72,1.72,0,0,1,143.51,267.56Z"/><path class="cls-6" d="M176.23,267.56H151.46a1.72,1.72,0,0,1-1.72-1.72v-19a1.72,1.72,0,0,1,1.72-1.72h24.77a1.72,1.72,0,0,1,1.72,1.72v19A1.71,1.71,0,0,1,176.23,267.56Z"/><path class="cls-7" d="M209.06,267.56H184.29a1.72,1.72,0,0,1-1.72-1.72v-19a1.72,1.72,0,0,1,1.72-1.72h24.77a1.72,1.72,0,0,1,1.72,1.72v19A1.72,1.72,0,0,1,209.06,267.56Z"/><path class="cls-6" d="M241.86,299.86H217.09a1.72,1.72,0,0,1-1.72-1.72v-19a1.72,1.72,0,0,1,1.72-1.72h24.77a1.72,1.72,0,0,1,1.72,1.72v19A1.73,1.73,0,0,1,241.86,299.86Z"/><path class="cls-7" d="M274.68,299.86H249.91a1.72,1.72,0,0,1-1.72-1.72v-19a1.72,1.72,0,0,1,1.72-1.72h24.77a1.72,1.72,0,0,1,1.72,1.72v19A1.71,1.71,0,0,1,274.68,299.86Z"/><path class="cls-6" d="M307.41,299.86H282.64a1.72,1.72,0,0,1-1.72-1.72v-19a1.72,1.72,0,0,1,1.72-1.72h24.77a1.72,1.72,0,0,1,1.72,1.72v19A1.73,1.73,0,0,1,307.41,299.86Z"/><path class="cls-7" d="M340.24,299.86H315.47a1.72,1.72,0,0,1-1.72-1.72v-19a1.72,1.72,0,0,1,1.72-1.72h24.77a1.72,1.72,0,0,1,1.72,1.72v19A1.73,1.73,0,0,1,340.24,299.86Z"/><path class="cls-7" d="M143.51,299.86H118.74a1.72,1.72,0,0,1-1.72-1.72v-19a1.72,1.72,0,0,1,1.72-1.72h24.77a1.72,1.72,0,0,1,1.72,1.72v19A1.73,1.73,0,0,1,143.51,299.86Z"/><path class="cls-6" d="M176.23,299.86H151.46a1.72,1.72,0,0,1-1.72-1.72v-19a1.72,1.72,0,0,1,1.72-1.72h24.77a1.72,1.72,0,0,1,1.72,1.72v19A1.71,1.71,0,0,1,176.23,299.86Z"/><path class="cls-7" d="M209.06,299.86H184.29a1.72,1.72,0,0,1-1.72-1.72v-19a1.72,1.72,0,0,1,1.72-1.72h24.77a1.72,1.72,0,0,1,1.72,1.72v19A1.73,1.73,0,0,1,209.06,299.86Z"/><path class="cls-5" d="M143.39,90.69h0a1.85,1.85,0,0,1-1.85-1.85v-20a1.85,1.85,0,0,1,1.85-1.85h0a1.85,1.85,0,0,1,1.85,1.85v20A1.87,1.87,0,0,1,143.39,90.69Z"/><path class="cls-5" d="M317.85,90.69h0A1.85,1.85,0,0,1,316,88.84v-20a1.85,1.85,0,0,1,1.85-1.85h0a1.85,1.85,0,0,1,1.85,1.85v20A1.87,1.87,0,0,1,317.85,90.69Z"/><path class="cls-5" d="M349,313.62H110.44a3.13,3.13,0,0,1-3-3.2V87.15a3.13,3.13,0,0,1,3-3.2H349a3.13,3.13,0,0,1,3,3.2V310.42A3.13,3.13,0,0,1,349,313.62ZM110.44,86a1.14,1.14,0,0,0-1,1.2V310.42a1.15,1.15,0,0,0,1,1.2H349a1.15,1.15,0,0,0,1-1.2V87.15a1.15,1.15,0,0,0-1-1.2Z"/><path class="cls-5" d="M177.69,137.22h0a14.29,14.29,0,1,0-27.66,0s1.46,3.63,1.85,4.23l12,22s13.24-23.94,13.81-26.11Z"/><circle class="cls-6" cx="163.85" cy="132.58" r="5.65"/><path class="cls-5" d="M239,185.24a1.88,1.88,0,0,0-2.67,0l-8.53,8.28-4.87-3.72a1.88,1.88,0,0,0-2.29,3l6.16,4.71,0,0a1.83,1.83,0,0,0,.48.25l.1,0a2.35,2.35,0,0,0,.53.09h0a2.58,2.58,0,0,0,.39,0l.11,0,.27-.09.13-.06a1.64,1.64,0,0,0,.22-.14l.12-.1.08-.06,9.7-9.42A1.88,1.88,0,0,0,239,185.24Z"/><path class="cls-8" d="M375.17,342.48q-2.87,2.1-5.89,4a121.94,121.94,0,0,1-10.85,6.23A124.22,124.22,0,0,1,346.78,358a131.32,131.32,0,0,1-15.95,5A129.53,129.53,0,0,1,312,366c-5.4-33.51-20.26-49.65-28.22-56.17l-9.62-7.88a47.33,47.33,0,0,1-13.53-18.05L246,250.69l-3.6-8.14-6.48-14.69h0l-.24-.54a2.32,2.32,0,0,1,1.9-2.73c2.49-.68,11.73-3.22,19.69,8.78.89,1.34,1.79,2.76,2.68,4.21,5.21,8.41,10.16,17.86,10.16,17.86l8.48,13.69a2.63,2.63,0,0,0,4.26-2.72s-5.38-19.44-11.49-41.83h0c-5-18.24-10.42-38.42-13.85-51.66-.57-2.2-1.08-4.22-1.53-6-.84-3.37-1.45-5.91-1.72-7.32-.13-.65-.23-1.29-.3-1.91a24.63,24.63,0,0,1-.1-6.1c.81-7.65,5.15-12.66,9-13.64,1-.26,1.95.49,2.82,1.74l.19.3h0c.28.44.55.92.82,1.44.36.76.8,1.74,1.26,2.81l.21.53c.06.14.11.28.16.42.67,1.71,1.25,3.29,1.71,4.23.18.36.73,1.77,1.56,4,.14.36.29.75.44,1.16v0c3.52,9.31,10.85,29.37,16.8,45.67,3.66,10,6.79,18.63,8.17,22.44l-.12-4.29a7.65,7.65,0,0,1,6.26-7.54l7.31-1.15a7.12,7.12,0,0,1,7.57,4l2.59,6.09.24-4.68a7.12,7.12,0,0,1,6-7.24l8.52-1.34a7.11,7.11,0,0,1,7.56,4l2.56,7.58.43-5.2a7.09,7.09,0,0,1,6-7.23l5.73-.68c3.14-.49,6.51.84,7.57,4,3.15,9.5,10.25,70,10.25,70,.55,13.3.29,21.41-2,31.49C372,316.84,371.84,329.21,375.17,342.48Z"/><path class="cls-9" d="M265.89,140c-.32-.31-.82-.29-1.65-.06-2.87.8-4.94,2.6-5.52,5.34-.48,2.22,1.51,7.23,2.64,10,.7,1.7,1.87,3.35,3.63,2.82l6.54-2.35c1.09-.52.22-2.34-.25-3.46C271.28,152.27,266.7,140.79,265.89,140Z"/><path class="cls-9" d="M247.9,239.39l-5.52,3.16-6.48-14.69a4.06,4.06,0,0,1,.87-.81,7.61,7.61,0,0,1,6.94-1c1.95.9,4.47,6.42,5.62,9A3.41,3.41,0,0,1,247.9,239.39Z"/></g></g></g></svg>