<svg xmlns="http://www.w3.org/2000/svg" xmlns:xlink="http://www.w3.org/1999/xlink" width="500" zoomAndPan="magnify" viewBox="0 0 375 374.999991" height="500" preserveAspectRatio="xMidYMid meet" version="1.0"><path fill="#e5e5e5" d="M 0 187.492188 C 0 83.945312 83.945312 0 187.492188 0 C 291.046875 0 374.984375 83.945312 374.984375 187.492188 C 374.984375 291.046875 291.046875 374.984375 187.492188 374.984375 C 83.945312 374.984375 0 291.046875 0 187.492188 " fill-opacity="1" fill-rule="nonzero"/><path fill="#ffffff" d="M 157.285156 261.777344 C 152.699219 261.777344 148.300781 259.953125 145.054688 256.714844 L 91.492188 203.148438 C 84.742188 196.394531 84.742188 185.445312 91.492188 178.695312 C 98.25 171.945312 109.195312 171.945312 115.949219 178.695312 L 157.285156 220.03125 L 259.039062 118.277344 C 265.792969 111.523438 276.734375 111.523438 283.492188 118.277344 C 290.242188 125.027344 290.242188 135.976562 283.492188 142.730469 L 169.511719 256.714844 C 166.265625 259.953125 161.867188 261.777344 157.285156 261.777344 " fill-opacity="1" fill-rule="nonzero"/></svg>