<svg xmlns="http://www.w3.org/2000/svg" viewBox="0 0 119.89 87.65"><title>Asset 1</title><g id="Layer_2" data-name="Layer 2"><g id="Layer_1-2" data-name="Layer 1"><path d="M41.34,87.63c-10.73,0-21.47,0-32.2,0-7.56,0-10.85-4-8.27-11.07A35.55,35.55,0,0,1,8.31,64.26c17-17.65,50-17.41,66.58.55A35.1,35.1,0,0,1,82.17,78c1.85,6-1.55,9.57-7.87,9.62C63.32,87.69,52.33,87.63,41.34,87.63Z"/><path d="M60.83,20.82c0,13.45-10.61,23.31-22.78,21.11C28,40.09,20.56,29.38,22,18.59,23.41,7.49,32.19-.51,42.34,0,52.75.57,60.81,9.63,60.83,20.82Z"/><path d="M99,25.37c-4.65,4.82-9,9.3-13.31,13.79-1.72,1.78-3.66,3-5.77.86s-.63-3.83,1-5.45c4.44-4.39,8.83-8.81,13.68-13.66L84.33,10.7c-1.32-1.32-2.66-2.64-4-4C78.85,5.2,78.3,3.49,80,1.81s3.38-1.29,4.94.25c3.74,3.68,7.5,7.34,11.18,11.08a38.6,38.6,0,0,1,2.78,3.69l12.5-12.35c.89-.87,1.64-2.23,2.69-2.51,1.55-.43,3.3-.09,5-.07-.15,1.56.3,3.64-.54,4.58-3.66,4.09-7.7,7.83-11.58,11.72-.79.78-1.54,1.62-2.78,2.94,3,2.88,5.9,5.7,8.81,8.54,1.87,1.84,3.74,3.68,5.57,5.55,1.51,1.55,2.11,3.61.15,4.79a5.15,5.15,0,0,1-4.81-.32c-4-3.41-7.54-7.27-11.27-11C101.6,27.79,100.6,26.87,99,25.37Z"/></g></g></svg>