<svg xmlns="http://www.w3.org/2000/svg" viewBox="0 0 2100.52 411"><defs><style>.cls-1{fill:#ce1879;}.cls-2{fill:#252c3f;}</style></defs><title>EasePro logo</title><g id="Layer_2" data-name="Layer 2"><g id="Layer_1-2" data-name="Layer 1"><path class="cls-1" d="M865,0c6.11,1.91,12.25,3.71,18.31,5.74A139.37,139.37,0,0,1,909,17.81c7.65,4.45,12.49,11.05,12.43,19.8-.21,30.93,10.24,59.07,21.68,87,8.56,20.93,17.67,41.7,22.28,64,10.41,50.37,4.23,98-24.2,141.75a130.18,130.18,0,0,1-24.82,27.93c-1.19,1-3,1.65-3.2,3.89,5.14-.2,9.73-2.17,14.35-3.77q50.81-17.64,82.69-61c21.64-29.32,39.09-60.49,46.68-96.74,9.14-43.71,25-84.84,51-121.53,22.33-31.53,50.81-55.1,89.1-64.39,32.11-7.79,63.25-6.06,91.3,13.81,29.44,20.85,40.24,50.09,36.06,85-5,42-29.79,71.4-63.11,94.59-26.58,18.5-56.69,28.27-88.32,33.83a322.74,322.74,0,0,1-44.19,4.46c-4.79.18-6.08,2.06-5.82,6.78,2.69,50.24,42.06,88.26,92.27,89.92,48,1.6,83.69-19.9,111.67-56.94,16-21.14,28.69-44.14,37-69.3,7.08-21.51,23.66-26.32,42.14-22.26,8.46,1.86,11.49,6.62,9.48,15-4.66,19.48-11.91,38.08-20.53,56.12-17.77,37.19-41.25,70-74.78,94.71-38.15,28.08-81.34,39.5-128.33,36.58-35.91-2.23-68.25-14.06-95.61-38a127.22,127.22,0,0,1-32.25-44c-.81-1.8-1.61-3.6-2.42-5.41-2.12.31-2.61,2.11-3.54,3.38-39.39,53.19-91.54,85.72-156.85,97-.81.14-1.67.13-2.17,1H831c-.58-1.09-1.68-.88-2.63-1a276.63,276.63,0,0,1-35.52-8c-23.33-7-45-17.23-64.14-32.55-4.08-3.27-6.53-7.3-5.29-12.59,3.36-14.44,11.9-24.69,25.52-30.59a14.65,14.65,0,0,1,13,.37c19.57,10,40.11,12.45,61.64,8.41,30.68-5.75,54.08-20.92,66.2-50.71,6.38-15.69,8.18-32.19,7.67-49-.83-27.31-7.91-53.17-17.89-78.43-9.65-24.42-20.1-48.6-25.21-74.57-1.79-9.1-3.54-18.21-5.33-27.44-2.65.92-4,2.87-5.65,4.5-10.24,10.4-18.43,22.32-25.6,35C801,123.91,789.52,155.64,779,187.77c-10.37,31.8-20.64,63.61-36.14,93.42-18.35,35.3-41.13,67-74,90.33-21.28,15.08-44.23,25.73-71.06,25.92-37.74.26-67.09-21.51-77.48-57.76-.65-2.27-.68-4.78-2.18-6.92-2.41,1.61-3.46,3.91-4.66,6.05a127.72,127.72,0,0,1-26.64,32.84c-35.67,31.7-86.14,34.64-123.27,7-20-14.9-33.05-34.89-41.51-58.09-1.15-3.15-2.22-6.32-3.5-10-1.31,1.66-2.13,2.69-2.94,3.73C265.33,378.44,200.41,406.69,119,394,60.28,384.81,16,342.2,3.85,283.84,2.4,276.91,2.27,269.76,0,263V230c.29-.36.81-.7.85-1.09C2.11,214.6,5.41,200.69,9,186.83c12.15-47.05,31.31-90.66,64.29-127C108.1,21.43,150.44,3.05,203,12.88c39.83,7.45,71.1,43.47,72,83.92.58,25.19-7.27,47.88-21.08,68.56-18.87,28.25-45.65,46.63-76.41,59.77C146.12,238.58,113.12,244.9,79,245.92c-6.3.19-7.42,1.43-6.59,7.47.49,3.63,1,7.26,1.61,10.87,7.41,42.33,42.35,74.45,84.34,77.67q58.8,4.53,100.8-36.77c23.11-22.69,38.77-50.15,51-79.84,8.69-21.14,13.58-43.48,20.92-65,14.89-43.72,37-82.94,72.6-113.42,25-21.42,53.5-34.69,86.83-36.11,27.08-1.16,51.33,6.2,71.77,24.54,8.13,7.29,14.51,16,20.29,25.77.91-2.09,1.66-3.72,2.35-5.38,4.06-9.66,8-19.35,12.16-29,4.41-10.28,12.45-15.25,23.5-15.5,7.66-.17,15.33-.31,23-.32a47.37,47.37,0,0,1,11.92,1c6.61,1.69,8.85,4.46,8.72,11.32-.12,6.58-2.09,12.79-3.93,19-14.67,49.6-31.37,98.56-46.76,147.93-8.2,26.34-18.88,51.91-25,78.91-3.19,14.15-6,28.37-3.56,43,2.35,14.35,11.18,21.93,25.7,22,9.3.07,17.67-2.95,25.54-7.53,14.53-8.45,25.71-20.48,35.8-33.68,17.06-22.29,27-48,36-74.22,10.62-31,18.76-62.79,30.18-93.52,12.1-32.51,27.14-63.37,51.53-88.75C804,21.45,819.94,8.79,840.17,2.56,842.79,1.75,845.76,2,848,0ZM383,260c0,3-.18,6,0,9,1.36,19.36,5.51,37.87,17.05,54,6.38,8.92,14.43,15.63,25.41,18.15,16.53,3.8,31-.91,43.88-11.13,18.74-14.89,32.6-33.69,42.47-55.37,14.08-30.93,25.33-62.88,34.75-95.53,6.79-23.52,11.56-47.07,8.54-71.81-3.46-28.4-25.56-45.72-53.92-41.75-16.44,2.3-30.89,9-44.07,18.73-17.07,12.58-29.64,29.06-40.23,47.19C393.76,171.2,382.14,214,383,260ZM201.18,101.52a55.61,55.61,0,0,0-4.34-22,22.83,22.83,0,0,0-23.91-14.36,57.18,57.18,0,0,0-27.6,10.7,131.18,131.18,0,0,0-36.14,40.24A304.74,304.74,0,0,0,73.66,210.5c-.87,4.41.59,4.68,4,4.56,38.37-1.35,71-15.32,96.14-44.75C190.66,150.6,199.38,127.35,201.18,101.52ZM1131.57,215.1c3.48-.35,7-.67,10.42-1.08,2.48-.28,5-.57,7.41-1.07,45-9.27,78.06-33.51,94.89-77.23,6.46-16.76,10-34.11,4.7-52.15-4-13.62-14.53-20.26-28.52-17.71a62,62,0,0,0-14.66,4.73c-16,7.29-27.55,19.48-37.59,33.44-22.38,31.09-34.66,66.39-43.1,103.28C1123.38,214.92,1123.62,215.16,1131.57,215.1Z"/><path class="cls-2" d="M1533.48,243.07c0-43.31.06-86.63-.1-129.95,0-4.1.89-5.26,5.13-5.23,36.15.24,72.31-.22,108.45.37,48.45.79,81.2,34.45,82.27,83.19.55,24.75-5.48,47.12-22.08,66-15.89,18.05-36.8,24.34-59.94,24.68q-29,.42-58-.07c-4.62-.08-5.35,1.35-5.32,5.55.18,28.65,0,57.31.18,86,0,3.6-.67,4.79-4.56,4.72q-20.73-.42-41.48,0c-3.83.07-4.67-1.06-4.66-4.74Q1533.59,308.3,1533.48,243.07ZM1584,194.89c0,13,.08,26-.06,39,0,2.78.69,3.68,3.59,3.66,17.49-.13,35,0,52.48-.08,11.34,0,21.39-3.23,28.64-12.52,9.9-12.66,12.55-26.9,8.52-42.36-5.31-20.37-17.25-29.58-38-29.58-16.5,0-33,.24-49.48-.14-5.05-.12-5.92,1.43-5.78,6C1584.23,170.89,1584,182.89,1584,194.89Z"/><path class="cls-2" d="M2100.49,286.12c0,56-39.93,95.6-96.1,95.76-50.16.13-95.41-38.28-94.63-97.54.74-56.26,45.19-94.32,97.65-93.33C2056.32,191.94,2101.75,228.41,2100.49,286.12Zm-47.49.62c.29-27.35-19.48-47.93-46.35-48.22-28.73-.3-48.87,19.16-49.1,47.46-.23,28.08,19.75,48.78,47.32,49S2052.69,314.88,2053,286.74Z"/><path class="cls-2" d="M1812.17,234.6c3.33-6.41,5.8-13.09,9.71-19.1,16.93-26,44.26-29.22,69.46-19.09,1.55.63,3,1.31,2.58,3.58-2.71,13.67-5.34,27.35-8,41.21a68.59,68.59,0,0,0-24.25-5.09c-20.21-.89-34,8-41.59,26.85-6.35,15.74-7.57,32.34-7.81,49-.3,20.49-.15,41,0,61.49,0,3.46-.44,4.92-4.48,4.82-13.16-.3-26.33-.22-39.49,0-3.29,0-4.18-.88-4.18-4.17q.15-87.48,0-175c0-3.21.77-4.23,4.11-4.18q20,.29,40,0c3.4,0,4.1,1,4,4.2C1812.06,210.94,1812.17,222.77,1812.17,234.6Z"/></g></g></svg>