<svg xmlns="http://www.w3.org/2000/svg" viewBox="0 0 207.1 207.07"><defs><style>.cls-1{fill:#d00078;}</style></defs><title>Asset 2</title><g id="Layer_2" data-name="Layer 2"><g id="Layer_1-2" data-name="Layer 1"><path class="cls-1" d="M207.1,94c.4,65.79-47.28,112.78-102.83,113.12C47.46,207.42.18,159.44,0,103.81-.19,47,47.92-.66,104,0c28.05.33,52.52,10.32,72.41,30.28C196.49,50.4,206.74,74.85,207.1,94ZM17.62,106.86c.74,18.55,6.91,35,18.07,49.83,2.86,3.79,4.7,4.17,7.63.47a22.32,22.32,0,0,1,4.61-3.77c15.26-11,33-13.8,51.1-15.31a97,97,0,0,1,26.81,2c14,2.76,27.23,7.47,38.17,17.11,4.26,3.76,5.49,3.66,8.55-1.21,1-1.53,1.91-3.06,2.9-4.58,12.08-18.62,16.7-39,13.38-60.88a86.29,86.29,0,0,0-66.66-71.27c-32-7.1-70.2,5.11-90.5,36.59C21.63,71.39,17.16,88.44,17.62,106.86Z"/><path class="cls-1" d="M138.16,83c0,12.43-4.07,23.17-14.19,30.93-14.64,11.24-34.71,8.72-46.32-5.64-12.86-15.9-11.62-40.67,3-54,10-9.15,21.84-12.08,34.64-7C129,52.64,136.23,63.49,138.13,78A37.59,37.59,0,0,1,138.16,83Z"/></g></g></svg>