<svg xmlns="http://www.w3.org/2000/svg" viewBox="0 0 2960 2960"><defs><style>.cls-1{fill:#57a9de;}</style></defs><title>securitate</title><g id="Layer_2" data-name="Layer 2"><g id="Layer_1-2" data-name="Layer 1"><path class="cls-1" d="M1480,0C662.62,0,0,662.62,0,1480c0,239.29,56.79,465.31,157.62,665.33h0C401.23,2628.56,901.91,2960,1480,2960c817.38,0,1480-662.62,1480-1480S2297.38,0,1480,0Zm680.66,1467.4c127.38-13.52,219.5,98.31,193.86,219.36-15.86,74.86-33.92,145.68-91.65,200.12-60.49,57-146.23,59.39-206.54,2.09-78.61-74.71-103.26-171.18-95.37-275C1967.46,1528.41,2056,1452.73,2160.66,1467.4ZM881.88,606.92c.6-24.83,1.79-50.26,12-72.88,15.64-34.79,49.75-48,85-50.69,45.5-3.4,90.49-8.93,135.14-18.88A856.69,856.69,0,0,0,1370.74,361.9c35.37-21.35,72.45-46.27,113.79-44.39,37.59,1.69,70,25.34,101.63,45.67a736.33,736.33,0,0,0,341,114.21c48.14,3.57,105.88,7.83,128.76,50.35,9.1,17,10.29,37,10.89,56.22,5.7,190.08-32.06,382.12-115.84,552.8a1038.94,1038.94,0,0,1-217.38,296.31,323.83,323.83,0,0,0-33.85-36.23l-.08.09a315.91,315.91,0,0,0-25.52-21.1C1794.1,1265.44,1880.51,1129.2,1931.79,966c40.49-128.85,59.79-261.18,55.28-396.91-11.56-2.22-18.11-4.17-24.74-4.68-168-13.1-324.2-60.38-462.75-159-19.56-13.86-34.1-5.69-50.68,5.11a1014.53,1014.53,0,0,1-167,87.6c-100.35,41.33-206.49,55.62-317.06,69.23-5.18,91-2.8,176,8.68,260.58,31.47,232.43,125.87,421.92,294.18,561.14a299.81,299.81,0,0,0-25.09,23.56c0,.08,0,.08-.09.17a298.51,298.51,0,0,0-29.51,36c-68.72-57.83-129.61-124.5-178.17-199.94C925.17,1078.25,884.18,872,881.54,668.33Q881.17,637.58,881.88,606.92Zm483.92,827.29c95.63-31.31,188.27-34.38,272.5,32.5,49.16,39,60.41,92.61,58.67,178.54-5.73,73.91-29.06,168.36-106.54,241.07-65.68,61.64-166,63.2-230.6,0-89.57-87.5-117.8-198.71-103.94-318.81C1263.15,1504.73,1301.4,1455.29,1365.8,1434.21ZM1072.25,942.49c-15.51,0-27.66-3-33.2-20.74-30.71-98.68-28.11-205.42-33.16-310.88,160.9-14,320.38-69.62,463.62-153.57V942.46C1342.92,942.46,1190.15,942.43,1072.25,942.49Zm409,369.26V963.66h402c-65.21,170.83-125.37,279.81-251,385.73A327.17,327.17,0,0,0,1481.28,1311.75ZM600,1592.52c15.56-81.22,82.71-116.06,159-124,117.32-12.22,201.77,26.82,227.86,131.87,3.7,14.89,3.84,30.66,5.37,43.82-6.64,87.15-25.25,167.29-84.82,232.2-64.39,70.16-158.69,73.83-224.54,5.59C604.75,1800.94,579.43,1700.09,600,1592.52Zm337.77,749.57c-9.41,1.65-17.51,4.3-25.61,4.31-148.55.23-297.1.83-445.64-.26-49.75-.36-82.78-37-87.79-96.22-2.85-33.71-2.5-68-.13-101.76,3.55-50.42,33.72-82.94,78.86-101.24,51-20.68,103.3-38.26,154.27-59.05,44.11-18,75.76-5.73,101.42,32.87,24,36.08,50.28,70.62,78.66,110.16C814,2100.19,833,2074.23,851.59,2048c55.45-78.43,79.69-84.06,176.34-35C906,2097.62,932.25,2221.9,937.81,2342.09ZM1937,2192.29c-1.61,29.64,0,59.45-.4,89.18-1.06,81.93-38.38,120-119.52,120.47-104.77.6-209.55.21-314.32.21-121.76,0-243.52.32-365.28-.19-87-.37-123.76-37.57-124.26-124.19-.16-28.32,1.44-56.73-.31-84.93-3.9-62.73,28.41-103.06,81.73-126.09,60.89-26.3,123.46-49.15,186.44-70,53.71-17.83,70.33-9.88,103.57,36.71,28.64,40.14,57.45,80.16,90.4,126.09,31.32-44,58.58-81.76,85.32-119.9,31.32-44.68,62.86-59.15,112.32-42.46,62.88,21.23,125.14,44.91,186,71.42C1910.93,2091.33,1940.29,2132,1937,2192.29Zm625.78,91.16c-7.89,37.3-35.87,62.17-76,62.47-151.32,1.11-302.67.54-454,.32-6.69,0-13.37-2.84-20.34-4.41,3.82-118.62,32.68-242.23-94.71-331.12,37.21-12.52,64.53-28.6,91.91-28.7,21.24-.07,47.8,15.14,62.71,31.84,30.75,34.41,55.29,74.37,86.26,117.44l74.82-105.82c30.35-42.91,57.14-53.83,105.34-37.23,53.37,18.38,106.38,38.26,158.18,60.63,50,21.59,77,61.29,74.95,117C2570.54,2205.2,2570.87,2245.3,2562.81,2283.45Z"/></g></g></svg>