<svg xmlns="http://www.w3.org/2000/svg" viewBox="0 0 412.5 366.84"><defs><style>.cls-1{fill:#f6ccc8;opacity:0.8;}.cls-1,.cls-2{isolation:isolate;}.cls-2{fill:#ef8299;opacity:0.6;}.cls-3{fill:#ffcf70;}.cls-4{fill:none;}.cls-5{fill:#f4a31b;}.cls-6{fill:#515151;}.cls-7{fill:#3a3a3a;}.cls-8{fill:#ef2691;}.cls-9{fill:#d00078;}.cls-10{fill:#f4e0c6;}</style></defs><title>subscription_2</title><g id="Layer_2" data-name="Layer 2"><g id="Layer_1-2" data-name="Layer 1"><g id="Layer_7" data-name="Layer 7"><path class="cls-1" d="M275.52,274.52c-49,47.34-122.37,44.26-203.62-9.88C36.75,241.22,28.41,227,17.62,208.2c-37.15-64.78-2.85-108,37.17-105.17,131.67,9.43,108.26-57,171.44-95.74,41-25.19,112.9,17.59,74.61,87.14-19,34.62-28.25,53.86-25.91,92.31,1.59,26.13,30.29,50.16,69.47,48.41C377,233.69,292.05,258.55,275.52,274.52Z"/><path class="cls-2" d="M408.56,312.57c-.29.67-.54,1.22-.74,1.65-.58,1.21-1.2,2.41-1.87,3.61s-1.39,2.38-2.17,3.55a59.93,59.93,0,0,1-5.14,6.72c-11.36,12.88-29.88,23.29-57.19,27.12-30.45,4.27-60.59-7.75-82-10.17-19-2.15-40.44-3.34-88.68,14.24-49.19,17.93-95.94,2.49-121-31.07-1.34-1.79-2.62-3.63-3.82-5.53-.48-.74-.95-1.49-1.4-2.25-1.55-2.57-3-5.24-4.28-8-.32-.67-.64-1.36-.94-2-1.07-2.37-2-4.8-2.9-7.29a103.79,103.79,0,0,1-4.74-47.36c.17-1.39.37-2.8.59-4.21q.4-2.53.9-5,1-5,2.39-9.74,1.2-4.14,2.66-8c27.36-72.79,120.67-81.07,158-12.67l.6,34.27.46,26.48,34.79,40.78.05,0c3,1.63,6.65,1.38,10.81-.21,13.93-5.3,33.3-25.58,50.27-40.59,9.78-8.65,21.71-24.28,28.14-26.48,31.71-10.82,54-8.61,68.55,0C412.86,263.91,416.78,293.23,408.56,312.57Z"/><path class="cls-3" d="M23.24,244.37A43.86,43.86,0,0,0,17.82,248,30.94,30.94,0,0,1,23.24,244.37Z"/><path class="cls-3" d="M186.19,246.43c-.24.15-.48.3-.73.44l.7-.44Z"/><line class="cls-4" x1="186.45" y1="246.25" x2="186.16" y2="246.43"/><path class="cls-3" d="M408.56,312.57c-.29.67-.54,1.22-.74,1.65-.57,1.21-1.19,2.42-1.87,3.61s-1.39,2.38-2.17,3.55l-295.06,1-59.92.26H46l-11.23.06L25.29,313l-2.95-3,12.51.33,4.51.12,3.58.1,23,.61L89.12,299l6-3.16L182,250.39H390C412.86,263.91,416.78,293.23,408.56,312.57Z"/><path class="cls-5" d="M185.46,198.26,195,250.38h18.36L120.4,304.22a117.58,117.58,0,0,1-68,15.84c-9.11-.71-17.75-2.5-24.92-5.67-9.79-4.32-22.94-25.33-22.94-25.33L7,260.12l12.4-21.4,21.28-10.37,135.78-16.59"/><circle class="cls-3" cx="173.85" cy="217.95" r="36.59"/><path class="cls-3" d="M407.82,314.21a56.21,56.21,0,0,1-4,7.16,59.93,59.93,0,0,1-5.14,6.72l-345.17.22H52.12c-.78,0-1.55-.05-2.32-.09a55.88,55.88,0,0,1-32.52-12.32C6.83,307.22.9,295.2.1,281.1c-.88-15.88,3.84-29.49,13.67-39.37a47.22,47.22,0,0,1,20.1-11.85c1.44-.43,2.9-.8,4.39-1.1a55.18,55.18,0,0,1,12.65-1.09v0h.16a48.7,48.7,0,0,1,33.7,13.51l.09.09c8,8,12.31,18.72,12.31,30.91a48.41,48.41,0,0,1-3.63,19.18A36.92,36.92,0,0,1,89.12,299a35.31,35.31,0,0,1-6.4,6.53c-7.14,5.64-16.84,8.87-27.45,9.2v0l-.9,0-.9,0v0a49,49,0,0,1-9.23-1.19c-1.33-.31-2.64-.67-3.94-1.09a43.5,43.5,0,0,1-5.45-2.16c-11.53-5.47-20.34-16.13-20.34-32.55,0-11.55,4.63-21.41,13-27.77a32.19,32.19,0,0,1,4.41-2.8q.61-.33,1.26-.63a35.53,35.53,0,0,1,16.49-3.4v0a28.89,28.89,0,0,1,8,1.19l.89.22v0A34.16,34.16,0,0,1,75.9,257c5.32,7.57,6.45,16.74,3.18,25.81a22.54,22.54,0,0,1-14.22,13.93,29.33,29.33,0,0,1-9.67,1.61,26.71,26.71,0,0,1-9.2-1.61L45.92,289c3.56,2.17,10.38,3.23,16.57,1.05a15.65,15.65,0,0,0,9.88-9.62c3.15-8.75.48-15.32-2.31-19.28a27.1,27.1,0,0,0-14.26-10,28.33,28.33,0,0,0-23.93,4.48l0,0-.12.1c-6.5,5-10.07,12.78-10.07,22,0,13.31,6.71,21.11,14.81,25.38A36.72,36.72,0,0,0,40.78,305a42.78,42.78,0,0,0,13.69,2.57c8.91-.18,32.14-3.26,35.23-29.43a51.92,51.92,0,0,0,.33-6,37.33,37.33,0,0,0-4.49-18.28,33.87,33.87,0,0,0-5.72-7.58,41.45,41.45,0,0,0-28.14-11.5v0a46.79,46.79,0,0,0-16.08,2c-1,.31-2.06.67-3.06,1.06a39.47,39.47,0,0,0-13.71,8.9c-8.36,8.41-12.37,20.15-11.59,33.94.84,15.1,8.16,25.73,18,32.3a49.51,49.51,0,0,0,19.29,7.43c1.08.19,2.16.33,3.24.45a53.75,53.75,0,0,0,5.65.3l178.71-3.52,10.81-.21Z"/><path class="cls-3" d="M70.25,312.15l124.13-62.71L163,183,36.69,229.14l27,5.08,13.5,8.45,7.3,2.5L94,263.05l-1.82,18.24s-4.38,17.88-7.66,19.7S70.25,312.15,70.25,312.15Z"/><ellipse class="cls-5" cx="332.59" cy="286.44" rx="32.06" ry="5.72"/><ellipse class="cls-5" cx="234.06" cy="297.52" rx="38.83" ry="6.92" transform="matrix(1, -0.07, 0.07, 1, -19.38, 16.32)"/><ellipse class="cls-6" cx="313.65" cy="243.13" rx="47.71" ry="49.68" transform="translate(42.78 533.16) rotate(-84.74)"/><path class="cls-6" d="M350.54,181.2c0-18.62-13.93-30.41-36.61-31.11-.65,0-1.3,0-2,0-23.84-.06-38.68,11.8-38.73,30.95,0,6.41,1.47,22.18,15.54,30.32l1.7,1,5.4-12-1.38-.8c-8.18-4.73-9-14.47-9-18.43,0-6.92,3.57-11.9,10.57-14.81,6.08-2.53,13.15-2.78,15.9-2.78,6.2,0,26.43,1.34,26.39,17.71,0,4-.92,13.7-9.12,18.39l-1.38.79,5.34,12.06,1.7-1C349,203.37,350.53,187.6,350.54,181.2Z"/><path class="cls-7" d="M363.09,247.76c-2.41,26.22-26.5,45.44-53.8,42.93s-47.48-25.81-45.06-52c0,0,20.82,32.43,58.09,15.65C358.58,238,363.09,247.76,363.09,247.76Z"/><ellipse class="cls-8" cx="200.28" cy="229.6" rx="72.76" ry="75.76" transform="translate(-35.34 422.76) rotate(-88.25)"/><path class="cls-8" d="M200.28,86.47c-38,0-61.64,18.75-61.64,48.93,0,10.19,2.4,35.26,24.61,48l6.56-14.71c-15-8.64-16.65-26.19-16.65-33.33,0-30.1,36.07-32.44,47.12-32.44s47.12,2.34,47.12,32.44c0,7.14-1.62,24.69-16.65,33.33l6.56,14.71c22.21-12.77,24.61-37.85,24.61-48C261.93,105.22,238.31,86.47,200.28,86.47Z"/><path class="cls-9" d="M276,232c-1.23,40.14-36.1,71.63-77.89,70.36s-74.67-34.85-73.44-75c0,0,34.71,47.42,89.87,18.41C268.22,217.58,276,232,276,232Z"/><path class="cls-10" d="M174.8,255.08a21.09,21.09,0,0,1,.5-4.67,16.69,16.69,0,0,1,1.54-4.13,21.66,21.66,0,0,1,2.6-3.84,39.61,39.61,0,0,1,3.63-3.79l3.07-2.86a16.3,16.3,0,0,0,2-2.07,8.67,8.67,0,0,0,1.19-1.91,7.35,7.35,0,0,0,.56-2.07,21.37,21.37,0,0,0,.13-2.54q0-4.66-3.71-4.66a3.81,3.81,0,0,0-2.25.58,3.88,3.88,0,0,0-1.27,1.59,7.31,7.31,0,0,0-.58,2.33,27.76,27.76,0,0,0-.13,2.81H174.8v-1.43c0-3.5.94-6.18,2.81-8.06s4.82-2.81,8.85-2.81c3.82,0,6.64.88,8.48,2.65s2.76,4.29,2.76,7.58a17.14,17.14,0,0,1-.32,3.37,12.78,12.78,0,0,1-1,3,13.7,13.7,0,0,1-1.8,2.78,25.68,25.68,0,0,1-2.7,2.78l-4.24,3.92a16,16,0,0,0-2.65,3,8.63,8.63,0,0,0-1.22,2.52h14.15v5.94H174.8Z"/><path class="cls-10" d="M210.64,224.23l-.79,8.54H210a6,6,0,0,1,2.76-2.15,11.43,11.43,0,0,1,4.13-.66,8.81,8.81,0,0,1,4.48,1,7.91,7.91,0,0,1,2.81,2.73,11.79,11.79,0,0,1,1.46,3.84,22.71,22.71,0,0,1,.42,4.37,28,28,0,0,1-.53,5.67,11,11,0,0,1-1.88,4.37,8.27,8.27,0,0,1-3.68,2.76,16.2,16.2,0,0,1-5.94.93,14.7,14.7,0,0,1-5.75-.95,8.16,8.16,0,0,1-3.37-2.52,8.58,8.58,0,0,1-1.56-3.39,16.51,16.51,0,0,1-.4-3.42v-1h7.32a17.64,17.64,0,0,0,.11,2,6.84,6.84,0,0,0,.5,2,3.91,3.91,0,0,0,1.14,1.54,3,3,0,0,0,2,.61,3.62,3.62,0,0,0,3.42-1.83,11.45,11.45,0,0,0,1-5.49,29.55,29.55,0,0,0-.21-3.87,6.87,6.87,0,0,0-.72-2.44,2.85,2.85,0,0,0-1.35-1.27,5.26,5.26,0,0,0-2.12-.37,3.3,3.3,0,0,0-2.52.93,4.44,4.44,0,0,0-1.09,2.52h-6.84l1.38-20.41h19.56v5.94Z"/></g></g></g></svg>