<svg xmlns="http://www.w3.org/2000/svg" viewBox="0 0 424.39 356.4"><defs><style>.cls-1{fill:#f6ccc8;}.cls-1,.cls-11{opacity:0.8;}.cls-1,.cls-11,.cls-2{isolation:isolate;}.cls-2{fill:#ef8299;opacity:0.6;}.cls-3{fill:#ffcf70;}.cls-4{fill:#515151;}.cls-5{fill:#3a3a3a;}.cls-6{fill:#d00078;}.cls-7{fill:#f6926a;}.cls-8{fill:#f49878;}.cls-9{fill:#ea8e6e;}.cls-10{fill:#e08463;}.cls-11{fill:#ffd7d2;}.cls-12{fill:#f4a31b;}.cls-13{fill:#ef2691;}</style></defs><title>subscription_3</title><g id="Layer_2" data-name="Layer 2"><g id="Layer_1-2" data-name="Layer 1"><g id="Layer_8" data-name="Layer 8"><path class="cls-1" d="M342.92,8.27C390.36,24.56,424.39,68.88,424.39,121c0,65.94-54.47,119.4-121.67,119.4a121.93,121.93,0,0,1-108.3-64.94"/><path class="cls-2" d="M321,331.79c-62.16,35-155.53,27.93-229.62-17.29C83.74,309.81,77,306.94,73,304.17A240.41,240.41,0,0,1,24.5,259.49C12.3,244.65,3.7,230.21,1.38,219.82c-6.3-28.22,9.48-45.78,37-48.76a55.61,55.61,0,0,1,11.75,0c1.9.2,3.86.49,5.86.88a76.31,76.31,0,0,1,8.28,2.11l1.11.35c29.82,9.81,57.06,27.53,71.86,23.47,16.23-4.46,51.1-35.38,79.06-59.66,22.13-19.23,89.51-44.44,137.08,7.65C402.26,199.36,399.35,287.69,321,331.79Z"/><path class="cls-3" d="M360.11,80.19,288.11,322s-24.24,9.72-61.21,3.45l-1.06-.67c-8.59-5.47-35.32-23.62-53.62-37.26h0c-10.15-7.55-17.72-13.7-18.17-15.53-4.17-16.61-8.54-20.37-12.65-25.29-2.23-2.67-6.22-7.78-11.12-14.15,0,0,0,0,0,0-4.19-5.44-9-11.79-14-18.32-1.75-2.31-3.52-4.66-5.28-7,0,0,0,0,0,0l0,0c-3.15-4.16-6.24-8.29-9.18-12.18h0c-.13-3.47,0-5.46,0-5.46L297.27,41.36Z"/><path class="cls-4" d="M316.76,130.32c-.59,1.08-5.69-.75-11.38-4.1s-9.63-6.82-9-7.9,5.48.63,11.18,4S317.35,129.24,316.76,130.32Z"/><polygon class="cls-4" points="288.72 186.13 264.82 172.09 296.33 118.32 316.73 130.36 288.72 186.13"/><path class="cls-5" d="M288.58,186.39c-.59,1.08-6.47-1.21-13.14-5.13s-11.35-7.83-10.76-8.91,6.23,1.07,12.9,5S289.16,185.3,288.58,186.39Z"/><path class="cls-4" d="M248.5,231.06h0a1.86,1.86,0,0,1-.65-2.49l26.38-48.5a1.72,1.72,0,0,1,2.39-.7h0a1.86,1.86,0,0,1,.65,2.49l-26.38,48.5A1.72,1.72,0,0,1,248.5,231.06Z"/><path class="cls-6" d="M249.52,235.9l-1.83,4.51-6.41-3.77C244,236.51,246.73,236.26,249.52,235.9Z"/><path class="cls-5" d="M254.27,224.15l-4.75,11.75q-4.19.54-8.23.74l-.08,0,10-14.23Z"/><path class="cls-7" d="M251.34,258.32c-1.73,2-5.35,5.39-8.66,6.66a24.78,24.78,0,0,1-7.44,1.6c-1.35.1-3.84.16-7.13.22l-5.88.07c-7.48.06-25.86-2-32.67-2l-32.17-3.81L85,184.91l-1.7-14.55c.89.91,1.8,1.84,2.71,2.81a174.67,174.67,0,0,0,49.9,58.05S191,274,251.34,258.32Z"/><path class="cls-8" d="M253,253.38a8.78,8.78,0,0,1-2.49,5.88c-60.3,15.66-114.55-28-114.55-28a174.65,174.65,0,0,1-49.9-58.05c16.44,17.22,38.16,42.45,65.17,44.6,20.32,1.62,46.44-2.34,58.73-4.62,6.54-1.21,11.27-2.08,11.69-2.11a2.42,2.42,0,0,1,.66,0,2,2,0,0,1,1.65,1.3c.84,2.87-.67,7.58-5.27,11a19.45,19.45,0,0,1-5.29,2.84c-1,.38-2.87,1-5.36,1.74l-4.44,1.33c-5.66,1.7-20,4.17-25.2,5.66l-17.93,4.06a.46.46,0,0,0,0,.91c11.83,1.57,61.34,8.09,75.18,9.44,8.38.83,14.44,1.44,15,1.56a3.51,3.51,0,0,1,.79.27A2.45,2.45,0,0,1,253,253.38Z"/><path class="cls-7" d="M146.64,280.18l54.88,15.71c6.67,1.36,24.28,7,31.62,8.46l5.77,1.1c3.24.6,5.68,1,7,1.21a25,25,0,0,0,7.61-.08c7.2-1.2,11.66-5.6,12.41-9.31a2.49,2.49,0,0,0-1.09-2.43,3.43,3.43,0,0,0-.72-.43c-.5-.21-98.34-30.69-98.34-30.69a22.21,22.21,0,0,1-8.49-5.53l-46.34-51Z"/><path class="cls-7" d="M226.9,325.43c-20.12-3.41-44-11.55-69.83-28.57C108.48,264.82,102.45,212,101.8,195L111,207.17l0,0v0c1.76,2.32,3.53,4.67,5.28,7,4.94,6.53,9.78,12.88,14,18.32v0c4.89,6.36,8.89,11.47,11.12,14.15,4.1,4.92,8.47,8.68,12.65,25.29.45,1.82,8,8,18.17,15.53h0c18.31,13.64,45,31.79,53.62,37.26Z"/><path class="cls-9" d="M239.5,336.13c-1.18,2.37-4.23,4.59-8.45,5.44a20.06,20.06,0,0,1-6,.26,23.38,23.38,0,0,1-5.7-1.3c-.54-.18-1.1-.39-1.66-.63-1.26-.52-3.5-1.59-6.46-3L206,334.29c-6.7-3.32-20.88-12.48-27-15.56l-2.11-1.19-58.6-33.15h0c-1.3-.66-2.55-1.27-3.7-1.82C95.29,273.3,88.93,288,88,292.91c-.24,1.29-.57,4.53-1,8.78-1.14,12-2.91,31.91-5,39C77.49,356.41,69.31,356,66.73,356.37A3.41,3.41,0,0,1,63.32,354a.06.06,0,0,1,0,0s.3-5.74.32-15.29v-.91c0-30.83-4.1-51.43-4.1-51.43h0c-3.38-19.86-19.82-40.12-22.65-52.74a29.34,29.34,0,0,1-.64-4.87,9.34,9.34,0,0,0-.69-3.09,9.48,9.48,0,0,0-8.73-5.76H1.38c0-.06,0-.13,0-.2A59.69,59.69,0,0,1,.08,208.14,49.34,49.34,0,0,1,1.46,196C6,177.3,21.8,163.5,45.82,160.05c16.58-2.37,33,5.66,37.51,10.32l0,0c.25.34,1.86,2.5,4.41,5.9,3.36,4.51,8.37,11.18,14,18.68h0c.65,17,6.68,69.83,55.27,101.87,25.82,17,49.71,25.15,69.83,28.57,6.56,4.17,11.21,7.15,11.61,7.47a4.1,4.1,0,0,1,.58.6A2.45,2.45,0,0,1,239.5,336.13Z"/><path class="cls-6" d="M232.51,338.83c2.66,0,4.73-1.58,6-4.09a7.94,7.94,0,0,0,.55-1.25,3.29,3.29,0,0,0-.58-.6c-.42-.34-5.55-3.62-12.66-8.14a1.9,1.9,0,0,0-.92.7l-3.1,5.08c-.84,1.54.47,2.94,1.91,3.92C226.07,336,230.35,338.85,232.51,338.83Z"/><path class="cls-6" d="M248,259c2.37-1.21,3.5-3.55,3.53-6.37a8.66,8.66,0,0,0-.07-1.37,3.34,3.34,0,0,0-.79-.27c-.53-.11-6.59-.72-15-1.55a1.82,1.82,0,0,0-.5,1l-.47,5.94c0,1.75,1.74,2.41,3.48,2.63C241,259.36,246.06,260,248,259Z"/><path class="cls-6" d="M221.36,217.69a5.35,5.35,0,0,0,1.28-5.61,6.11,6.11,0,0,0-.35-1,2.4,2.4,0,0,0-.66,0c-.43,0-5.15.9-11.69,2.11a1.49,1.49,0,0,0-.15.9l.94,4.6c.34,1.34,1.85,1.45,3.21,1.23C216.14,219.53,220.13,218.86,221.36,217.69Z"/><path class="cls-6" d="M71.53,352.64a7.48,7.48,0,0,1-6.62,2,9.93,9.93,0,0,1-1.6-.65.06.06,0,0,1,0,0s.3-5.74.32-15.29l6.15.33a3.37,3.37,0,0,1,3.08,3.29C72.88,345,72.91,351,71.53,352.64Z"/><path class="cls-6" d="M259.7,301.59c2.56-.72,4.14-2.78,4.73-5.54a8.48,8.48,0,0,0,.2-1.35,3.43,3.43,0,0,0-.72-.43c-.5-.21-6.31-2-14.36-4.5a1.82,1.82,0,0,0-.7.92l-1.65,5.72c-.4,1.71,1.23,2.71,2.88,3.27C252.76,300.59,257.63,302.18,259.7,301.59Z"/><path class="cls-10" d="M35.54,225.6a9.48,9.48,0,0,0-8.73-5.76H1.38c0-.06,0-.13,0-.2A59.69,59.69,0,0,1,.08,208.12,49.34,49.34,0,0,1,1.46,196c6,1.46,17.25,5.87,17.25,5.87C40.5,210.89,35.66,225.09,35.54,225.6Z"/><path class="cls-7" d="M424.36,122.87c0,1.26-.07,2.53-.16,3.78-.05,1-.13,2-.22,3a.17.17,0,0,0,0,.07,111.64,111.64,0,0,1-3.59,21c-17.68,9.58-52.46,19.87-60.23,22.65-.6.22-1.21.42-1.81.63a25.27,25.27,0,0,1-8.86,1.45h-.05L314,174.94l-8.69-.12h-.43l-7.17-.11h-.75l-7.33-.1H289a2.29,2.29,0,0,1-1.67-2.8c.41-2.49,1.92-11.73,15.82-13.93,1.55-.24,3.19-.46,4.83-.65,5-.62,24.16-4.36,41.23-7.79a23.64,23.64,0,0,0,4.7-1.48,22,22,0,0,0,3.31-1.8,22.49,22.49,0,0,0,3.83-3.17c.33-.34.64-.68.95-1a23.47,23.47,0,0,0,2.06-2.83c.25-.39.48-.8.7-1.21l.33-.62c.21-.41.4-.84.58-1.27a22.48,22.48,0,0,0,1.57-12.25c-.06-.4-.13-.8-.21-1.19l-.15-.65c-.16-.65-.35-1.3-.55-1.94s-.46-1.28-.74-1.91c-.19-.42-.38-.85-.6-1.26l-8.95-17.17a3.77,3.77,0,0,0-.34-.54c-.13-.17-.26-.34-.39-.48a4.59,4.59,0,0,0-1.47-1.08,5.59,5.59,0,0,0-.57-.22c-.2-.06-.39-.11-.59-.15s-.4,0-.61-.06a4,4,0,0,0-1.49.17L321.86,106a8.15,8.15,0,0,0-4.13,2.82c-4.24,5.34-15.61,19.7-20.3,25.53-1.34,1.69-2.61,3.22-3.72,4.57-2.09,2.56-3.68,4.46-4.6,5.47a25,25,0,0,1-5.89,4.86c-6.3,3.71-12.56,3.2-15.53.84a2.47,2.47,0,0,1-.73-2.54,3.38,3.38,0,0,1,.28-.81c0-.08.19-.33.42-.68l.11-.18.05-.07c.06-.11.14-.23.22-.35l.44-.71c0-.08.09-.15.14-.23L269,144c.07-.11.13-.22.21-.33s.24-.35.36-.54a1.28,1.28,0,0,1,.11-.2l.34-.53c.12-.18.25-.37.36-.57s.14-.2.2-.3l.55-.86a1.88,1.88,0,0,1,.12-.18c0-.08.1-.16.15-.24l.16-.24v0q.35-.53.69-1.08l.2-.31c.19-.28.36-.56.55-.85l.34-.51.57-.89c.06-.11.13-.21.2-.32s.27-.4.4-.61c.3-.45.6-.93.91-1.4.13-.18.23-.36.35-.55h0c4.74-7.34,10.77-16.64,16.23-25,4.46-6.85,8.54-13.08,11.22-17.14A13,13,0,0,1,309,86.47l3.79-1.42,23.51-8.83,22-8.28,1.21-.45.22-.08.4-.15a21.51,21.51,0,0,1,12.5-.8L409,75.05l6.3,1.49c1.15,2.7,2.21,5.45,3.15,8.21A110.31,110.31,0,0,1,424.36,122.87Z"/><path class="cls-11" d="M275.55,149.06c-2.43,1.1-5,.54-7.2-1.19a9.22,9.22,0,0,1-1-.9,3,3,0,0,1,.28-.79c.24-.49,3.53-5.62,8.11-12.72a1.91,1.91,0,0,1,1.13.25l5,3.32c1.41,1.05.81,2.87-.1,4.37C280.23,143.81,277.52,148.18,275.55,149.06Z"/><path class="cls-11" d="M304.35,168.83l.51,6-15.26-.31a4.2,4.2,0,0,1-.35-1.07,7.26,7.26,0,0,1,1.94-6.38c1.56-1.32,7.33-1.28,10-1.24A3.24,3.24,0,0,1,304.35,168.83Z"/><path class="cls-9" d="M357.26,146.14A22.75,22.75,0,0,0,365,116.78l-8.95-17.17a4.69,4.69,0,0,0-4-2.53h0a8.43,8.43,0,0,1,10.41,3.7l13.41,23.7A9.94,9.94,0,0,1,372,138.12Z"/><path class="cls-12" d="M194.51,46.27A29.73,29.73,0,1,1,167.45,0a26.84,26.84,0,0,0,27.06,46.27Z"/><circle class="cls-4" cx="360.11" cy="25.78" r="24.28"/><path class="cls-13" d="M424.36,122.87c0,1.25-.08,2.52-.16,3.78-.05,1-.13,2-.22,3a.17.17,0,0,0,0,.07l-2.48-1.52-.4-.24L357.71,89.28l-.82-.5c-.42-.27-.76-.46-1-.6l-.34-.21-.15-.08L336.26,76.2,318.11,65.11l-79-48.25C268.41-1.72,307.12-5.42,342.94,8.14c.94.35,1.87.72,2.8,1.09l.17.07,1.79.74c2.67,1.13,5.32,2.37,7.94,3.7l2.08,1.08c.63.34,1.26.67,1.89,1q2.59,1.41,5.14,3c3.57,2.18,7,4.51,10.28,7,1.09.82,2.17,1.65,3.23,2.5s2.1,1.7,3.13,2.57,1.9,1.64,2.83,2.48c.28.26.55.5.83.77l.84.77,1.45,1.37,1.42,1.4a123.23,123.23,0,0,1,26.47,38.89c1.15,2.7,2.21,5.45,3.15,8.21A109.6,109.6,0,0,1,424.36,122.87Z"/><path class="cls-6" d="M424.36,122.87c0,1.26-.07,2.53-.16,3.78-.05,1-.13,2-.22,3h0l-2.48-1.45-.4-.24c-16.25-9.57-54-32.91-63.38-38.69l-.82-.5c-.42-.27-.76-.46-1-.6l-.34-.21c0-.07,0-.14,0-.21a151.9,151.9,0,0,0,2.67-19.84,127.78,127.78,0,0,0,.06-16.58c-.22-3.34-.57-6.47-1-9.39C354,20.44,345.43,10,345.43,10a4.6,4.6,0,0,0-.06-.52l.37-.28.17.07,1.79.74c2.67,1.13,5.32,2.37,7.94,3.7l2.08,1.08c.63.34,1.26.67,1.89,1q2.59,1.41,5.14,3c3.57,2.18,7,4.51,10.28,7,1.09.82,2.17,1.65,3.23,2.5s2.1,1.71,3.13,2.57,1.89,1.64,2.82,2.49l.84.76.84.77,1.45,1.37,1.42,1.4a123.23,123.23,0,0,1,26.47,38.89c1.15,2.7,2.21,5.45,3.15,8.21A109.51,109.51,0,0,1,424.36,122.87Z"/></g></g></g></svg>