<svg xmlns="http://www.w3.org/2000/svg" viewBox="0 0 425.3 367.32"><defs><style>.cls-1{fill:#f6ccc8;opacity:0.8;}.cls-1,.cls-2{isolation:isolate;}.cls-2{fill:#ef8299;opacity:0.6;}.cls-3{fill:#ef2691;}.cls-4{fill:#d00078;}.cls-5{fill:#fff2e3;}.cls-6{fill:#ffcf70;}.cls-7{fill:#f4a31b;}.cls-8{fill:#ffe3ac;}.cls-9{fill:#3a3a3a;}.cls-10{fill:#282828;}.cls-11{fill:#515151;}.cls-12{fill:#636363;}</style></defs><title>subscription_1</title><g id="Layer_2" data-name="Layer 2"><g id="Layer_1-2" data-name="Layer 1"><g id="Layer_6" data-name="Layer 6"><path class="cls-1" d="M351.44,125.39c16.53,96.73-102,171.34-216.61,178.86-68.69,4.51-81.36-32.86-53.58-48.56,87.51-49.47,93.84-73.46,60.49-143.49C112,49.71,153.92,7,205.72.77,279.29-8.08,340.41,60.85,351.44,125.39Z"/><path class="cls-2" d="M424.76,228.15C429.65,278,401,323.53,353,340.25c-59.6,20.75-96.9-14.64-167.32-14.64-67.64,0-90.38,32.35-123.35,40-46.25,10.73-79-31.18-53.28-68,17.45-24.95,62.82-38.07,87-25.39,26,13.67,19.53,21.85,44.65,10.73a131.45,131.45,0,0,0,32.46-20.76,168.47,168.47,0,0,0,13-12.5q5.56-6,10.62-12.39h0A256.28,256.28,0,0,0,213,214.12c3.81-6.05,7.37-12.18,10.73-18.27q3-5.41,5.8-10.78l1.37-2.63c.58-1.11,1.17-2.21,1.76-3.28,1.05-1.88,2.14-3.69,3.27-5.45h0a97,97,0,0,1,7.39-10.16c1.11-1.35,2.26-2.66,3.43-3.92q.68-.74,1.38-1.44a86.08,86.08,0,0,1,6.88-6.42.75.75,0,0,1,.14-.12C315.83,101,417.21,151.14,424.76,228.15Z"/><path class="cls-3" d="M337.85,246.68c-2.13-5-11-14.37-22.62-14.37H158.44a24,24,0,0,0-11,2.62l-91,46.75c-4.29,2.13-9.92,8-9.92,22,0,15.47,12.3,27.65,33.93,27.65H289.62a11.36,11.36,0,0,0,7.2-2.5h0l.19-.15.12-.17c3.33-3.42,33.78-34.75,36.9-38.07,3.3-3.51.36-12.41-3.26-12l-4,.38,7.31-6C343,262.68,340,251.69,337.85,246.68Z"/><path class="cls-4" d="M277.84,319.13l-197,3c-9.42,0-18.56-9.89-18.5-18.36,0-5.74,5.51-10.28,11.91-10.28H266.78c7.78,0,14.13,5.58,14.34,12.51a.38.38,0,0,1-.4.36l-206.85-5.7a3.4,3.4,0,0,0-3.56,3.2c0,4.47,4.75,13.36,9.73,13.36L281.89,312a16.68,16.68,0,0,0,11.72-4.67s30.83-26.37,33.18-28.46c2.85-2.54,11.89.95,8,10.43,0,0-34.88,19.76-39.26,23.48C287.51,319.59,284.55,319.13,277.84,319.13Z"/><path class="cls-5" d="M247.67,319.59a14.3,14.3,0,0,0,0,11.77h-12.5s-3-4.54,0-11.58Z"/><path class="cls-5" d="M229.65,319.86a13.82,13.82,0,0,0,.13,11.5h-12.5s-3-4.27,0-11.31Z"/><path class="cls-6" d="M346.16,196.82c-2.14-5-11-14.37-22.74-14.37H165.79a24.29,24.29,0,0,0-11,2.62L63.28,231.82c-4.31,2.13-11.1,7.93-11.1,21.3,0,15.47,13.49,28.38,35.23,28.38H297.66a11.4,11.4,0,0,0,7.23-2.5h0l.19-.15.12-.17c3.35-3.42,34-34.75,37.1-38.07,3.32-3.51.36-12.41-3.28-12l-4,.38,7.35-6C351.38,212.82,348.3,201.83,346.16,196.82Z"/><path class="cls-7" d="M285.82,269.27l-198.07,3c-9.47,0-18.66-9.89-18.6-18.36,0-5.74,5.54-10.28,12-10.28H274.7c7.82,0,14.2,5.58,14.42,12.51a.38.38,0,0,1-.4.36l-208-5.7a3.4,3.4,0,0,0-3.58,3.2c0,4.47,4.77,13.36,9.78,13.36L289.9,262.1a16.8,16.8,0,0,0,11.78-4.67s31-26.37,33.36-28.46c2.87-2.54,11.95.95,8.09,10.43,0,0-35.07,19.76-39.47,23.48C295.55,269.73,292.57,269.27,285.82,269.27Z"/><path class="cls-5" d="M255.5,269.73a14.21,14.21,0,0,0,0,11.77H242.93s-3-4.54,0-11.58Z"/><path class="cls-5" d="M237.38,270a13.77,13.77,0,0,0,.13,11.5H224.94s-3-4.27,0-11.31Z"/><path class="cls-7" d="M318.82,213.26c3.23,11.31-14.81,18.75-36.13,20.52-26.34,2.19-47-3.63-49.47-11.63-1.59-5.24,6.52-12.53,18.84-17.07,7.35-2.71,17.33-2.57,32.76-2.67,9.45-.06,10.59,4.41,17.65,4.89S317.09,207.22,318.82,213.26Z"/><path class="cls-7" d="M86.62,219.9l4.45,3.53c.92.86,153.54-2.56,153.54-2.56l-7.72-2.77Z"/><path class="cls-5" d="M242.81,93V218.25a1.27,1.27,0,0,1-1.31,1.23H88.59a1.28,1.28,0,0,1-1.31-1.23V93a1.28,1.28,0,0,1,1.31-1.24H241.5A1.28,1.28,0,0,1,242.81,93Z"/><path class="cls-4" d="M240.75,103.58H88.68a2.06,2.06,0,0,1-2.06-2.06V89.81a2.06,2.06,0,0,1,2.06-2.06H240.75a2.06,2.06,0,0,1,2.06,2.06v11.71A2.06,2.06,0,0,1,240.75,103.58Z"/><path class="cls-8" d="M171.91,137.15H157.33a1.72,1.72,0,0,1-1.72-1.72v-9.55a1.72,1.72,0,0,1,1.72-1.72h14.58a1.72,1.72,0,0,1,1.72,1.72v9.55A1.71,1.71,0,0,1,171.91,137.15Z"/><path class="cls-6" d="M192.88,137.15H178.3a1.72,1.72,0,0,1-1.72-1.72v-9.55a1.72,1.72,0,0,1,1.72-1.72h14.58a1.72,1.72,0,0,1,1.72,1.72v9.55A1.71,1.71,0,0,1,192.88,137.15Z"/><path class="cls-8" d="M213.79,137.15H199.21a1.72,1.72,0,0,1-1.72-1.72v-9.55a1.72,1.72,0,0,1,1.72-1.72h14.58a1.72,1.72,0,0,1,1.72,1.72v9.55A1.72,1.72,0,0,1,213.79,137.15Z"/><path class="cls-6" d="M234.76,137.15H220.18a1.72,1.72,0,0,1-1.72-1.72v-9.55a1.72,1.72,0,0,1,1.72-1.72h14.58a1.72,1.72,0,0,1,1.72,1.72v9.55A1.72,1.72,0,0,1,234.76,137.15Z"/><path class="cls-8" d="M171.91,156.41H157.33a1.72,1.72,0,0,1-1.72-1.72v-9.55a1.72,1.72,0,0,1,1.72-1.72h14.58a1.72,1.72,0,0,1,1.72,1.72v9.55A1.71,1.71,0,0,1,171.91,156.41Z"/><path class="cls-6" d="M192.88,156.41H178.3a1.72,1.72,0,0,1-1.72-1.72v-9.55a1.72,1.72,0,0,1,1.72-1.72h14.58a1.72,1.72,0,0,1,1.72,1.72v9.55A1.71,1.71,0,0,1,192.88,156.41Z"/><path class="cls-8" d="M213.79,156.41H199.21a1.72,1.72,0,0,1-1.72-1.72v-9.55a1.72,1.72,0,0,1,1.72-1.72h14.58a1.72,1.72,0,0,1,1.72,1.72v9.55A1.72,1.72,0,0,1,213.79,156.41Z"/><path class="cls-6" d="M234.76,156.41H220.18a1.72,1.72,0,0,1-1.72-1.72v-9.55a1.72,1.72,0,0,1,1.72-1.72h14.58a1.72,1.72,0,0,1,1.72,1.72v9.55A1.72,1.72,0,0,1,234.76,156.41Z"/><path class="cls-6" d="M109.09,156.41H94.51a1.72,1.72,0,0,1-1.72-1.72v-9.55a1.72,1.72,0,0,1,1.72-1.72h14.58a1.72,1.72,0,0,1,1.72,1.72v9.55A1.72,1.72,0,0,1,109.09,156.41Z"/><path class="cls-8" d="M130,156.41H115.41a1.72,1.72,0,0,1-1.72-1.72v-9.55a1.72,1.72,0,0,1,1.72-1.72H130a1.72,1.72,0,0,1,1.72,1.72v9.55A1.71,1.71,0,0,1,130,156.41Z"/><path class="cls-6" d="M151,156.41H136.38a1.72,1.72,0,0,1-1.72-1.72v-9.55a1.72,1.72,0,0,1,1.72-1.72H151a1.72,1.72,0,0,1,1.72,1.72v9.55A1.71,1.71,0,0,1,151,156.41Z"/><path class="cls-8" d="M171.91,174.73H157.33a1.72,1.72,0,0,1-1.72-1.72v-9.55a1.72,1.72,0,0,1,1.72-1.72h14.58a1.72,1.72,0,0,1,1.72,1.72V173A1.71,1.71,0,0,1,171.91,174.73Z"/><path class="cls-6" d="M192.88,174.73H178.3a1.72,1.72,0,0,1-1.72-1.72v-9.55a1.72,1.72,0,0,1,1.72-1.72h14.58a1.72,1.72,0,0,1,1.72,1.72V173A1.71,1.71,0,0,1,192.88,174.73Z"/><path class="cls-8" d="M213.79,174.73H199.21a1.72,1.72,0,0,1-1.72-1.72v-9.55a1.72,1.72,0,0,1,1.72-1.72h14.58a1.72,1.72,0,0,1,1.72,1.72V173A1.72,1.72,0,0,1,213.79,174.73Z"/><path class="cls-6" d="M234.76,174.73H220.18a1.72,1.72,0,0,1-1.72-1.72v-9.55a1.72,1.72,0,0,1,1.72-1.72h14.58a1.72,1.72,0,0,1,1.72,1.72V173A1.72,1.72,0,0,1,234.76,174.73Z"/><path class="cls-6" d="M109.09,174.73H94.51A1.72,1.72,0,0,1,92.79,173v-9.55a1.72,1.72,0,0,1,1.72-1.72h14.58a1.72,1.72,0,0,1,1.72,1.72V173A1.72,1.72,0,0,1,109.09,174.73Z"/><path class="cls-8" d="M130,174.73H115.41a1.72,1.72,0,0,1-1.72-1.72v-9.55a1.72,1.72,0,0,1,1.72-1.72H130a1.72,1.72,0,0,1,1.72,1.72V173A1.71,1.71,0,0,1,130,174.73Z"/><path class="cls-6" d="M151,174.73H136.38a1.72,1.72,0,0,1-1.72-1.72v-9.55a1.72,1.72,0,0,1,1.72-1.72H151a1.72,1.72,0,0,1,1.72,1.72V173A1.71,1.71,0,0,1,151,174.73Z"/><path class="cls-8" d="M171.91,193.41H157.33a1.72,1.72,0,0,1-1.72-1.72v-9.55a1.72,1.72,0,0,1,1.72-1.72h14.58a1.72,1.72,0,0,1,1.72,1.72v9.55A1.71,1.71,0,0,1,171.91,193.41Z"/><path class="cls-6" d="M192.88,193.41H178.3a1.72,1.72,0,0,1-1.72-1.72v-9.55a1.72,1.72,0,0,1,1.72-1.72h14.58a1.72,1.72,0,0,1,1.72,1.72v9.55A1.71,1.71,0,0,1,192.88,193.41Z"/><path class="cls-8" d="M213.79,193.41H199.21a1.72,1.72,0,0,1-1.72-1.72v-9.55a1.72,1.72,0,0,1,1.72-1.72h14.58a1.72,1.72,0,0,1,1.72,1.72v9.55A1.72,1.72,0,0,1,213.79,193.41Z"/><path class="cls-6" d="M234.76,193.41H220.18a1.72,1.72,0,0,1-1.72-1.72v-9.55a1.72,1.72,0,0,1,1.72-1.72h14.58a1.72,1.72,0,0,1,1.72,1.72v9.55A1.72,1.72,0,0,1,234.76,193.41Z"/><path class="cls-6" d="M109.09,193.41H94.51a1.72,1.72,0,0,1-1.72-1.72v-9.55a1.72,1.72,0,0,1,1.72-1.72h14.58a1.72,1.72,0,0,1,1.72,1.72v9.55A1.72,1.72,0,0,1,109.09,193.41Z"/><path class="cls-8" d="M130,193.41H115.41a1.72,1.72,0,0,1-1.72-1.72v-9.55a1.72,1.72,0,0,1,1.72-1.72H130a1.72,1.72,0,0,1,1.72,1.72v9.55A1.71,1.71,0,0,1,130,193.41Z"/><path class="cls-6" d="M151,193.41H136.38a1.72,1.72,0,0,1-1.72-1.72v-9.55a1.72,1.72,0,0,1,1.72-1.72H151a1.72,1.72,0,0,1,1.72,1.72v9.55A1.71,1.71,0,0,1,151,193.41Z"/><path class="cls-8" d="M171.91,212.1H157.33a1.72,1.72,0,0,1-1.72-1.72v-9.55a1.72,1.72,0,0,1,1.72-1.72h14.58a1.72,1.72,0,0,1,1.72,1.72v9.55A1.71,1.71,0,0,1,171.91,212.1Z"/><path class="cls-6" d="M192.88,212.1H178.3a1.72,1.72,0,0,1-1.72-1.72v-9.55a1.72,1.72,0,0,1,1.72-1.72h14.58a1.72,1.72,0,0,1,1.72,1.72v9.55A1.71,1.71,0,0,1,192.88,212.1Z"/><path class="cls-8" d="M213.79,212.1H199.21a1.72,1.72,0,0,1-1.72-1.72v-9.55a1.72,1.72,0,0,1,1.72-1.72h14.58a1.72,1.72,0,0,1,1.72,1.72v9.55A1.72,1.72,0,0,1,213.79,212.1Z"/><path class="cls-6" d="M234.76,212.1H220.18a1.72,1.72,0,0,1-1.72-1.72v-9.55a1.72,1.72,0,0,1,1.72-1.72h14.58a1.72,1.72,0,0,1,1.72,1.72v9.55A1.72,1.72,0,0,1,234.76,212.1Z"/><path class="cls-6" d="M109.09,212.1H94.51a1.72,1.72,0,0,1-1.72-1.72v-9.55a1.72,1.72,0,0,1,1.72-1.72h14.58a1.72,1.72,0,0,1,1.72,1.72v9.55A1.72,1.72,0,0,1,109.09,212.1Z"/><path class="cls-8" d="M130,212.1H115.41a1.72,1.72,0,0,1-1.72-1.72v-9.55a1.72,1.72,0,0,1,1.72-1.72H130a1.72,1.72,0,0,1,1.72,1.72v9.55A1.71,1.71,0,0,1,130,212.1Z"/><path class="cls-6" d="M151,212.1H136.38a1.72,1.72,0,0,1-1.72-1.72v-9.55a1.72,1.72,0,0,1,1.72-1.72H151a1.72,1.72,0,0,1,1.72,1.72v9.55A1.71,1.71,0,0,1,151,212.1Z"/><path class="cls-4" d="M109.7,91.08h-.14A1.11,1.11,0,0,1,108.45,90V78.45a1.11,1.11,0,0,1,1.11-1.11h.14a1.11,1.11,0,0,1,1.11,1.11V90A1.11,1.11,0,0,1,109.7,91.08Z"/><path class="cls-4" d="M221.15,91.08H221A1.11,1.11,0,0,1,219.9,90V78.45A1.11,1.11,0,0,1,221,77.34h.14a1.11,1.11,0,0,1,1.11,1.11V90A1.11,1.11,0,0,1,221.15,91.08Z"/><path class="cls-4" d="M241,220.49H88.59a2.3,2.3,0,0,1-2.31-2.27V89a2.29,2.29,0,0,1,2.31-2.27H241A2.3,2.3,0,0,1,243.28,89V218.21A2.31,2.31,0,0,1,241,220.49ZM88.59,88.76a.3.3,0,0,0-.31.27V218.21a.29.29,0,0,0,.31.27H241a.3.3,0,0,0,.31-.27V89a.29.29,0,0,0-.31-.27Z"/><path class="cls-9" d="M313.87,208.88c.43,16.53-17.35,22.43-40.94,23.31-29.14,1.09-49-6.48-49.33-17.4-.18-6.83,3.35-15.36,17.17-20.24C249,191.63,261,190,278,190.85c10.42.52,18.58,1.28,24.46,3.24C309.85,196.54,313.66,200.86,313.87,208.88Z"/><path class="cls-10" d="M302.41,194.09c-.87,7.66-21.23,15.44-37.75,16-16.7.59-23.42-5.53-23.89-15.57C249,191.63,261,190,278,190.85,288.38,191.37,296.53,192.14,302.41,194.09Z"/><path class="cls-11" d="M299,187.37c.2,7.85-20.83,16-37.79,16.65s-23.64-5.73-23.91-16.08c-.19-7.35,4.63-11.79,12.35-14.25a64.86,64.86,0,0,1,17.09-2.52c9.69-.34,18.77,2.42,24.81,6.33C296.06,180.44,298.88,184,299,187.37Z"/><path class="cls-9" d="M291.52,177.51c-4.5,4.18-15.54,7.73-24.87,8.06-12.09.44-16.85-4.08-17-11.45,0-.14,0-.29,0-.42a64.86,64.86,0,0,1,17.09-2.52C276.4,170.84,285.48,173.6,291.52,177.51Z"/><path class="cls-12" d="M292.34,171c.14,5.59-14.84,11.44-26.93,11.87s-16.84-4.08-17-11.45c-.22-8.47,8.89-11.52,21-11.95S292.19,165.4,292.34,171Z"/><path class="cls-4" d="M170.64,127a1.14,1.14,0,0,0-1.61,0l-5.14,5L161,129.75a1.13,1.13,0,1,0-1.38,1.8l3.72,2.84a1.4,1.4,0,0,0,.17.09.67.67,0,0,0,.12.06,1.1,1.1,0,0,0,.4.08h0a1.27,1.27,0,0,0,.38-.07l.07,0a1.11,1.11,0,0,0,.32-.21l0,0,5.85-5.68A1.13,1.13,0,0,0,170.64,127Z"/></g></g></g></svg>