<svg xmlns="http://www.w3.org/2000/svg" viewBox="0 0 132.84 123.69"><defs><style>.cls-1{fill:#d00078;}</style></defs><title>succes</title><g id="Layer_2" data-name="Layer 2"><g id="Layer_1-2" data-name="Layer 1"><path class="cls-1" d="M32.05,29.36l-1.55,4.3A6.18,6.18,0,0,1,32.05,29.36Z"/><path class="cls-1" d="M14.33,113.7c1.73,1.37,3.5,2.66,5.28,3.9L6.45,123.29A4.61,4.61,0,0,1,.28,117.5l4.45-12.35.29.29A104.26,104.26,0,0,0,14.33,113.7Z"/><path class="cls-1" d="M40.75,108.44l-12.67,5.49A96.94,96.94,0,0,1,7.65,97.06l4.24-11.77c1.55,1.78,3.17,3.53,4.87,5.23a107.31,107.31,0,0,0,9.31,8.26A103.68,103.68,0,0,0,40.75,108.44Z"/><path class="cls-1" d="M63.47,98.61l-7.54,3.27-6,2.57-1.58.68a3.93,3.93,0,0,1,.12-1.36A96.06,96.06,0,0,1,14.93,76.86l1.37-3.79,1.91-5.29,1-2.89A97.1,97.1,0,0,0,28.51,75.6a105.85,105.85,0,0,0,9.31,8.26A99.94,99.94,0,0,0,63.47,98.61Z"/><path class="cls-1" d="M87.49,88.22l-4.51,2L74.16,94A87.78,87.78,0,0,1,42.59,77.81,90.57,90.57,0,0,1,22.45,56l6.8-18.88h0l1.25-3.47C30.29,50.12,72.33,91.35,87.49,88.22Z"/><path class="cls-1" d="M89.88,87.18a6.07,6.07,0,0,1-2.39,1Z"/><path class="cls-1" d="M84.86,63.64q-1.36-2-2.9-4A122.53,122.53,0,0,0,71.49,47.74,114,114,0,0,0,53.32,32.86C52,32,50.67,31.21,49.38,30.49c-8-4.42-15-6-18.59-2.4-2.05,2.05-2.42,5.21-1.54,9h0c2.06,8.92,11,21.42,21.19,31.66,7.86,7.85,16.24,14.27,23.61,18.06A33.07,33.07,0,0,0,83,90.17a14.8,14.8,0,0,0,2.71.27,7.39,7.39,0,0,0,5.46-2C95.65,84,92,74.05,84.86,63.64Zm-51.53-33a4,4,0,0,1,2.91-.95c2.92,0,7.36,1.62,12.6,4.67,1.21.7,2.47,1.49,3.75,2.34A110.27,110.27,0,0,1,69,50.28a116.79,116.79,0,0,1,9.93,11.27c1,1.33,2,2.66,2.89,4,6.77,9.82,9.37,17.88,6.84,20.41-1.79,1.79-6.74.93-12.92-2.25C68.64,80,60.58,73.85,53,66.25,37.16,50.43,29.55,34.4,33.33,30.63Z"/><path class="cls-1" d="M50,104.45l-1.58.68a3.93,3.93,0,0,1,.12-1.36C49,104,49.49,104.23,50,104.45Z"/><path class="cls-1" d="M75.53,41.57a2.6,2.6,0,0,1,.11-3.67c3-3,7.09-1.2,10.41.23,1.31.57,3.69,1.59,4.52,1.45.15-.83-.88-3.22-1.44-4.53-1.43-3.31-3.21-7.44-.24-10.41s7.1-1.19,10.41.24c1.31.56,3.7,1.59,4.53,1.44.14-.82-.88-3.21-1.45-4.52-1.43-3.32-3.2-7.44-.23-10.41s7.09-1.19,10.41.24c1.33.57,3.81,1.64,4.58,1.43a2.52,2.52,0,1,1,3.53,3.6c-3,3-7.09,1.19-10.41-.24-1.3-.56-3.69-1.59-4.52-1.44-.15.83.88,3.22,1.44,4.53,1.43,3.31,3.21,7.44.24,10.4s-7.1,1.2-10.41-.23c-1.31-.56-3.7-1.59-4.53-1.45-.14.83.89,3.22,1.45,4.53,1.43,3.31,3.2,7.44.23,10.41s-7.09,1.19-10.4-.24c-1.34-.58-3.81-1.64-4.58-1.43A2.61,2.61,0,0,1,75.53,41.57Z"/><path class="cls-1" d="M91.91,95a2,2,0,0,1,1.54-2.35c3.12-.75,5.1,2,6.69,4.3.62.89,1.77,2.52,2.37,2.75.42-.48.71-2.45.86-3.52.39-2.73.88-6.13,4-6.87s5.1,2,6.69,4.3c.62.89,1.77,2.52,2.37,2.75.42-.48.71-2.45.86-3.52.4-2.73.89-6.13,4-6.87s5.1,2,6.69,4.3c.64.91,1.82,2.59,2.41,2.77a1.93,1.93,0,1,1,.86,3.75c-3.12.75-5.09-2.05-6.68-4.31-.63-.88-1.77-2.51-2.37-2.74-.43.48-.71,2.44-.87,3.52-.39,2.73-.88,6.12-4,6.87s-5.09-2-6.68-4.31c-.63-.88-1.77-2.51-2.37-2.74-.43.48-.71,2.44-.87,3.52-.39,2.73-.88,6.12-4,6.87s-5.1-2-6.68-4.31c-.64-.91-1.83-2.59-2.41-2.76A2,2,0,0,1,91.91,95Z"/><path class="cls-1" d="M17.49,39.23a2,2,0,0,1-2.58-1c-1.4-2.82.86-5.32,2.68-7.33.71-.8,2-2.24,2.11-2.87-.55-.3-2.49-.15-3.56-.07-2.7.22-6.06.49-7.45-2.34s.87-5.33,2.68-7.34c.72-.79,2-2.24,2.12-2.86-.55-.31-2.5-.15-3.56-.07-2.7.22-6.06.48-7.45-2.34S3.34,7.71,5.16,5.7c.73-.81,2.08-2.31,2.12-2.91A1.94,1.94,0,0,1,8.1.19a2,2,0,0,1,2.59,1C12.08,4,9.83,6.48,8,8.49c-.71.79-2,2.24-2.12,2.86.56.31,2.5.15,3.57.07,2.7-.21,6-.48,7.45,2.34S16,19.09,14.23,21.1c-.72.79-2,2.24-2.12,2.87.55.3,2.5.15,3.56.06,2.7-.21,6.06-.48,7.45,2.35s-.86,5.32-2.68,7.33c-.73.81-2.08,2.31-2.12,2.91A2,2,0,0,1,17.49,39.23Z"/><path class="cls-1" d="M45.21,47.52A2.11,2.11,0,0,1,45,45.35c7.31-15,5.7-27.84-4.92-39.12a2.09,2.09,0,0,1,3.05-2.87c11.79,12.52,13.69,27.26,5.64,43.82a2.09,2.09,0,0,1-2.8,1A2,2,0,0,1,45.21,47.52Z"/><path class="cls-1" d="M69.84,74.24a2.44,2.44,0,0,0,2.46-.67c13.52-14.22,28.23-17.72,45-10.7a2.46,2.46,0,0,0,1.9-4.53c-18.6-7.79-35.57-3.8-50.45,11.85a2.46,2.46,0,0,0,1.1,4Z"/><circle class="cls-1" cx="68.71" cy="26.09" r="4.11"/><circle class="cls-1" cx="33.87" cy="18.11" r="4.11"/><circle class="cls-1" cx="75.97" cy="8.67" r="3.08"/><circle class="cls-1" cx="122.06" cy="71.82" r="3.34"/><circle class="cls-1" cx="120.06" cy="38.25" r="3.34"/></g></g></svg>