<svg xmlns="http://www.w3.org/2000/svg" viewBox="0 0 2904.76 2904.76"><defs><style>.cls-1{fill:#57a9de;}</style></defs><title>Asset 3</title><g id="Layer_2" data-name="Layer 2"><g id="Layer_1-2" data-name="Layer 1"><path class="cls-1" d="M1452.38,0C650.25,0,0,650.25,0,1452.38S650.25,2904.76,1452.38,2904.76s1452.38-650.25,1452.38-1452.38S2254.51,0,1452.38,0ZM1088.33,2604.37c-301.65,0-546.2-244.55-546.2-546.21S786.68,1512,1088.33,1512s546.21,244.54,546.21,546.2S1390,2604.37,1088.33,2604.37Zm414-1871.17q0,24.19,0,48.41c0,16.9.41,33.83-.26,50.71-1.32,32.81-19.39,48.77-54.08,48.57-32.63-.19-51.32-16.78-51.66-48.5q-1-95.65,0-191.34c.36-34.89,18.68-51.28,54-50.92,33.76.35,51.15,17,51.79,50.85.58,30.73.13,61.48.13,92.22Zm-58.24,493.16c6.36,4.65,12.82,9.15,19.5,13.92,59.1-49.77,116.53-99.73,175.66-147.59,98.43-79.66,195.63-161.14,305.4-225.47a171.41,171.41,0,0,1,34.91-15.84c16.21-5.08,23.3,3.21,19.67,18.94-4.18,18.12-14,34-23.41,49.85-43,72.72-95.53,138.58-147.81,204.54q-131.51,165.94-272.92,323.62c-50.38,56-126,58.56-174.19,1.72-73.7-87-140.64-179-193.67-280.42-9.3-17.79-17.16-36.41-19.91-56.38-3.28-23.76,6.3-31.5,30.4-28.44,20.35,2.58,38.42,10.73,56.31,19.72C1321.67,1138.48,1383.25,1181.88,1444.12,1226.36Zm561.55,116.46c31.5-.54,63-.11,94.51-.13q23.06,0,46.11,0c15.37,0,30.74-.25,46.1.06,35.93.75,52.75,17.28,53.17,51.87.43,36.05-16.22,53.78-53.2,54.13-62.24.61-124.49.48-186.72,0-33.12-.23-51.12-19.14-51.09-51.89C1954.59,1361.48,1971.27,1343.41,2005.67,1342.82Zm-311.2,957.86V2063.07c342.32-77.29,606.15-386.6,606.15-755.48,0-426.87-347.41-774.09-774.27-774.09-369.66,0-679.87,257.1-756.41,606.75H937.17L650,1621,371,1140.25H532.78C613,666.8,1027.65,300.4,1525.82,300.4c555.4,0,1007.9,451.72,1007.9,1007.15C2533.72,1805.72,2167.92,2220.49,1694.47,2300.68Z"/><path class="cls-1" d="M1088.33,1616.62c-243.85,0-441.54,197.68-441.54,441.54s197.69,441.54,441.54,441.54,441.55-197.68,441.55-441.54S1332.19,1616.62,1088.33,1616.62Zm42.87,687.06v81.69h-93.15v-76.26c-63.81-2.24-125.58-16.68-161.8-34.43l28.68-94c40,18.47,95.85,35.29,157.88,35.29,54,0,91.17-17.55,91.17-49.64-.07-30.07-30.53-49.32-100.9-69.46-101.62-28.93-171.14-69-171.14-147,0-70.5,59.25-125.72,160.82-142.67V1731H1136v70.51c63.55,2.39,106.53,13.64,137.84,26.42l-27.73,90.83c-24.5-8.87-68.34-27.41-136.93-27.41-61.75,0-81.62,22.37-81.62,44.9,0,26.27,33.17,43.35,114,69,113,33.56,158.82,77.66,158.82,149.94C1300.42,2226.48,1240.38,2287.46,1131.2,2303.68Z"/></g></g></svg>